<svg xmlns="http://www.w3.org/2000/svg" viewBox="0 0 101.52 99.76"><defs><style>.cls-1{fill:#221714;}</style></defs><title>資產 10</title><g id="圖層_2" data-name="圖層 2"><g id="圖層_1-2" data-name="圖層 1"><path class="cls-1" d="M81.46,11.68c0,2.44,0,4.88,0,7.32a3.84,3.84,0,0,1-4.11,4.1c-4,0-5.35-1.25-5.35-5.31,0-4.45,0-8.9,0-13.34A4.16,4.16,0,0,1,74.7.32c2.39-.75,4.9-.13,6.06,1.51a3.85,3.85,0,0,1,.7,2.33C81.45,6.66,81.46,9.17,81.46,11.68Z"/><path class="cls-1" d="M30.19,11.76c0,2.48,0,5,0,7.43a3.8,3.8,0,0,1-3.41,4,7.37,7.37,0,0,1-2.89-.08,3.7,3.7,0,0,1-3-3.7c0-5.13,0-10.26,0-15.39a3.61,3.61,0,0,1,1.07-2.61c1.87-2,6-1.7,7.58.47a3.36,3.36,0,0,1,.66,2.22c0,.07,0,.14,0,.22Q30.19,8,30.19,11.76Z"/><path class="cls-1" d="M101.48,16c0-.47,0-.93,0-1.4a6.49,6.49,0,0,0-5.59-6.15c-3.29-.39-6.6-.07-9.9-.19-1,0-1.31.36-1.3,1.33,0,3.59,0,7.18,0,10.77a5.59,5.59,0,0,1-1.58,4c-1.47,1.62-3.43,1.95-5.46,2.16-5.16.54-8.92-2.78-8.93-7.94q0-4.36,0-8.73c0-1.56,0-1.57-1.55-1.57H34.46c-.65,0-1,.23-1,.94,0,3.2,0,6.39.06,9.58a7.15,7.15,0,0,1-.58,3.35,7.54,7.54,0,0,1-7,4.46c-5.47.29-8.64-3.77-8.43-8.38.13-2.94,0-5.89.05-8.83,0-.86-.23-1.14-1.08-1.13-3.09,0-6.18,0-9.26,0a6.82,6.82,0,0,0-5,1.7A6.9,6.9,0,0,0,0,15.12Q0,54.06,0,93a6.46,6.46,0,0,0,1,3.58c1.5,2.37,3.74,3.18,6.43,3.18q21.65,0,43.3,0H77.42c5.64,0,11.27,0,16.91,0a6.89,6.89,0,0,0,7.19-7.21C101.44,67,101.48,41.49,101.48,16ZM93.39,93.29H8.1c-1.62,0-1.62,0-1.62-1.6q0-28,0-56C6.48,34,6.49,34,8.15,34H93.33C95,34,95,34,95,35.69q0,28,0,56C95,93.28,95,93.29,93.39,93.29Z"/><path class="cls-1" d="M59.92,53.86c-1.72,0-3.44,0-5.16,0-1.17,0-1.5-.33-1.5-1.47,0-3,0-6,0-8.93,0-.88.4-1.38,1.27-1.38q5.43,0,10.86,0c.83,0,1.22.46,1.21,1.3q0,4.57,0,9.14c0,1-.5,1.35-1.4,1.35Z"/><path class="cls-1" d="M40.9,58.62c1.68,0,3.37,0,5.05,0,1.31,0,1.63.31,1.64,1.56,0,2.9,0,5.81,0,8.71a1.32,1.32,0,0,1-1.49,1.53q-5.21,0-10.43,0c-1,0-1.46-.47-1.44-1.54,0-2.9,0-5.81,0-8.71,0-1.32.24-1.55,1.59-1.56C37.54,58.61,39.22,58.62,40.9,58.62Z"/><path class="cls-1" d="M59.89,58.62c1.72,0,3.44,0,5.16,0,1.25,0,1.52.3,1.53,1.53q0,4.35,0,8.71c0,1.22-.27,1.54-1.52,1.55-3.44,0-6.88,0-10.32,0a1.32,1.32,0,0,1-1.51-1.52q0-4.46,0-8.92c0-1,.48-1.36,1.39-1.36h5.27Z"/><path class="cls-1" d="M21.9,58.62c1.72,0,3.44,0,5.16,0,1,0,1.43.37,1.42,1.4,0,3,0,6,0,8.93,0,1.18-.27,1.47-1.46,1.48-3.44,0-6.88,0-10.32,0-1,0-1.42-.42-1.41-1.44q.05-4.52,0-9c0-1,.44-1.35,1.37-1.34C18.39,58.63,20.15,58.62,21.9,58.62Z"/><path class="cls-1" d="M79,58.62c1.72,0,3.45,0,5.17,0,.93,0,1.39.38,1.38,1.35q0,4.58,0,9.16c0,.85-.4,1.29-1.22,1.29q-5.39,0-10.77,0c-.83,0-1.21-.46-1.21-1.31q0-4.63,0-9.26c0-.89.44-1.22,1.26-1.22Z"/><path class="cls-1" d="M78.95,53.87c-1.72,0-3.45,0-5.17,0-1,0-1.43-.42-1.42-1.42q0-4.52,0-9c0-.91.42-1.34,1.29-1.34H84.31c.89,0,1.26.48,1.26,1.37q0,4.52,0,9c0,1-.48,1.4-1.45,1.39C82.39,53.85,80.67,53.87,78.95,53.87Z"/><path class="cls-1" d="M40.92,86.86c-1.76,0-3.52,0-5.27,0-.93,0-1.4-.33-1.39-1.31q0-4.52,0-9c0-1,.47-1.34,1.39-1.33q5.27,0,10.54,0c1,0,1.42.44,1.41,1.43q0,4.41,0,8.82c0,1-.41,1.44-1.42,1.43C44.43,86.84,42.68,86.86,40.92,86.86Z"/><path class="cls-1" d="M60,86.86c-1.76,0-3.51,0-5.27,0-1,0-1.45-.42-1.45-1.41,0-3,0-5.95,0-8.92,0-.93.43-1.36,1.39-1.36q5.27,0,10.54,0c1,0,1.43.41,1.42,1.42q0,4.46,0,8.92c0,1-.41,1.36-1.36,1.34C63.47,86.84,61.71,86.86,60,86.86Z"/><path class="cls-1" d="M21.84,86.86c-1.76,0-3.52,0-5.27,0-.9,0-1.31-.34-1.3-1.27q0-4.57,0-9.15c0-.93.4-1.27,1.3-1.27q5.33,0,10.65,0c.85,0,1.25.33,1.25,1.21q0,4.63,0,9.26c0,.88-.4,1.22-1.25,1.21C25.43,86.85,23.64,86.86,21.84,86.86Z"/><path class="cls-1" d="M79.08,75.19c1.72,0,3.44,0,5.17,0,1,0,1.34.4,1.33,1.35q0,4.52,0,9c0,.92-.37,1.3-1.28,1.29q-5.33,0-10.66,0c-.92,0-1.28-.39-1.27-1.3q0-4.57,0-9.15c0-.86.35-1.24,1.22-1.23C75.42,75.21,77.25,75.19,79.08,75.19Z"/></g></g></svg>