<svg xmlns="http://www.w3.org/2000/svg" viewBox="0 0 73.27 38.42"><defs><style>.cls-1{fill:#fff5e0;}</style></defs><title>資產 5</title><g id="圖層_2" data-name="圖層 2"><g id="圖層_1-2" data-name="圖層 1"><path class="cls-1" d="M71.89,18.76c-1.4,0-2.8,0-4.2,0-.3,0-.44-.05-.47-.39a1.48,1.48,0,0,0-1.39-1.26H63.26c-.11,0-.15-.11-.06-.28a3.87,3.87,0,0,0,.29-1.11c0-.08.07-.17.34-.17h5.36a1.47,1.47,0,0,0,0-2.94H65.84c-.24,0-.29-.14-.31-.29a2.32,2.32,0,0,0-2.42-2.11c-2.79,0-2.38,0-5.17,0a1.15,1.15,0,0,1-1-1.75.82.82,0,0,1,.79-.5h.74a1.54,1.54,0,0,0,1.28-.55,1.88,1.88,0,0,0,.34-2.07,1.6,1.6,0,0,0-1.66-1.09H56.75c-.92,0-.9,0-1.14-.9A2.8,2.8,0,0,0,52.92,1.2H42A2.14,2.14,0,0,0,39.87,3c-.06.29-.17.35-.43.35H34c-.46,0-.65-.19-.65-.65s.21-.62.65-.62a1,1,0,0,0,.64-.22,1.13,1.13,0,0,0,.2-1.42,1.25,1.25,0,0,0-1-.43C29.89,0,26,0,22,0a2.16,2.16,0,0,0-2.13,1.62c0,.29-.23.33-.48.33-.93,0-1.87,0-2.8,0a1,1,0,0,0-1,1.15.92.92,0,0,0,1,1c.44,0,.88,0,1.32,0a.77.77,0,0,1,.78,1c-.12.37-.41.54-.91.54-1.56,0-3.11,0-4.66,0A1.5,1.5,0,0,0,11.6,7c0,.39-.21.45-.55.45H5.69A1.37,1.37,0,0,0,4.31,9a1.32,1.32,0,0,0,1.39,1.4c1.29,0,2.58,0,3.87,0,.33,0,.45.1.52.41a1.52,1.52,0,0,0,1.69,1.34h3.84a.88.88,0,0,1,1,.93c0,.6-.32.89-1,.89-1.11,0-2.22,0-3.34,0a2.5,2.5,0,0,0-2.53,1.4A3,3,0,0,0,9.94,18,2.22,2.22,0,0,0,12,19.09c.34,0,.69,0,1,0a.49.49,0,0,1,.57.33,1.86,1.86,0,0,0,1.87,1.15l1.36,0a1.14,1.14,0,0,1,1.06,1.34,1,1,0,0,1-1.23,1A1.75,1.75,0,0,0,14.77,24a.44.44,0,0,1-.49.31H12.34a2.07,2.07,0,0,0-.88.18,2,2,0,0,0-.91,2.17,1.68,1.68,0,0,0,1.8,1.45c.86-.05,1.73,0,2.6,0,.32,0,.45.11.52.42A1.36,1.36,0,0,0,17,29.65h2.43a1.38,1.38,0,0,0,1.39-.82.51.51,0,0,1,.56-.32h2.19c.77,0,.73,0,.74.77,0,.46-.12.58-.57.56a1.34,1.34,0,0,0-1.5,1.34,1.38,1.38,0,0,0,1.51,1.35H25.6c.23,0,.36,0,.42.31A1.5,1.5,0,0,0,27.58,34h6.2a.43.43,0,0,1,.48.28,1.53,1.53,0,0,0,1.52.94c1.43,0,2.86,0,4.29,0a1.56,1.56,0,0,0,1.55-1,.4.4,0,0,1,.44-.27h2.39a1.44,1.44,0,0,0,1.5-1.1c.09-.35.26-.41.57-.41,1.75,0,3.49,0,5.24,0A2.51,2.51,0,0,0,54.3,31a.59.59,0,0,1,.7-.44,4,4,0,0,0,2.85-.68,1.6,1.6,0,0,0,.72-1c0-.32.21-.38.5-.38,1.69,0,3.38,0,5.07,0a1.32,1.32,0,0,0,1.36-.92,1.5,1.5,0,0,0-1.37-2.15H62.89c-.23,0-.42-.05-.42-.33s.23-.24.4-.22c1.5.11,2.88-1.42,3.13-2.73a.53.53,0,0,1,.62-.52c1.75,0,3.49,0,5.24,0a1.34,1.34,0,0,0,1.41-1.47A1.27,1.27,0,0,0,71.89,18.76Z"/><path class="cls-1" d="M69.46,33.85c-.38,0-.77,0-1.15,0s-.46-.1-.51-.44a2,2,0,0,0-2.14-1.85c-.55,0-1.1,0-1.65,0-.3,0-.44-.08-.49-.4a1.3,1.3,0,0,0-1.3-1.09c-.52,0-1,0-1.57,0a1.12,1.12,0,0,0-1.2.81c-.15.72-.55.72-1.08.68-.2,0-.41,0-.62,0A2,2,0,0,0,55.57,33a.44.44,0,0,1-.45.34c-1,0-1.95,0-2.92,0a.85.85,0,0,0-1,.86c0,.65.3,1.06.86,1.07s1.27,0,1.9,0a.5.5,0,0,1,.56.35,1.11,1.11,0,0,0,1.16.74c.48,0,1,0,1.44,0s.48.07.53.44a2,2,0,0,0,1.87,1.65c1-.05,2,0,2.93,0a1.3,1.3,0,0,0,1.45-1.15.38.38,0,0,1,.45-.35c.88,0,1.76,0,2.64,0s1.65,0,2.47,0a1.3,1.3,0,0,0,1.33-.83A1.52,1.52,0,0,0,69.46,33.85Z"/><path class="cls-1" d="M10.87,19.78c-1.45,0-2.9,0-4.34,0a1.67,1.67,0,0,0-1.43.66.57.57,0,0,1-.65.36c-.34,0-.68,0-1,0a.91.91,0,0,0-1,.56.41.41,0,0,1-.45.26c-.43,0-.85,0-1.27,0a.74.74,0,0,0-.75.8.69.69,0,0,0,.77.76H2c.24,0,.35.08.36.33a1.19,1.19,0,0,0,.32.74A1.5,1.5,0,0,0,4,24.86H5.56A.87.87,0,0,0,6,24.74H6.1a1.07,1.07,0,0,0,.7-.58.59.59,0,0,1,.6-.33c1.19,0,2.39,0,3.58,0a1.63,1.63,0,0,0,1.39-.66,2.2,2.2,0,0,0,0-2.8A1.78,1.78,0,0,0,10.87,19.78Z"/></g></g></svg>