<svg xmlns="http://www.w3.org/2000/svg" viewBox="0 0 117.9 62.57"><defs><style>.cls-1{fill:#d9c77b;}</style></defs><title>資產 2</title><g id="圖層_2" data-name="圖層 2"><g id="圖層_1-2" data-name="圖層 1" ><path class="cls-1" d="M25.39,59.92c0-.42-.27-.55-.68-.54H20.28a1.78,1.78,0,0,1-1.6-2.81,1.24,1.24,0,0,1,1.15-.68h2.28a1.43,1.43,0,0,0,1.5-1.23,1.41,1.41,0,0,0-1.5-1.31H14.46a2.43,2.43,0,0,1-2.63-2.29c-.06-.44-.18-.58-.66-.58q-4.44.06-8.86,0A2.25,2.25,0,0,1,0,48,2.19,2.19,0,0,1,2.37,45.7c2.1,0,4.2,0,6.3,0,.48,0,.68-.14.75-.62a2.44,2.44,0,0,1,2.63-2.22H24.27a1.42,1.42,0,0,0,1.45-1,1.6,1.6,0,0,0-.42-1.78,1.58,1.58,0,0,0-1.12-.35c-1.91,0-3.81-.11-5.71,0-3.37.24-4.76-3.14-4-5.54a4,4,0,0,1,2.13-2.54,3.26,3.26,0,0,1,1.45-.17h1.27c1.37,0,1.37,0,1.92-1.32a3.44,3.44,0,0,1,2.93-1.13c1.38.06,2.76-.05,4.15-.09a1.83,1.83,0,0,0,1.74-1.91,1.77,1.77,0,0,0-1.76-1.88A3.36,3.36,0,0,1,26.42,25a3.06,3.06,0,0,1-1.5-1.55.7.7,0,0,0-.8-.51c-1,0-2.06,0-3.09,0a2.78,2.78,0,0,1-3-2.28A3.25,3.25,0,0,1,19.66,17a2.21,2.21,0,0,1,1-.17c1.54,0,3.09,0,4.63,0a.68.68,0,0,0,.78-.62,2.23,2.23,0,0,1,2.49-1.93h4a2.19,2.19,0,0,1,2.17,1.28.94.94,0,0,0,1,.59c1,0,2.06,0,3.09,0,.49,0,.69-.2.55-.65s.1-1-.18-1.36-.89-.07-1.35-.15a2.27,2.27,0,0,1-1.91-2.31A2.23,2.23,0,0,1,38.1,9.6c1.12,0,2.24,0,3.36,0,.36,0,.52-.08.61-.49a2.46,2.46,0,0,1,2.54-2H48a.68.68,0,0,0,.73-.45,2.49,2.49,0,0,1,2.46-1.54c2.35,0,4.69,0,7,0a2.47,2.47,0,0,1,2.47,1.52.7.7,0,0,0,.78.47c1.27,0,2.55,0,3.82,0A2.37,2.37,0,0,1,67.8,9a.72.72,0,0,0,.84.62c2.88,0,5.77,0,8.65,0,1.67,0,3.19.53,3.89,2.12a1.6,1.6,0,0,0,2,1.08,5.62,5.62,0,0,1,4,1.1,2.51,2.51,0,0,1,1.21,1.69c.07.51.34.58.78.58,2.79,0,5.59,0,8.39,0a2.25,2.25,0,0,1,2.27,2.43,2.27,2.27,0,0,1-2.23,2.55H95.35c-.36,0-.64.1-.66.5s.33.43.61.4c2.48-.2,4.76,2.34,5.14,4.47.11.58.34.82,1,.81,2.84,0,5.68,0,8.52,0a2.12,2.12,0,0,1,2.25,1.62,2.6,2.6,0,0,1-1,2.89,1.72,1.72,0,0,1-1,.2c-2.33,0-4.66,0-7,0-.45,0-.68.08-.74.61a2.32,2.32,0,0,1-2.38,2.07c-1.25,0-2.51,0-3.76,0-.52,0-.58.17-.38.58a4.49,4.49,0,0,1,.4,1.62c0,.32.1.63.56.58l19.09,0a1.87,1.87,0,0,1,1.94,2.13c0,1.43-.67,2.2-1.92,2.2-2,0-4,0-6,0-.51,0-.73.1-.81.68a3.74,3.74,0,0,1-3.45,3.34c-1.67.17-3.34.06-5,.11A1.61,1.61,0,0,0,99,47.65a1.82,1.82,0,0,0,1.63,2.08c.45,0,.9,0,1.34,0a2.76,2.76,0,0,1,2.66,2.93,2.65,2.65,0,0,1-2.69,2.81c-1.36,0-2.72.16-4.08.12-.43,0-.56.18-.62.59a5,5,0,0,1-2.11,3.66,3.36,3.36,0,0,1-1.87.63c-2.86,0-5.72,0-8.57.16-1.62.08-3.21-.09-4.82,0-4.24.15-8.49,0-12.73,0-2.12,0-4.25-.05-6.37-.1A3.17,3.17,0,0,1,58,57.77c-.11-.63-.33-.83-1-.82-2.88,0-5.77,0-8.65,0a1.06,1.06,0,0,0-1.1.6,1.15,1.15,0,0,0,.07,1.26.94.94,0,0,0,.71.43c1.6.17,2.09,1,1.61,2.53a1.61,1.61,0,0,1-1.53.75c-6.46,0-12.91,0-19.37,0A3.51,3.51,0,0,1,25.39,59.92Z"/><path class="cls-1" d="M106.28,2.47c-2.82,0-5.63,0-8.45,0-.46,0-.66-.12-.76-.6A2.06,2.06,0,0,0,95.15.06,1.35,1.35,0,0,0,94.74,0H90l-.16,0a3.25,3.25,0,0,0-2.92,2.84c-.05.38-.21.55-.61.54-.89,0-1.79,0-2.68,0A1.47,1.47,0,0,0,82,4.22c-.36,1-1.06.92-1.86.92H77.68a1.57,1.57,0,0,0,0,3.13h3.75c.36,0,.71,0,1.07,0a1,1,0,0,1,1,.69,3.56,3.56,0,0,0,3.19,2.25c.69,0,1.4,0,2.1,0,.47,0,.7.1.8.63a2.11,2.11,0,0,0,2.24,1.79h2.35a2.23,2.23,0,0,0,2.21-1.8c.09-.5.31-.63.77-.62.87,0,1.74,0,2.62,0a3.34,3.34,0,0,0,3.6-3.12.6.6,0,0,1,.71-.6h2.22a2.27,2.27,0,0,0,2.19-2.59A2.23,2.23,0,0,0,106.28,2.47Z"/></g></g></svg>