<svg xmlns="http://www.w3.org/2000/svg" viewBox="0 0 87.02 43.89"><defs><style>.cls-1{fill:#e7dbac;}.cls-2{fill:#eae0b7;}</style></defs><title>資產 3</title><g id="圖層_2" data-name="圖層 2"><g id="圖層_1-2" data-name="圖層 1"><path class="cls-1" d="M86.08,38.94c-.47,0-1,0-1.42,0a.54.54,0,0,1-.61-.35A1.06,1.06,0,0,0,83,38c-.45,0-.91,0-1.37,0a.61.61,0,0,1-.69-.41,1.79,1.79,0,0,0-1.53-.8H74a2.22,2.22,0,0,0-1.78.71,2.63,2.63,0,0,0,0,3.35,2,2,0,0,0,1.66.78h4.27a.66.66,0,0,1,.69.34,1.71,1.71,0,0,0,1.67.89h2a1.63,1.63,0,0,0,1.59-1.62c0-.3.15-.4.43-.39h1.47c.63,0,1-.31,1-.91A.89.89,0,0,0,86.08,38.94Z"/><path class="cls-2" d="M49.41,24.23c-.09,0-.15-.06-.15-.16s.08-.1.15-.09.16.05.15.16A.12.12,0,0,1,49.41,24.23Z"/><path class="cls-1" d="M86.11,18.25a2.8,2.8,0,0,0-2.83-1.65H78.9a.94.94,0,0,1-.94-1,.91.91,0,0,1,.88-1c.3,0,.59,0,.89,0a2,2,0,0,0,2.2-1.72c.08-.33.23-.44.58-.44a3.29,3.29,0,0,0,1.21-.08,1.81,1.81,0,0,0,1-2.11,1.64,1.64,0,0,0-1.65-1.34c-.84,0-1.68,0-2.51,0-.31,0-.42-.09-.46-.41a1.72,1.72,0,0,0-1.31-1.61A10.78,10.78,0,0,0,76.5,6.6c-1.94.07-3.87,0-5.8,0a.8.8,0,0,1-.81-1,.94.94,0,0,1,1-.76c.56,0,1.12,0,1.67,0a.94.94,0,0,0,.91-.55,1.31,1.31,0,0,0-1.18-2h-3.2c-.29,0-.53-.06-.57-.4A2.41,2.41,0,0,0,66.27,0H51.77a1.2,1.2,0,0,0-1.09.53,1.24,1.24,0,0,0,1.09,1.93.69.69,0,0,1,.7.77c0,.53-.22.76-.74.76-2.18,0-4.36,0-6.54,0-.32,0-.44-.1-.51-.43a2.53,2.53,0,0,0-2.52-2.15c-4.73.05-9.46,0-14.2,0H24.32a2.69,2.69,0,0,0-2.25,1.19,4.63,4.63,0,0,0-.78,2.08c0,.41-.21.49-.56.48-1,0-2,0-3,0a1.64,1.64,0,0,0-1.42.74,2.24,2.24,0,0,0-.17,2.42A1.88,1.88,0,0,0,18.08,9.4a2.75,2.75,0,0,1,1,0A1.46,1.46,0,0,1,20,11.13a1.27,1.27,0,0,1-1.4,1.12c-3.34,0-6.68,0-10,0a2.72,2.72,0,0,0-2.82,2.45c0,.37-.19.47-.47.48H1.63l-.11,0h0a1.63,1.63,0,0,0,.13,3.25H16c.35,0,.52.09.53.46A2.41,2.41,0,0,0,16.82,20c.14.3.1.44-.28.43-.92,0-1.84,0-2.76,0A1.71,1.71,0,0,0,12,21.94c0,.39-.21.45-.54.45-1.7,0-3.41,0-5.11,0a1.27,1.27,0,0,0-.76.15,1.9,1.9,0,0,0-.74,2.12,1.57,1.57,0,0,0,1.65,1.19c2.08,0,4.17,0,6.25,0,.47,0,.63.18.71.6.29,1.56,1.95,3.43,3.78,3.27.2,0,.46,0,.44.31s-.23.36-.49.36H15.74a1.53,1.53,0,0,0-1.66,1.11A1.83,1.83,0,0,0,15.74,34c1.64-.08,3.28,0,4.93,0,.14,0,.31-.07.46.1a1.7,1.7,0,0,0-.77,1.27c0,.27-.21.33-.46.32-.67,0-1.34,0-2,0A2.43,2.43,0,0,0,15.27,38a.46.46,0,0,1-.55.47H13.14a1.83,1.83,0,0,0,0,3.65c2,0,4.07,0,6.1,0,.36,0,.55.07.63.48a1.55,1.55,0,0,0,1.69,1.32c1.13,0,2.27-.07,3.39,0a2.35,2.35,0,0,0,2.39-2.08c0-.31.18-.41.48-.4.59,0,1.19,0,1.77,0a1.37,1.37,0,0,0,1.5-.94.5.5,0,0,1,.56-.35c.69,0,1.38,0,2.07,0,.89,0,1.1-.14,1.29-1,.05-.27.18-.3.4-.3a11.63,11.63,0,0,0,1.32,0,.54.54,0,0,1,.66.46,1.72,1.72,0,0,0,1.81,1.34h2.81c.23,0,.42,0,.52.26a2,2,0,0,0,2.11,1.21H59.17a1.92,1.92,0,0,0,2-1.17c.11-.27.31-.29.56-.29h2.46A1.78,1.78,0,0,0,66,39.18c.07-.34.23-.36.5-.36.8,0,1.61,0,2.41,0a1.62,1.62,0,0,0,1.64-1.56,1.65,1.65,0,0,0-1.45-1.66c-.3,0-.69.08-.9-.08s0-.61-.15-.92.07-.58.48-.58c.73,0,1.47,0,2.21,0a.66.66,0,0,1,.69.43,1.62,1.62,0,0,0,1.59.94H76A1.65,1.65,0,0,0,77.78,34a.49.49,0,0,1,.57-.45c1.13,0,2.27,0,3.4,0a1.6,1.6,0,0,0,.71-.13,2.37,2.37,0,0,0,1.17-2.72A2,2,0,0,0,81.46,29c-.75,0-1.51,0-2.26,0a.52.52,0,0,1-.59-.38,2.28,2.28,0,0,0-1.1-1.13,2.49,2.49,0,0,0-1.39-.16A1.28,1.28,0,0,1,74.83,26a1.34,1.34,0,0,1,1.29-1.44c1.06,0,2.12-.12,3.18-.07a2.2,2.2,0,0,0,2.29-1.42.45.45,0,0,1,.48-.31H83.7a2.4,2.4,0,0,0,2-1A3.32,3.32,0,0,0,86.11,18.25Z"/></g></g></svg>