<svg xmlns="http://www.w3.org/2000/svg" viewBox="0 0 283.93 336.25"><defs><style>.cls-1{fill:#965520;}.cls-2{fill:#a75d2a;}.cls-3{fill:#f29b8f;}.cls-4{fill:#851d20;}.cls-5{fill:#fff}.cls-6{fill:#9fa0a0;}.cls-7{fill:#231815;}.cls-8{fill:#e4007f;}.cls-9{fill:#d6894b;}.cls-10{fill:#grad;}</style><linearGradient id="grad" x1="0%" y1="0%" x2="0%" y2="100%">
      <stop offset="0%" style="stop-color:#d6894b;stop-opacity:1" />
      <stop offset="100%" style="stop-color:#925e34;stop-opacity:1" />
    </linearGradient></defs><title>資產 17</title><g id="圖層_2" data-name="圖層 2"><g id="圖層_2-2" data-name="圖層 2"><path class="cls-1" d="M178.15,297.89A32.54,32.54,0,0,1,175.31,279c1.14-7.05,7.59-12.84,13.84-16.29,47.69-26.28,35.79-172.32,37-172,28.23,6.9,11.62-12.09,19.49,2.71,16.14,30.39,44.47,148,23,190.83-7.88,15.68-13.16,23.65-28.16,36.13-3.69,3.06-8.55,4.34-13.32,4.83a49.3,49.3,0,0,1-31.57-7.6A48.1,48.1,0,0,1,178.15,297.89Z"/><path class="cls-2" d="M283.93,302.84v-4a2,2,0,0,1-.49-1.44c-3.82-11.31-7.09-22.79-14.07-32.84a119.37,119.37,0,0,0-16.31-19.35c-13.47-12.66-25.75-26.43-34.38-43.06-4.1-7.9-4.12-16.74-6.21-25.1a219.21,219.21,0,0,1-6.08-32.32c-5-52.32-58.45-51.86-58.45-51.86s-55.76-8.2-76.73,44.79c-4,10.2-5.57,21.22-8.31,31.85-4.62,18-14.72,32.84-25.7,47.43C27.11,230.33,15.34,242.44,7,257.19c-4.23,7.49-2.45,16.88-4.84,25v4C41.61,363.07,256.92,337.06,283.93,302.84Z"/><path class="cls-3" d="M203.72,170.46c-1.45-4.2-1-9,.32-13.33,2.57-8.67,4.35-18.17,2.26-27.13-2-8.72-9.05-19.68-19.29-18.08-8,1.25-11.95,7.76-19.1,10.39-5.53,2-11.7,1.33-17.17-.51-7.54-2.52-14.74-5.59-23-5.66-36.72-.35-30.28,35.24-30.26,35.37,2.14,11.24,21.62,21.7,34.3,30.24,7.37,5,13.76,10.44,17.73,18.33,5.09,10.13,13.81,20.36,25,23.78,8.86,2.7,17.67-.54,24.16-6.58C207.22,209.32,208.79,185.06,203.72,170.46Z"/><path class="cls-4" d="M146.75,141.49s1.86-.94,1.57,1.43c-.13,1.05-2.61,5.87-6.52,7.05-3.55,1.06-9.72.47-10.65-1.37-.36-.73-.05-2.16,2.3-1.76a18.64,18.64,0,0,0,8-1C143.69,144.94,146.75,141.49,146.75,141.49Z"/><path class="cls-4" d="M182.82,145.21a9.49,9.49,0,0,0,7.5,3c1.71-.05,4.31-2,4.07-3.72a1.26,1.26,0,0,0-.22-.63,1.71,1.71,0,0,0-1.64-.61c-1.08.2-3.8,1.45-5.4.13-4.51-3.72-4-7.3-5.75-7.3S178.32,139.6,182.82,145.21Z"/><path class="cls-4" d="M182.46,200.48c6-.45,7-7.14,6.6-11a71,71,0,0,0-7.31-3.06c-.86,0-6.22,4-7.87,5.17A8.08,8.08,0,0,0,182.46,200.48Z"/><path class="cls-4" d="M169,168.18a3.13,3.13,0,0,0-1.69-.72c-.61,0-3.09,2.1,3.94,5.37a22.38,22.38,0,0,0,7.64,1.4c1.16,1.05,1.25,7.21.51,10.73-1.44,2.41-3.76,5.35-8.3,5.85-3.32.36-8.79-1.4-10.86-4-.39,2.31,9,13.79,22.11.72.26,2.7,14.46,8.76,14.46-5.84-1.14,1.92-5,9.13-13.55,3,.38-1.84-.09-8.81-1.43-10.82,3.13-1.31,8-5.8,6.46-7.84-.91-.36-1.48.28-2.22.92s-3.24,5-5.87,5.29C172.71,173,170.43,169.28,169,168.18Z"/><path class="cls-5" d="M70.25,97.51c-.59-12,12.85-18.22,21.17-21.67,18.94-7.85,38.61-11,59-7.33,15.23,2.73,33.66,14.52,33.66,27,0,2.33,0,9.85-6.59,9.16-7.59-.81-15.15-2.21-22.76-2.57-17-.8-33.61.25-47.31,12.54-4.16,3.74-9.38,5.88-15.18,5a76,76,0,0,1-12.57-2.87c-7.16-2.36-9.26-7.27-7.17-14.49A8.74,8.74,0,0,1,70.25,97.51Z"/><path class="cls-6" d="M70.25,97.51a8.73,8.73,0,0,0,3.88,4.66,14.41,14.41,0,0,0,5.73,1.77,28.08,28.08,0,0,0,3.08.13c1,0,2.08,0,3.09-.07a22.41,22.41,0,0,0,3-.37,24.32,24.32,0,0,0,2.92-.7,47.08,47.08,0,0,0,11-5.33c3.61-2.2,7.22-4.54,11-6.67a52.74,52.74,0,0,1,6-2.88c2-.83,4.1-1.55,6.2-2.18A57.84,57.84,0,0,1,139,83.62a46.52,46.52,0,0,1,13,1.1,34.36,34.36,0,0,1,11.87,5h0a39,39,0,0,0-12.14-3.56,49.5,49.5,0,0,0-12.52-.06A58.82,58.82,0,0,0,127.1,89c-2,.69-3.92,1.42-5.82,2.27a50.51,50.51,0,0,0-5.47,2.91c-3.63,2.11-7.16,4.46-10.82,6.75a42.57,42.57,0,0,1-12.16,5.39,24.06,24.06,0,0,1-6.75.68c-1.13,0-2.23-.13-3.32-.27s-2.16-.3-3.28-.56a14.85,14.85,0,0,1-6.1-2.9,9.57,9.57,0,0,1-2.16-2.59A8.27,8.27,0,0,1,70.25,97.51Z"/><path class="cls-6" d="M182.22,102.94c-3.38,1.68-13.93-4-18.72-5-3.87-.79-30.33-4.78-46.42,4-7.23,4-13.61,9.74-20.13,12.49-4.54,1.91-25.6-1.66-25-9.74-1,5.86,1.43,9.91,7.73,12a75.93,75.93,0,0,0,12.58,2.87c5.79.86,11-1.28,15.18-5,13.69-12.29,30.3-13.34,47.3-12.54,7.61.36,15.18,1.76,22.76,2.57C181.16,105,182.68,102.71,182.22,102.94Z"/><path class="cls-4" d="M169,168.18a3.13,3.13,0,0,0-1.69-.72c-.61,0-3.09,2.1,3.94,5.37a22.38,22.38,0,0,0,7.64,1.4c1.16,1.05,1.25,7.21.51,10.73-1.44,2.41-3.76,5.35-8.3,5.85-3.32.36-8.79-1.4-10.86-4-.39,2.31,9,13.79,22.11.72.26,2.7,14.46,8.76,14.46-5.84-1.14,1.92-5,9.13-13.55,3,.38-1.84-.09-8.81-1.43-10.82,3.13-1.31,8-5.8,6.46-7.84-.91-.36-1.48.28-2.22.92s-3.24,5-5.87,5.29C172.71,173,170.43,169.28,169,168.18Z"/><circle class="cls-7" cx="140.51" cy="145.06" r="11.38"/><circle class="cls-7" cx="184.95" cy="142.86" r="11.38"/><path class="cls-8" d="M192.84,151.08a6.88,6.88,0,0,0,4.89-.15"/><path class="cls-7" d="M193.11,150.41a5.4,5.4,0,0,0,1,.36,6.42,6.42,0,0,0,1.15.19,6.22,6.22,0,0,0,2.33-.28h0a.28.28,0,0,1,.35.18.26.26,0,0,1-.13.33,6.91,6.91,0,0,1-2.53.78,6.77,6.77,0,0,1-1.35,0,6,6,0,0,1-1.39-.23.73.73,0,0,1,.4-1.4l.12.05Z"/><path class="cls-8" d="M194.64,148.25a6.89,6.89,0,0,0,4.89-.15"/><path class="cls-7" d="M194.91,147.58a5.5,5.5,0,0,0,1,.36,6.18,6.18,0,0,0,3.47-.09h0a.29.29,0,0,1,.35.19.28.28,0,0,1-.14.33,6.85,6.85,0,0,1-2.52.77,7.61,7.61,0,0,1-1.35,0,7.07,7.07,0,0,1-1.39-.23.73.73,0,0,1-.5-.9.72.72,0,0,1,.89-.51l.13,0Z"/><path class="cls-8" d="M195.71,145a6.88,6.88,0,0,0,4.89-.15"/><path class="cls-7" d="M196,144.28a5.4,5.4,0,0,0,1,.36,6.42,6.42,0,0,0,1.15.19,6.22,6.22,0,0,0,2.33-.28h0a.28.28,0,0,1,.35.19.25.25,0,0,1-.13.32,6.91,6.91,0,0,1-2.53.78,7.59,7.59,0,0,1-1.35,0,7.32,7.32,0,0,1-1.39-.23.73.73,0,0,1,.4-1.41l.13.05Z"/><path class="cls-8" d="M137.24,156a6.87,6.87,0,0,1-4.42,2.09"/><path class="cls-7" d="M137.79,156.51a6.87,6.87,0,0,1-1.13.84,7.21,7.21,0,0,1-1.22.59,6.87,6.87,0,0,1-2.6.47.28.28,0,0,1,0-.56h0A6,6,0,0,0,135,157a6.93,6.93,0,0,0,.93-.68,6.22,6.22,0,0,0,.76-.8h0a.74.74,0,0,1,1-.16.73.73,0,0,1,.16,1Z"/><path class="cls-8" d="M134.35,154.34a6.91,6.91,0,0,1-4.42,2.09"/><path class="cls-7" d="M134.89,154.82a6.61,6.61,0,0,1-1.13.84,8,8,0,0,1-1.21.59,7.12,7.12,0,0,1-2.61.46.28.28,0,0,1-.27-.28.27.27,0,0,1,.23-.27h0a6.21,6.21,0,0,0,2.2-.82,7,7,0,0,0,.94-.68,5,5,0,0,0,.75-.8h0a.73.73,0,0,1,1-.15.72.72,0,0,1,.15,1A.48.48,0,0,1,134.89,154.82Z"/><path class="cls-8" d="M131.89,151.89a6.86,6.86,0,0,1-4.41,2.09"/><path class="cls-7" d="M132.44,152.37a7.4,7.4,0,0,1-1.13.83,7.21,7.21,0,0,1-1.22.59,6.87,6.87,0,0,1-2.6.47.28.28,0,0,1,0-.56h0a6,6,0,0,0,2.2-.81,6.34,6.34,0,0,0,.93-.68,5.6,5.6,0,0,0,.76-.8h0a.73.73,0,1,1,1.17.86Z"/><path class="cls-5"  d="M178.08,135.63h0a11.3,11.3,0,0,0,13.73,0h0a11.33,11.33,0,0,0,0,13.73h0a11.3,11.3,0,0,0-13.73,0h0a11.3,11.3,0,0,0,0-13.73Z"/><path class="cls-5"  d="M133.65,138.19h0a11.3,11.3,0,0,0,13.73,0h0a11.3,11.3,0,0,0,0,13.73h0a11.3,11.3,0,0,0-13.73,0h0a11.3,11.3,0,0,0,0-13.73Z"/><path class="cls-9" d="M101.51,22.75c2.7-3.16,8.6-11,8.6-11S124.54,5.59,132,3.18L156.28,0l24.95,1.27,30.2,5.41,18.49,8.65,7.64,9v9.63L233,82.68,218.31,98.07l-35.11,6.25-30.83-1.41S128,96.59,118.62,92.55L106.51,75.41S101.51,28.8,101.51,22.75Z"/><polygon class="cls-10" fill="url(#grad)" points="115.46 14.2 107.72 23.08 108.95 27.08 128.25 40.03 166.33 44.72 199.46 44.72 225.03 38.72 233.64 26.98 225.23 18.14 210.94 12.29 182.49 5.77 158.45 4.21 135.1 7.31 115.46 14.2"/><path class="cls-1" d="M1.05,284.86a32.5,32.5,0,0,1,.81-19.09c2.46-6.71,6.36-12.77,9.87-19C17,237.5,89.44,79.3,90.61,79.84c26.4,12.16,26-9.47,21.87,6.76-6.67,26-27.55,153.8-30.19,174.73C80.08,278.74,75.08,309.4,58,318.8c-4.2,2.3-9.21,2.63-14,2.2a49.33,49.33,0,0,1-29.55-13.47A48.18,48.18,0,0,1,1.05,284.86Z"/><path class="cls-3" d="M97.35,58.25c5.57-6.92,14.63-11.24,23.42-10,1.81.25,3.91,1,4.29,2.82.48,2.24-2,3.87-4.11,4.78l-7,3A14.31,14.31,0,0,1,127.26,61a3.75,3.75,0,0,1,1.57,2.1c.38,2-2,3.34-4,3.91a94.28,94.28,0,0,1-11.28,2.53,36.34,36.34,0,0,1,10.82,0c6.62.94,11,5.34,5.89,8.11l-13.42,1.69a18.78,18.78,0,0,1,9.42,2.07c2.06,1.08,4.14,3,3.83,5.31-.4,3.07-4.58,4-7.51,3s-5.42-3.19-8.47-3.7c.38,3.36-2.18,6.48-5.23,8a13.15,13.15,0,0,1-11.65-.24C84.41,86.86,90.27,67,97.35,58.25Z"/><path class="cls-3" d="M242.09,64.44c-5.27-6.55-13.85-10.64-22.18-9.47-1.71.24-3.69,1-4.06,2.67-.45,2.12,1.91,3.66,3.89,4.52l6.63,2.89a13.5,13.5,0,0,0-12.59,2,3.58,3.58,0,0,0-1.49,2c-.36,1.91,1.9,3.16,3.76,3.7a88.76,88.76,0,0,0,10.69,2.4,33.87,33.87,0,0,0-10.25,0c-6.27.88-10.44,5-5.58,7.68l12.71,1.59a17.66,17.66,0,0,0-8.91,2c-2,1-3.92,2.84-3.64,5,.38,2.91,4.34,3.82,7.11,2.86s5.13-3,8-3.5c-.36,3.18,2.07,6.13,5,7.52a12.41,12.41,0,0,0,11-.23C254.34,91.53,248.79,72.77,242.09,64.44Z"/></g></g></svg>