<svg xmlns="http://www.w3.org/2000/svg" xmlns:xlink="http://www.w3.org/1999/xlink" viewBox="0 0 137.8 135.02"><defs><style>.cls-1{fill:#cf854b;}.cls-2{fill:url(#未命名漸層_4);}.cls-3{fill:url(#未命名漸層_4-2);}.cls-4{fill:url(#未命名漸層_4-3);}.cls-5{fill:url(#未命名漸層_4-4);}.cls-6{fill:url(#未命名漸層_4-5);}.cls-7{fill:url(#未命名漸層_4-6);}.cls-8{fill:url(#未命名漸層_45);}.cls-9{fill:url(#未命名漸層_48);}.cls-10{fill:url(#未命名漸層_32);}.cls-11{fill:#f2c6ae;}.cls-12{fill:#fef3ed;}.cls-13{font-size:24px;fill:#8a1c25;font-family:HakusyuKaisyoExtraBold_kk;}.cls-14{font-size:12px;fill:#490f0b;font-family:GenJyuuGothic-Heavy, Gen Jyuu Gothic;font-weight:800;}</style><linearGradient id="未命名漸層_4" x1="68.44" y1="14.47" x2="68.44" y2="140.38" gradientUnits="userSpaceOnUse"><stop offset="0.11" stop-color="#cf854b"/><stop offset="0.53" stop-color="#6a3906"/></linearGradient><linearGradient id="未命名漸層_4-2" x1="8.56" y1="18.24" x2="8.56" y2="235.17" xlink:href="#未命名漸層_4"/><linearGradient id="未命名漸層_4-3" x1="99.38" y1="17.81" x2="99.38" y2="247.03" gradientTransform="matrix(-1, 0, 0, 1, 225.81, 0)" xlink:href="#未命名漸層_4"/><linearGradient id="未命名漸層_4-4" x1="32.27" y1="37.03" x2="32.27" y2="236.54" xlink:href="#未命名漸層_4"/><linearGradient id="未命名漸層_4-5" x1="66.58" y1="51.63" x2="66.58" y2="223.9" xlink:href="#未命名漸層_4"/><linearGradient id="未命名漸層_4-6" x1="102.3" y1="45.36" x2="102.3" y2="230.58" xlink:href="#未命名漸層_4"/><linearGradient id="未命名漸層_45" x1="121.98" y1="24.56" x2="121.98" y2="73.27" gradientUnits="userSpaceOnUse"><stop offset="0.11" stop-color="#99d1ba"/><stop offset="0.87" stop-color="#3a9669"/></linearGradient><linearGradient id="未命名漸層_48" x1="130.43" y1="29.34" x2="118.79" y2="58.19" gradientUnits="userSpaceOnUse"><stop offset="0" stop-color="#99d1ba"/><stop offset="0.65" stop-color="#3ea47a"/></linearGradient><linearGradient id="未命名漸層_32" x1="66.6" x2="66.6" y2="75.42" gradientUnits="userSpaceOnUse"><stop offset="0.11" stop-color="#f4b3c2"/><stop offset="0.87" stop-color="#e57887"/></linearGradient></defs><title>資產 20</title><g id="圖層_2" data-name="圖層 2"><g id="圖層_2-2" data-name="圖層 2"><path class="cls-1" d="M0,53.44c2.7-3.15,8.61-10.95,8.61-10.95S23,36.29,30.52,33.88L54.78,30.7,79.72,32l30.2,5.41L128.41,46l7.64,9v9.63l-4.56,48.73-14.69,15.4L81.7,135l-30.83-1.41s-24.35-6.32-33.76-10.36L5,106.11S0,59.5,0,53.44Z"/><polygon class="cls-2" points="13.96 44.9 6.21 53.78 7.45 57.78 26.74 70.73 64.83 75.42 97.96 75.42 123.52 69.42 130.68 55.52 122.43 47.87 107.98 40.85 80.99 36.47 56.95 34.9 33.59 38.01 13.96 44.9"/><polygon class="cls-3" points="0 53.44 2.46 59.24 13.68 69.41 17.11 123.25 5 106.11 0 53.44"/><polygon class="cls-4" points="136.05 55.01 129.61 69.41 122.9 75.42 116.8 128.77 131.49 113.38 136.05 66.81 136.05 55.01"/><polygon class="cls-5" points="13.68 69.41 23.07 75.42 50.87 79.59 50.87 133.61 17.11 123.25 13.68 69.41"/><polygon class="cls-6" points="50.87 79.59 66.37 81.43 82.28 81.22 81.7 135.02 50.87 133.61 50.87 79.59"/><polygon class="cls-7" points="82.28 81.22 103.37 79.59 122.9 75.42 116.8 128.77 81.7 135.02 82.28 81.22"/><path class="cls-8" d="M110.57,41.34c-4,4.69-4.5,8.8-4.41,14.6,0,1.27.27,11.62,1,17.33L122,69.77a32,32,0,0,0,4.67-6.15c4-6.83,5.75-14.69,7.45-22.42l3.66-16.64C127.88,28.73,117.58,33.17,110.57,41.34Z"/><path class="cls-9" d="M137.8,24.56S116,40.2,109.15,72"/><path class="cls-10" d="M26.74,70.73l38.09,4.69H98l19.92-4.67c3.44-9.63,6.58-40-28.42-52a42,42,0,0,1-9.2-4.52,25.86,25.86,0,0,1-7.18-7A32.21,32.21,0,0,0,69.23,2c-1.58-1.5-3.91-2.47-6-1.7-2.35.88-3.36,3.55-4.63,5.71a27.4,27.4,0,0,1-6.36,6.93c-8,6.7-21.65,11.89-28.95,19.37s-12.06,20-9.14,30Z"/><path class="cls-11" d="M91.81,64.56a33.37,33.37,0,0,0-9.26-.24C56.72,66.22,37.8,56,33.63,69.41c-2.26,7.28-.53,11.5-2.22,18.94C29,99,24.41,102.7,20.91,113a3.07,3.07,0,0,0-.21,1.88c.29.86,1.25,1.27,2.1,1.57,12.21,4.25,32.69,10,46.24,10,2.06,0,1.09-4,2-3.89,9.41.65,10.62-3.29,11.2-7.31,1.44-9.76,3.33-14.55,5.74-25.1,1-4.51,2.12-9,3.21-13.49.34-1.41,4.62-1,6.73-1.28a12.5,12.5,0,0,0,4.34-1A14,14,0,0,0,91.81,64.56Z"/><path class="cls-12" d="M23.45,114.39a12,12,0,0,0,4.51,3c5.28,1.86,10.4,4.3,15.94,5.18,6.19,1,14.64,1.16,20.75-.34a8.53,8.53,0,0,0,4.08-1.92,9.22,9.22,0,0,0,2-3.6C75,104.73,76,91.79,80.65,80c.73-1.86,3.57-7.06,5-8.43,3.92-3.69,4.66-2,6.66-2-2.42.56-6,2.75-7.13,4.94s-3.63,7-4.14,9.47q-2.25,10.93-4.52,21.87c-.48,2.35-1,4.79-.35,7.1.16.6.6,1.3,1.2,1.16.37-.08.59-.44.76-.78,6.4-12.3,5-27.75,12.45-39.48a6.21,6.21,0,0,1,2.67-2.63A5.49,5.49,0,0,1,98,72a28,28,0,0,0,4.18,2.45l.17-.06a14,14,0,0,0-10.49-9.84,33.37,33.37,0,0,0-9.26-.24C56.72,66.22,37.8,56,33.63,69.41c-2.26,7.28-.53,11.5-2.22,18.94-2.06,9.1-5.73,13.15-8.94,20.62C22,111.06,21.83,113,23.45,114.39Z"/><path class="cls-12" d="M101.18,74.78l.78-.26A2,2,0,0,0,101.18,74.78Z"/><text class="cls-13" transform="translate(33.58 53.62)">割引券</text><text class="cls-14" transform="matrix(1.17, 0.13, -0.28, 0.96, 33.9, 87.5)">GET<tspan x="0.27" y="14.4">NOW!</tspan></text></g></g></svg>