<svg xmlns="http://www.w3.org/2000/svg" viewBox="0 0 323.38 411.79"><defs><style>.cls-1{fill:#389a6b;}.cls-2{fill:#980ead;}</style></defs><title>資產 3</title><g id="圖層_2" data-name="圖層 2"><g id="圖層_1-2" data-name="圖層 1"><path class="cls-1" d="M47.5,39.57c11,2,5.76,10.64,5.53,21.8-.56,27.8-2.5,37.47-.8,65.25.75,12.45,2.39,24.4,2.84,49.68.6,34.65,20.86,123.77,22.18,132.84,1.07,7.31,2.35,15.92,6.28,22.32,4.2,6.83,8.9-.8,11.22-4.72,4.19-7.07,10-11.81,16-18.09,7-7.28,15.2-16,25.87-17.51,2.29-.33,6-.86,8,.77,3.18,2.66-.08,6.67-2.12,8.82-7.16,7.57-16.68,13.2-24.42,20.28A140.26,140.26,0,0,0,100,340.51c-4.43,5.93-9,12.41-11,19.66-1.58,6-1.39,12.3-.76,18.39.59,5.8,1.44,11.74.17,17.52-.57,2.58-1.68,5.94-3.46,8a4.19,4.19,0,0,1-3.78,1.54c-6.33-1.27-6.61-15.05-6.69-19.73-.18-9.79-.09-18.43-6.08-26.64-7.72-10.58-18-19.13-29.07-25.95-11.48-7-24.93-10.35-36-17.82C1.49,314.18-.51,312.19.12,310c1.79-6.15,13.08-4.12,17.37-3,7.5,1.9,14.53,5.53,21.45,8.88a57.5,57.5,0,0,1,18.18,13.7c2,2.29,10.52,12.57,12.6,5.44,1-3.47.55-7.6.27-11.13-1.6-20.49-7.22-40.14-10.95-60.25-3-16.35-6.32-32.65-9.25-49-3.37-18.88-6.81-37.85-8.21-57C41.58,157.61,30.75,36.58,47.5,39.57Z"/><path class="cls-2" d="M47.26,68.56c2.87.12,4.2-3.8,5.5-5.17,3.23-3.4,6-8.1,11.26-10,6.3-2.29,8.11,3.53,7.51,7S68.3,66.93,66,69.86C61.83,75.1,58.1,80.92,52,85.05,35.64,96.12,27,69.83,25,62.24c-.8-3.05-2.22-7.48.26-10.29,5.56-6.3,13.14,4,14.81,7.31a40.49,40.49,0,0,0,3.29,5.41C44.12,65.69,45.47,68.48,47.26,68.56Z"/><path class="cls-2" d="M49.62,150.41c2.88.12,4.19-3.82,5.48-5.19,3.22-3.42,6-8.13,11.22-10.06,6.28-2.33,8.12,3.49,7.54,7s-3.2,6.55-5.51,9.49c-4.13,5.25-7.83,11.1-13.91,15.25C38.14,178,29.38,151.78,27.36,144.2c-.82-3-2.26-7.47.21-10.3,5.52-6.32,13.15,4,14.84,7.24a40,40,0,0,0,3.32,5.4C46.47,147.56,47.83,150.34,49.62,150.41Z"/><path class="cls-2" d="M47.59,166.94c-4.91-.33-6.82-4.45-8.92-6-5.19-3.89-9.54-9-18.28-11.72C9.86,145.93,6.22,151.45,6.92,155s4.91,7,8.6,10.29c6.6,5.87,11.4,15.3,22.45,17.32,26.06,4.74,35.9-10.81,48.16-18.49,7.1-4.45,4.49-7.1.51-10.3-8.9-7.13-22.79,2-25.95,5a44.88,44.88,0,0,1-6.12,4.88C53.21,164.57,50.66,167.14,47.59,166.94Z"/><path class="cls-2" d="M53.05,207.59c3.37-.22,4.52-4.29,5.89-5.81,3.42-3.77,6.21-8.78,12.12-11.31,7.11-3.05,9.84,2.52,9.51,6.06s-3.1,6.89-5.5,10.08c-4.3,5.72-8.06,12-14.75,16.81-18,13-30.81-12.1-33.93-19.41-1.25-2.94-3.38-7.17-.77-10.27,5.83-6.94,15.78,2.41,18.07,5.47a40.13,40.13,0,0,0,4.42,5C49.08,205.12,51,207.73,53.05,207.59Z"/><path class="cls-2" d="M52.31,224.27c-5.78.25-8.42-3.62-11-4.94-6.46-3.27-12.06-7.85-22.55-9.53-12.64-2-16.34,3.89-15.17,7.35s6.44,6.4,11.07,9.23c8.3,5.07,14.86,13.9,28,14.61,30.95,1.69,40.9-14.94,54.48-24,7.86-5.26,4.55-7.59-.43-10.31-11.11-6.06-26.46,4.61-29.85,8a51.67,51.67,0,0,1-6.67,5.56C58.65,221.26,55.92,224.11,52.31,224.27Z"/><path class="cls-2" d="M62.75,264.39c3.17-.61,3.74-4.77,4.85-6.43,2.77-4.13,4.77-9.42,10.06-12.6,6.37-3.84,9.68,1.38,9.82,4.92s-2.06,7.18-3.94,10.62c-3.35,6.16-6.12,12.78-11.86,18.35C56.29,294.18,40.87,270.78,37,263.89c-1.57-2.78-4.14-6.72-2-10.1,4.65-7.54,15.29.59,17.87,3.36a40.31,40.31,0,0,0,4.83,4.44C58.66,262.4,60.77,264.77,62.75,264.39Z"/><path class="cls-2" d="M64.19,281c-5.46.91-8.47-2.63-11.11-3.64-6.55-2.5-12.46-6.4-22.64-6.87-12.26-.57-15,5.72-13.47,9s6.94,5.61,11.71,7.89c8.53,4.08,15.89,12.08,28.45,11.29,29.61-1.87,36.94-19.49,48.67-30,6.8-6.11,3.35-8-1.72-10.16-11.34-4.74-24.55,7.59-27.34,11.3a49.34,49.34,0,0,1-5.63,6.28C69.82,277.3,67.59,280.44,64.19,281Z"/><path class="cls-2" d="M47.87,109.77c3.36.11,4.91-3.23,6.43-4.39,3.77-2.89,7.05-6.88,13.16-8.5,7.36-1.95,9.48,3,8.78,6s-3.77,5.54-6.49,8c-4.84,4.45-9.2,9.4-16.33,12.9-19.12,9.4-29.22-12.94-31.55-19.39-.93-2.59-2.6-6.35.3-8.74,6.49-5.35,15.36,3.43,17.31,6.21a34.62,34.62,0,0,0,3.86,4.6C44.2,107.33,45.78,109.7,47.87,109.77Z"/><path class="cls-1" d="M153.46,17.1c0,5.46-.11,11.3-.27,16.94q-.47,16.74-.8,33.48c-.56,27.81-2.5,37.47-.81,65.25.76,12.45,2.4,24.4,2.84,49.68.61,34.65,20.87,123.77,22.19,132.84,1.07,7.31,2.34,15.92,6.28,22.32,4.19,6.83,8.9-.8,11.22-4.72,4.18-7.07,10-11.81,16-18.09,7-7.28,15.19-16,25.87-17.51,2.28-.33,6-.86,8,.77,3.18,2.66-.08,6.67-2.12,8.82-7.16,7.57-16.69,13.2-24.42,20.28a140.26,140.26,0,0,0-18.08,19.5c-4.43,5.93-9,12.41-11,19.66-1.58,6-1.39,12.3-.77,18.39.6,5.8,1.45,11.74.18,17.52-.57,2.58-1.68,5.94-3.46,8a4.17,4.17,0,0,1-3.78,1.54c-6.33-1.27-6.61-15.05-6.69-19.73-.18-9.79-.09-18.43-6.08-26.64a97.08,97.08,0,0,0-29.2-26.08c-10.92-6.37-23.3-10.59-32.75-19.26-1.41-1.3-2.81-3.42-1.65-4.95s3-1.75,4.76-1.41c5.27,1,10,4.35,15.13,6,4.64,1.47,9.39,2.64,13.87,4.61,8,3.53,14.14,8.47,20.7,14.13,1.87,1.61,8.92,7.88,10.4,2.8,1-3.47.55-7.6.27-11.13-1.6-20.49-7.22-40.13-10.95-60.25-3-16.35-6.33-32.65-9.25-49-3.37-18.88-6.81-37.84-8.21-57,0,0-10.08-110.66-1.42-146.67C144-1.6,153.48,12.13,153.46,17.1Z"/><path class="cls-2" d="M146.15,51.53c2.87.12,4.2-3.8,5.5-5.17,3.23-3.4,6-8.1,11.26-10,6.29-2.3,8.1,3.53,7.51,7s-3.24,6.53-5.56,9.46c-4.15,5.24-7.88,11.06-14,15.19-16.35,11.07-25-15.22-27-22.81-.8-3.06-2.23-7.48.26-10.3,5.55-6.29,13.13,4,14.8,7.31a41.74,41.74,0,0,0,3.3,5.42C143,48.66,144.35,51.45,146.15,51.53Z"/><path class="cls-2" d="M149.93,140c2.87.11,4.18-3.82,5.48-5.2,3.21-3.42,6-8.12,11.21-10.06,6.28-2.33,8.12,3.49,7.54,7s-3.2,6.55-5.51,9.49c-4.12,5.26-7.83,11.1-13.91,15.26-16.3,11.14-25.06-15.1-27.08-22.69-.81-3-2.26-7.47.21-10.29,5.53-6.32,13.16,4,14.84,7.24a41.59,41.59,0,0,0,3.32,5.39C146.78,137.15,148.14,139.94,149.93,140Z"/><path class="cls-2" d="M147.89,156.53c-4.91-.33-6.82-4.45-8.91-6-5.19-3.89-9.55-9-18.29-11.73-10.52-3.27-14.16,2.25-13.46,5.81s4.91,7,8.59,10.29c6.6,5.87,11.4,15.3,22.46,17.32,26.06,4.74,35.89-10.81,48.15-18.49,7.1-4.45,4.49-7.1.51-10.3-8.89-7.13-22.79,2-25.94,5a46.38,46.38,0,0,1-6.13,4.87C153.52,154.16,151,156.73,147.89,156.53Z"/><path class="cls-2" d="M153.35,197.18c3.37-.22,4.52-4.29,5.9-5.81,3.41-3.77,6.2-8.78,12.11-11.31,7.11-3.05,9.85,2.52,9.51,6.06s-3.09,6.89-5.5,10.08c-4.3,5.72-8.05,12-14.75,16.81-18,13-30.81-12.1-33.92-19.41-1.26-2.94-3.39-7.17-.78-10.27,5.84-6.93,15.78,2.41,18.08,5.47a40.84,40.84,0,0,0,4.41,5C149.39,194.71,151.25,197.32,153.35,197.18Z"/><path class="cls-2" d="M152.61,213.86c-5.77.25-8.41-3.62-11-4.94-6.46-3.27-12.06-7.85-22.55-9.53-12.63-2-16.34,3.89-15.17,7.35s6.44,6.4,11.08,9.23c8.3,5.07,14.85,13.9,28,14.62,30.94,1.68,40.9-14.94,54.48-24,7.86-5.26,4.54-7.59-.43-10.3-11.11-6.07-26.46,4.6-29.85,8a53.37,53.37,0,0,1-6.68,5.57C159,210.85,156.22,213.7,152.61,213.86Z"/><path class="cls-2" d="M163.06,254c3.17-.6,3.74-4.77,4.85-6.43,2.76-4.13,4.77-9.42,10.06-12.6,6.36-3.84,9.67,1.38,9.81,4.92s-2.06,7.18-3.93,10.62c-3.36,6.16-6.12,12.78-11.86,18.35-15.4,14.93-30.82-8.47-34.72-15.36-1.57-2.78-4.13-6.72-2.05-10.1,4.65-7.54,15.3.59,17.87,3.36a40.42,40.42,0,0,0,4.84,4.44C159,252,161.07,254.36,163.06,254Z"/><path class="cls-2" d="M164.49,270.6c-5.45.91-8.46-2.63-11.1-3.64-6.56-2.5-12.47-6.4-22.65-6.87-12.26-.57-15,5.72-13.47,9s6.94,5.6,11.71,7.88c8.53,4.08,15.89,12.08,28.45,11.29,29.62-1.87,36.94-19.49,48.68-30,6.79-6.11,3.34-8-1.73-10.16-11.33-4.74-24.54,7.59-27.33,11.3a49.34,49.34,0,0,1-5.63,6.28C170.13,266.9,167.9,270,164.49,270.6Z"/><path class="cls-2" d="M148.18,89.42c3.35.11,4.91-3.22,6.43-4.39,3.77-2.88,7-6.87,13.16-8.49,7.35-2,9.47,3,8.78,6s-3.78,5.55-6.49,8c-4.85,4.45-9.21,9.39-16.34,12.9-19.11,9.39-29.22-12.94-31.54-19.39-.94-2.6-2.61-6.36.3-8.75,6.49-5.34,15.36,3.43,17.31,6.22a35.17,35.17,0,0,0,3.85,4.6C144.51,87,146.08,89.36,148.18,89.42Z"/><path class="cls-1" d="M269.28,9.53c0,5.46.11,11.3.27,16.94q.48,16.74.8,33.48c.56,27.81,2.5,37.47.81,65.25-.76,12.45-2.4,24.4-2.84,49.68-.6,34.65-20.87,123.77-22.19,132.84-1.06,7.31-2.34,15.92-6.27,22.32-4.2,6.83-8.06-1.45-11.23-4.72-15.54-16.07-46-30.92-47.76-26-2.79,8.05,16,14.43,24.65,20.35,9,6.15,11.68,13,17.86,19.43,9.58,9.91,9,12.41,10.94,19.66,1.59,6,1.39,12.3.77,18.39-.6,5.8-1.44,11.74-.18,17.52.57,2.58,1.69,5.94,3.46,8a4.17,4.17,0,0,0,3.78,1.54c6.34-1.27,6.61-15.05,6.7-19.73.17-9.79.08-18.43,6.08-26.64,7.72-10.57,17.95-19.13,29.07-26,11.47-7,24.93-10.35,36-17.82,1.87-1.26,3.87-3.25,3.24-5.42-1.79-6.15-13.08-4.12-17.38-3-7.49,1.9-14.52,5.53-21.45,8.88a57.35,57.35,0,0,0-18.17,13.7c-2,2.29-10.53,12.57-12.6,5.44-1-3.47-.55-7.6-.28-11.13,1.6-20.49,7.22-40.14,11-60.25,3-16.35,6.32-32.65,9.24-49,3.38-18.88,6.82-37.85,8.21-57,0,0,10.08-110.66,1.42-146.67C278.73-9.17,269.27,4.56,269.28,9.53Z"/><path class="cls-2" d="M279.53,43.57c2.85-.34,3.54-4.42,4.61-6,2.65-3.87,4.67-9,9.53-11.67,5.85-3.27,8.56,2.2,8.53,5.74s-2.16,7-4,10.22c-3.27,5.83-6,12.17-11.4,17.22C272.43,72.62,259.73,48,256.57,40.86c-1.28-2.89-3.39-7-1.38-10.21,4.49-7.1,13.61,1.9,15.78,4.87a41.28,41.28,0,0,0,4.11,4.82C276,41.23,277.74,43.77,279.53,43.57Z"/><path class="cls-2" d="M276.73,133.38c2.87.11,4.18-3.82,5.48-5.2,3.21-3.41,6-8.12,11.21-10.05,6.28-2.33,8.12,3.49,7.54,7s-3.2,6.54-5.51,9.48c-4.12,5.26-7.83,11.1-13.91,15.26-16.3,11.15-25.06-15.1-27.08-22.68-.81-3-2.26-7.47.21-10.3,5.53-6.32,13.16,4,14.84,7.24a41.69,41.69,0,0,0,3.32,5.4C273.58,130.53,274.93,133.31,276.73,133.38Z"/><path class="cls-2" d="M274.69,149.9c-4.91-.32-6.82-4.44-8.91-6-5.19-3.89-9.55-9-18.29-11.72C237,128.9,233.33,134.42,234,138s4.91,7,8.59,10.29c6.6,5.86,11.4,15.3,22.46,17.31,26.06,4.75,35.89-10.8,48.15-18.49,7.1-4.45,4.49-7.1.51-10.29-8.89-7.14-22.79,2-25.94,5a45.62,45.62,0,0,1-6.13,4.88C280.32,147.54,277.76,150.11,274.69,149.9Z"/><path class="cls-2" d="M271.68,196.94c3.35.42,5.24-3.36,6.88-4.59,4.07-3.06,7.76-7.45,14-8.82,7.56-1.65,9.19,4.34,8.19,7.76s-4.34,6.17-7.31,8.85c-5.3,4.8-10.17,10.22-17.66,13.72-20.09,9.35-28-17.72-29.64-25.48-.68-3.13-2-7.68,1.18-10.24,7-5.7,15,5.36,16.71,8.8a40.88,40.88,0,0,0,3.4,5.73C268.25,193.76,269.58,196.68,271.68,196.94Z"/><path class="cls-2" d="M267.79,213.17c-5.71-.84-7.58-5.15-9.88-6.93-5.73-4.43-10.36-10-20.34-13.63-12-4.38-16.78.73-16.29,4.35s5.11,7.5,9.13,11.16c7.19,6.55,12,16.46,24.71,19.64,30.07,7.51,43-6.93,58-13.27,8.71-3.67,5.9-6.59,1.53-10.2-9.77-8-26.86-.48-30.82,2.18a52.64,52.64,0,0,1-7.61,4.2C274.59,211.42,271.37,213.7,267.79,213.17Z"/><path class="cls-2" d="M263.35,254.74c3.2.44,5.07-3.31,6.66-4.53,3.94-3,7.54-7.39,13.57-8.71,7.26-1.59,8.72,4.41,7.71,7.81s-4.25,6.14-7.13,8.8c-5.15,4.76-9.89,10.14-17.12,13.57-19.37,9.2-26.47-17.92-28-25.69-.59-3.13-1.76-7.69,1.3-10.22,6.83-5.65,14.3,5.47,15.85,8.92a40.07,40.07,0,0,0,3.15,5.75C260.12,251.54,261.35,254.47,263.35,254.74Z"/><path class="cls-2" d="M259.37,270.94c-5.45-.89-7.17-5.21-9.34-7-5.41-4.47-9.75-10.06-19.25-13.77-11.43-4.48-16.06.59-15.65,4.22s4.77,7.54,8.56,11.23c6.77,6.59,11.17,16.54,23.32,19.82,28.65,7.73,41.24-6.6,55.74-12.83,8.4-3.6,5.75-6.54,1.63-10.18-9.21-8.13-25.68-.69-29.52,1.94a51.16,51.16,0,0,1-7.34,4.14C265.9,269.24,262.78,271.5,259.37,270.94Z"/><path class="cls-2" d="M277.32,94.2c3.36-.16,4.65-3.6,6.07-4.88,3.53-3.18,6.48-7.41,12.45-9.51,7.17-2.53,9.68,2.24,9.22,5.25s-3.33,5.83-5.83,8.52c-4.49,4.82-8.44,10.1-15.27,14.15-18.31,10.88-30.15-10.59-33-16.83-1.14-2.52-3.1-6.13-.39-8.75,6-5.84,15.58,2.21,17.75,4.83a34.49,34.49,0,0,0,4.2,4.28C273.47,92.06,275.23,94.3,277.32,94.2Z"/></g></g></svg>