<svg xmlns="http://www.w3.org/2000/svg" viewBox="0 0 352.58 378.93"><defs><style>.cls-1{fill:#77c974;}.cls-2{fill:#389a6b;}.cls-3{fill:#fff98f;}.cls-4{fill:#ffb929;}</style></defs><title>資產 2</title><g id="圖層_2" data-name="圖層 2"><g id="圖層_1-2" data-name="圖層 1"><path class="cls-1" d="M244,310.71a45.49,45.49,0,0,0,19.48,8.72c5.25.92,16.8,1.34,19.25-3.24,2.62-4.89-6.84-8.72-11.79-10.15-8.63-2.49-18.19-1.85-27.27-1.87-1,0-2.09,0-3.13,0a11.22,11.22,0,0,0-3.12.21A39.35,39.35,0,0,0,244,310.71Z"/><path class="cls-1" d="M245,300.1c-3.78-4.9-6.5-10.77-6.91-16.55-.3-4.19.77-13.1,6.1-14.11,5.69-1.07,8.59,6.89,9.5,10.94,1.57,7.07-.41,14.26-1.6,21.21-.13.8-.27,1.59-.43,2.39a6.48,6.48,0,0,1-.64,2.35A39.58,39.58,0,0,1,245,300.1Z"/><path class="cls-1" d="M216,322.09a53.77,53.77,0,0,0,23,10.3c6.21,1.08,19.85,1.59,22.75-3.83,3.1-5.78-8.08-10.3-13.94-12-10.19-2.95-21.5-2.19-32.22-2.21h-3.71a14.2,14.2,0,0,0-3.69.25A46.41,46.41,0,0,0,216,322.09Z"/><path class="cls-1" d="M224.54,307.29c2.29-6,3.17-12.2,1.71-17-1.06-3.47-5.06-9.87-10.86-7.62-6.19,2.4-6.58,10.34-6.19,14.05.69,6.47,5.07,11,8.55,15.79.4.55.8,1.1,1.22,1.64s.77,1.22,1.43,1.48A49.52,49.52,0,0,0,224.54,307.29Z"/><path class="cls-1" d="M194,322.56c2.29-6,3.17-12.2,1.7-17-1.06-3.47-5.06-9.88-10.85-7.63-6.19,2.41-6.58,10.34-6.19,14.05.69,6.47,5.07,11,8.55,15.79.4.56.8,1.11,1.22,1.64s.77,1.22,1.43,1.48A49.81,49.81,0,0,0,194,322.56Z"/><path class="cls-1" d="M126.85,316.17c3-5.27,4.86-11.43,4.55-17.29-.22-4.24-2.31-13.12-7.47-13.65-5.51-.57-7.3,7.71-7.66,11.88-.64,7.26,2.1,14.32,4.06,21.21.22.79.45,1.58.7,2.37a6.82,6.82,0,0,0,.89,2.3A37,37,0,0,0,126.85,316.17Z"/><path class="cls-1" d="M97,300.21a32.5,32.5,0,0,0,4.54-17.29c-.22-4.24-2.31-13.12-7.47-13.65-5.5-.57-7.3,7.71-7.66,11.88-.64,7.26,2.1,14.32,4.06,21.21.23.79.46,1.58.7,2.37a6.82,6.82,0,0,0,.89,2.3A37,37,0,0,0,97,300.21Z"/><path class="cls-1" d="M73.42,286.34c3-5.28,4.86-11.44,4.55-17.29-.22-4.25-2.31-13.13-7.47-13.66-5.51-.57-7.3,7.71-7.66,11.88-.64,7.26,2.1,14.32,4.06,21.21q.33,1.18.69,2.37a7,7,0,0,0,.9,2.31A37.65,37.65,0,0,0,73.42,286.34Z"/><path class="cls-1" d="M191.38,339.85A55.94,55.94,0,0,0,215,351.21c6.41,1.3,20.55,2.22,23.72-3.31C242.07,342,230.6,337,224.57,335c-10.49-3.35-22.24-2.89-33.37-3.23-1.28,0-2.56-.07-3.85-.09a14.14,14.14,0,0,0-3.83.15A48.37,48.37,0,0,0,191.38,339.85Z"/><path class="cls-1" d="M126.39,334.91a54.32,54.32,0,0,1-18.06,19.36c-5.56,3.47-18.54,9.18-23.54,4.71-5.33-4.77,3.64-13.67,8.61-17.64,8.65-6.91,19.88-10.42,30.23-14.53,1.19-.47,2.38-.94,3.58-1.39a13.61,13.61,0,0,1,3.67-1.15A50.58,50.58,0,0,1,126.39,334.91Z"/><path class="cls-1" d="M95.16,314.1A54.37,54.37,0,0,1,77.1,333.45c-5.56,3.48-18.53,9.19-23.53,4.72-5.34-4.78,3.64-13.68,8.6-17.64C70.83,313.61,82.05,310.1,92.4,306c1.19-.48,2.39-.94,3.59-1.4a13.17,13.17,0,0,1,3.66-1.14A49.55,49.55,0,0,1,95.16,314.1Z"/><path class="cls-1" d="M61.55,299.38A54.29,54.29,0,0,1,40.94,316c-6,2.65-19.65,6.46-24,1.33-4.6-5.48,5.54-13,11-16.24,9.54-5.62,21.15-7.51,32-10.11,1.25-.3,2.49-.59,3.75-.87a13.38,13.38,0,0,1,3.78-.62A49.44,49.44,0,0,1,61.55,299.38Z"/><path class="cls-2" d="M176.46,265.28a5.43,5.43,0,0,1-3.07-2.08c-1.41-1.91-1.41-4.5-1.3-6.87C175.18,186.87,214.22,120,273.17,83.14c-5,3.11-11.42,4.72-16.69,7.44a162.29,162.29,0,0,0-16.37,9.7,171.93,171.93,0,0,0-67.43,89.65,229.63,229.63,0,0,0-5.61,23.3c-2.27,11.12-3.63,23.47-8.84,33.59-.87,1.7-2.48,3.63-4.29,3-1.43-.5-1.83-2.3-2-3.82-2.81-24.66-3.05-49.45-8.1-73.85-5.19-25-12.67-49.5-18-74.47-2.2-10.26-4.2-21-10.26-29.51-2-2.75-5.23-5.48-8.35-4.19-3.74,1.53-3.36,6.87-2.33,10.77,0,6.11,3.67,13.92,5.24,19.86l5.82,22.05q5.57,21.07,11.14,42.14c6.69,25.28,12.85,53.12,12.85,79.45,0,13.85,1.17,27.71,1.77,41.55a551.72,551.72,0,0,0-85-100.37c-3.19-2.95-9.37-5.29-10.86-1.22-.86,2.35,1,4.74,2.78,6.52,19.82,20.18,40.24,39.95,57.13,62.64s30.27,48.72,33.93,76.76A255.58,255.58,0,0,0,32.42,274c-2.12-.44-4.54-.78-6.26.53-2.23,1.69-1.91,5.35-.09,7.48s4.61,3.08,7.26,4c23.56,7.74,47.43,15.34,68.74,28S142.25,345,150.4,368.46c.95,2.73,1.8,5.59,3.68,7.78s5.18,3.49,7.73,2.13c2.22-1.18,3.12-3.83,3.95-6.2,7.84-22.44,26.3-39.92,47.12-51.38S257,303.17,280,297.27c2.5-.64,5.13-1.35,7-3.16s2.47-5.12.62-6.92c-1.64-1.6-4.28-1.33-6.53-.92a237.09,237.09,0,0,0-109.71,51.9c-3.85-14-5.72-29.31-.16-42.7,4.77-11.49,14.43-20.17,24.27-27.78,29.93-23.15,64.17-40.09,95.05-62l-5.87-6.87L188,262C184.62,264.17,180,266.19,176.46,265.28Z"/><path class="cls-3" d="M73.59,200c-.35-14.71,3.35-28.35,3.07-43.06-.09-4.31-.55-14.48-6.47-15.35C54.2,139.25,63,196,68,199.73c6.74,5.05-21.13-48-33.14-49C7.59,148.48,61,204.24,57.94,199c5,3.75-20.09-19.49-38.65-23.91-3.55-.85-8.21-.94-9.49,1.72-1.06,2.21,1,4.78,3.1,6.74,9.8,9.3,26.54,17,37.55,22.86"/><path class="cls-3" d="M78.66,208.91C93,210,106,215.06,120.32,216.18c4.2.33,21.29-1.21,19.27-11.8-3.08-16.21-52.56-3.92-55.76-2.59-7.72,3.18,46.62-15.27,46.1-27.58-1.05-24.82-50.89,23.46-49,18.85-4.08,4.75,20.71-18.58,26.61-37.06,1.13-3.54,1.62-8.27-.85-9.83-2.07-1.3-4.75.59-6.83,2.5-9.9,9.09-18.81,25.41-25.49,36.06"/><path class="cls-3" d="M62.09,217c1.63,14.63-.87,28.56.7,43.19.46,4.29,1.81,14.39,7.78,14.71,16.11.86-.06-56.11-2.91-58.15-11.6-8.31,25.23,45.88,37.27,45.78,27.36-.22-32-47.11-27.18-46,3.18,9.56,47.46,31,51.84,23.48,8.53-14.59-33.56-26.68-45-31.54"/><path class="cls-3" d="M56.22,202c-14.22,2.11-27.93,0-42.16,2-4.18.6-14,2.29-14.06,8.4-.19,16.5,65.79-5.57,56.69-4.73-8.3.77-43.8,27.18-43.22,39.48,1.32,28,44.74-34.1,43.85-29.18,3-5.53-16.3,22.72-18.19,42.08-.37,3.71.15,8.45,2.89,9.43,2.29.82,4.51-1.63,6.14-3.95,7.75-11,13-29,17.32-40.84"/><ellipse class="cls-4" cx="70.12" cy="206.2" rx="26.81" ry="27.44" transform="translate(-21.96 8.82) rotate(-6.23)"/><path class="cls-3" d="M288.77,208.78c-1.12-13.61,1.71-26.49.65-40.11-.31-4-1.3-13.39-7-13.82-15.46-1.14-4,50.89,1,54.05,6.74,4.25-22.83-43.12-34.4-43.29-26.29-.37,27.87,47.92,24.7,43.29,5,3.16-20.31-16.78-38.34-19.7-3.45-.55-7.93-.34-9,2.2-.91,2.13,1.25,4.37,3.33,6,9.89,8,26.36,14,37.24,18.8"/><path class="cls-3" d="M294.12,216.73c13.82.07,26.52,4,40.34,4.08,4.05,0,20.36-2.48,17.86-12.17-3.83-14.83-50.62-.27-53.63,1.15-7.23,3.45,43.91-17.12,42.75-28.5-2.33-22.95-47.56,25-46,20.61-3.66,4.65,18.87-18.56,23.55-36.06.89-3.35,1.11-7.78-1.35-9.06-2-1.08-4.52.85-6.42,2.75-9,9.06-16.68,24.76-22.52,35.06"/><path class="cls-3" d="M278.65,225.25c2.35,13.46.7,26.53,3,40,.67,3.95,2.5,13.22,8.25,13.14,15.5-.23-3.06-52-5.89-53.71-11.58-7,26.64,40.91,38.18,40.05,26.23-2-33.16-41.63-28.52-40.91,3.56,8.66,47.17,25.67,51,18.45C352,228.19,311,219.67,299.75,215.9"/><path class="cls-3" d="M272.23,211.78c-13.53,2.87-26.8,1.77-40.34,4.57-4,.82-13.29,3-13,8.68.69,15.31,62.81-9.36,54.12-8-7.92,1.24-40.56,28-39.35,39.36,2.76,25.84,41.1-34.47,40.51-29.85,2.57-5.32-14.43,22.1-15.21,40.17-.15,3.46.6,7.82,3.28,8.55,2.24.62,4.24-1.79,5.68-4.05,6.84-10.74,10.95-27.68,14.43-39"/><ellipse class="cls-4" cx="285.78" cy="214.76" rx="25.79" ry="25.46" transform="translate(-39.89 67.33) rotate(-12.57)"/><path class="cls-3" d="M259.92,87.22C262.13,71.19,268.71,57,271,41c.67-4.7,1.95-15.82-4.56-17.79C248.87,17.93,248.72,81,253.69,86c6.69,6.65-15.28-55.73-28.61-58.9-30.3-7.21,19.87,62.57,17.4,56.41,5,4.93-19.15-24.64-39.25-32.66-3.84-1.53-9.07-2.44-11,.22-1.6,2.22.32,5.38,2.29,7.85,9.38,11.8,26.86,23,38.2,31.33"/><path class="cls-3" d="M264.05,97.78c15.95,3.64,29.64,11.41,45.58,15.12,4.67,1.08,24.17,2.38,23.78-9.47-.6-18.13-58.45-13.36-62.29-12.49-9.25,2.12,55.17-8.48,56.76-21.93,3.22-27.13-61.42,16.64-58.47,12C264,85.41,296,64.39,305.92,45.36c1.9-3.64,3.29-8.7.78-10.82-2.1-1.77-5.45-.17-8.13,1.54-12.74,8.14-25.67,24.31-35.07,34.71"/><path class="cls-3" d="M244,103.65c-.75,16.15-6,30.84-6.86,47-.24,4.74-.51,15.93,6.14,17.31,18,3.74,9.88-60.9,7-63.61-11.58-11,20.25,54.17,33.82,56.15,30.82,4.51-27.61-56.68-22.43-54.65,1.89,10.93,47.91,41.83,54.17,34.47,12.19-14.36-33-34.77-45.08-42"/><path class="cls-3" d="M240,86.42c-16.38-.17-31.43-4.86-47.81-5.11-4.8-.08-16.13,0-17.3,6.67-3.14,17.88,75,5.36,64.63,4.7-9.48-.61-54.1,21.9-55.63,35.35-3.47,30.58,56.38-29.24,54.51-24.06,4.35-5.48-22.37,21.83-27.93,42.52-1.06,3.95-1.32,9.19,1.59,10.73,2.43,1.28,5.36-1,7.61-3.22,10.68-10.65,19.79-29.18,26.72-41.33"/><ellipse class="cls-4" cx="254.91" cy="93.36" rx="30.54" ry="30.16"/><path class="cls-3" d="M116.63,63.91c-1.29-16.12,2.09-31.37.88-47.5C117.15,11.68,116,.54,109.23,0c-18.31-1.39-4.87,60.26,1,64,8,5-26.92-51.13-40.62-51.35C38.52,12.16,102.54,69.5,98.8,64c5.91,3.75-24-19.93-45.36-23.43-4.09-.67-9.38-.43-10.68,2.58-1.08,2.51,1.47,5.18,3.93,7.17C58.38,59.83,77.87,67,90.74,72.69"/><path class="cls-3" d="M122.94,73.34c16.37.11,31.4,4.75,47.77,4.94,4.8.06,24.11-2.88,21.18-14.36-4.49-17.58-59.95-.47-63.51,1.22-8.58,4,52-20.17,50.7-33.64-2.7-27.19-56.4,29.47-54.52,24.27-4.35,5.51,22.4-21.92,28-42.64,1.07-4,1.34-9.2-1.57-10.73-2.42-1.28-5.36,1-7.6,3.25-10.7,10.7-19.83,29.26-26.78,41.45"/><path class="cls-3" d="M104.6,83.39c2.74,15.94.75,31.42,3.42,47.37.78,4.68,2.93,15.66,9.73,15.58,18.36-.23-3.48-61.6-6.83-63.63-13.69-8.28,31.44,48.53,45.11,47.54,31.08-2.23-39.16-49.4-33.66-48.53,4.19,10.26,55.79,30.53,60.31,22,8.81-16.64-39.74-26.84-53.07-31.34"/><path class="cls-3" d="M97,67.42c-16,3.35-31.74,2-47.79,5.3-4.7,1-15.74,3.53-15.45,10.24C34.57,101.1,108.2,72,97.9,73.63c-9.38,1.45-48.11,33-46.7,46.51C54.39,150.75,100,79.43,99.25,84.9c3.06-6.29-17.15,26.13-18.12,47.53-.19,4.1.69,9.26,3.86,10.14,2.65.73,5-2.11,6.74-4.78,8.13-12.71,13-32.76,17.19-46.11"/><ellipse class="cls-4" cx="113.07" cy="70.98" rx="30.54" ry="30.16" transform="translate(-12.63 26.01) rotate(-12.44)"/></g></g></svg>