<svg xmlns="http://www.w3.org/2000/svg" viewBox="0 0 344.07 359.99"><defs><style>.cls-1{fill:#d95354;}.cls-2{fill:#389a6b;}.cls-3{fill:#77c974;}</style></defs><title>資產 1</title><g id="圖層_2" data-name="圖層 2"><g id="圖層_1-2" data-name="圖層 1"><ellipse class="cls-1" cx="17.51" cy="135.32" rx="19.16" ry="17.42" transform="translate(-118.33 122.47) rotate(-77.22)"/><ellipse class="cls-1" cx="39.57" cy="172.48" rx="19.16" ry="17.42" transform="translate(-129.59 120.51) rotate(-60)"/><ellipse class="cls-1" cx="72.08" cy="193.38" rx="19.16" ry="17.42" transform="translate(-132.45 220.91) rotate(-77.22)"/><ellipse class="cls-1" cx="106.98" cy="223.95" rx="17.51" ry="15.92" transform="translate(-135.09 278.75) rotate(-77.22)"/><ellipse class="cls-1" cx="148.72" cy="249.11" rx="17.42" ry="19.16"/><ellipse class="cls-1" cx="183.12" cy="183.34" rx="15.62" ry="14.2" transform="translate(-36.19 321.37) rotate(-77.22)"/><ellipse class="cls-1" cx="154.52" cy="151.58" rx="19.16" ry="17.42" transform="translate(-27.48 268.75) rotate(-77.22)"/><ellipse class="cls-1" cx="104.59" cy="131.84" rx="19.16" ry="17.42" transform="translate(-47.12 204.68) rotate(-77.22)"/><ellipse class="cls-1" cx="60.77" cy="120.36" rx="16.83" ry="15.3" transform="translate(-70.05 153.01) rotate(-77.22)"/><path class="cls-2" d="M245.76,134.22c14.84-11.67,32.86-20.26,50.91-22,13.09-1.23,41.12,1.24,45,17,4.12,16.84-20.43,26.16-33,29.18-21.93,5.26-44.71-.05-66.61-3q-3.78-.51-7.55-1.09c-2.61-.4-5.35-.49-7.43-1.73A116.68,116.68,0,0,1,245.76,134.22Z"/><path class="cls-2" d="M251.47,275.24c19.91-3.59,39.07-11.77,52-24.68,9.41-9.37,25-32.91,13.25-46.72-12.53-14.75-36.48-2-47.19,5.78-18.65,13.5-28.34,34.9-39.57,54-1.29,2.2-2.57,4.41-3.82,6.64s-2.95,4.51-3.16,7A132,132,0,0,0,251.47,275.24Z"/><path class="cls-2" d="M258,299.42c20.34-3.14,41.34-1.61,57.79,6.52,11.93,5.89,34.1,23.38,26.9,40.54-7.68,18.33-34.71,14-47.4,10.06-22.12-6.82-37.93-24.19-54.56-38.85-1.91-1.69-3.82-3.39-5.69-5.12s-4.21-3.36-5.16-5.67A136.29,136.29,0,0,1,258,299.42Z"/><path class="cls-2" d="M246.43,101.86c13.13-14.77,23.32-33.15,26.41-52.1C275.07,36,274.61,6.16,258.62.82c-17.07-5.69-28.5,19.54-32.55,32.61-7,22.78-3.26,47.3-1.82,70.7.16,2.69.34,5.38.56,8.07s.11,5.7,1.24,8A122,122,0,0,0,246.43,101.86Z"/><path class="cls-2" d="M204.79,110.61C203.05,92.49,197,74.19,186.2,60.47c-7.86-9.95-28.25-27.87-41.83-20C129.86,48.77,139.72,72.1,146,82.9c10.94,18.81,29.81,31.16,46.47,44.47q2.86,2.3,5.79,4.55c2,1.54,3.9,3.4,6.16,4A113.68,113.68,0,0,0,204.79,110.61Z"/><path class="cls-3" d="M159.08,230.89a7.77,7.77,0,0,1,3.51-.6,9.12,9.12,0,0,1,5.14,2.3c6.13,5.17,10.45,13.52,14,20.59a224.44,224.44,0,0,1,9.75,23.71,244.43,244.43,0,0,1,12.43,48.86c.66,4.65.36,10,2.37,14.47,1.23,2.72,3.41,5.75,5.72,2.58,3.07-4.2,2.76-11.16,3.56-16.1,1.06-6.62,6.2-11.09,12.4-13,11.13-3.48,22.92-.8,34,1.75,8.9,2,17.65,4.67,26.35,7.44,7,2.22,15.84,6.21,23.28,4.94,6.82-1.17-1.77-7.76-4-9.29a60.45,60.45,0,0,0-15.77-7.39c-21.88-7.25-43.45-9.5-66.39-8.59a2.68,2.68,0,0,1-1.81-.36c-2.78-2.15,9.49-18.64,11.08-21a148.15,148.15,0,0,1,15.43-19.44,94.67,94.67,0,0,1,37.74-24.79c9.53-3.49,8.37-10.46,3.66-10.89-11.16-1-21.91,5.52-31.36,11.67-10,6.54-19,15.58-26.71,24.68-5.78,6.82-11.25,14.18-15.12,22.28a13.67,13.67,0,0,1-3.19,4.92.67.67,0,0,1-.64.21.73.73,0,0,1-.34-.5c-1.44-4.71-.61-9.73-.45-14.55.71-21.2-.82-42.44.07-63.68.33-7.71.87-15.41,1.72-23.08.74-6.75.83-15,3.77-21.23,1.65-3.5,4.67-5.06,7.89-7,17.49-10.39,37.11-16.9,57.14-20.2,5.94-1,28.78-3,33.67-5.47,2-1,5.71-4.4,2.87-6.6s-7.91-2.3-11.18-2.63c-14.81-1.47-29.38,3.55-43.39,7.65a156,156,0,0,0-24.55,9.23c-7,3.42-5.7,2.62-12.24,5.45-5.11,2.21-3.4-6.95-3-9.24,1.67-9.95,4-19.78,5.59-29.74C233.63,98.07,234.3,88,237.28,78c3.52-11.74,9.27-22.66,15.57-33.13,3-5,6.77-9.78,9-15.11.67-1.61,3.87-9-.63-8.08C251.66,23.57,246,33.36,241.46,41c-9.85,16.56-18.41,35.79-20.08,55.33-1.15,13.47.62,27.69-5.87,40.09a6.2,6.2,0,0,1-1.9,2.36c-4.48,2.92-8.35-8.76-9.47-11.57-2.13-5.35-3.39-11-5.06-16.49A107.15,107.15,0,0,0,184.83,81c-2.55-3.7-16.15-23.5-21.92-19.72-6.41,4.19,38.06,65.3,42.85,83.73,4.14,15.95,2.23,30.24.09,46-1.61,11.81-3,23.66-3.92,35.53-.93,11.56-.67,23.1-.58,34.68,0,4.38-2.72.3-3.3-1.54-3-9.4-7-18.63-12.69-26.7-4.43-6.25-10.08-10.89-11.79-18.69A25.75,25.75,0,0,1,177,194.8c1.35-2,3-3.91,3.74-6.23s.16-5.31-2-6.37a5.3,5.3,0,0,0-3.34-.28c-4.16.81-7.35,4.34-9,8.23s-2.11,8.18-2.76,12.37a2.8,2.8,0,0,1-.66,1.65c-1.1,1-2.81-.21-3.72-1.41a46.86,46.86,0,0,1-9-23.51c-.91-8.84.79-17.35,1.35-26.11a8.64,8.64,0,0,0-.17-3c-.73-2.56-3.71-3.22-5.92-2.08-10.15,5.27-8.44,21.4-7.68,30.45.36,4.26-2.16,2.88-4.51,1.28-5.26-3.29-10.35-7-15.41-10.56-6.25-4.41-10.31-9.31-11.16-17.14-.44-4.11-.16-8.25-.32-12.37a14.09,14.09,0,0,0-1.41-6.49c-1.09-2-3.25-3.47-5.46-3.16a5.65,5.65,0,0,0-4,3A13.51,13.51,0,0,0,94.16,138a44.51,44.51,0,0,0,.46,13.82c1.11,5.74-3.42,5.93-7.16,2.77-3.92-3.31-6.72-5.41-11.67-6.8-3.77-1.06-9.4-1.83-11.48-5.65-.91-1.66-1-3.62-1.45-5.47a9.22,9.22,0,0,0-3.47-5.86c-1.94-1.28-4.92-1.16-6.26.74s-1,5.69-3.39,6.41a4.46,4.46,0,0,1-2.93-.47A121.8,121.8,0,0,0,33,133c-2.29-.61-5.21-.94-6.58,1a4.11,4.11,0,0,0,.47,4.74,12.1,12.1,0,0,0,4.12,2.95l11.61,6a5.66,5.66,0,0,1,2.17,1.62c1.13,1.62-.57,3.51-.74,5.17-.23,2.21,1.83,4.14,4,4.54s4.41-.35,6.48-1.17a24.26,24.26,0,0,1,14-1.5c3.76.71,24,6.28,14.79,11.76-2.76,1.64-6.07,2.23-8.73,4s-4.43,5.72-2.41,8.22,5.72,1.73,8.67.78a98,98,0,0,1,11.4-3.24,41.94,41.94,0,0,1,37.55,12.5c1,1.12,3.93,3.62,3.3,5.28s-3.84,1.59-5.18,1.83c-3.59.66-7.36.57-10.81,1.87-5.4,2-10.48,5.45-13.43,10.41-1,1.75-1.71,4.21-.26,5.63a4.21,4.21,0,0,0,3.56.81c3.55-.49,6.19-2.67,9.14-4.47,9.2-5.61,24.22-8.57,33.52-1.54,1.41,1.07,10,7.43,6.21,9.42-3.92,2.09-7.95,3.89-11,7.25-1.76,2-3.12,4.82-1.91,7.15,1.67,3.21,6.53,2.65,9.63.77C154.75,233.56,156.77,231.8,159.08,230.89Z"/></g></g></svg>