<svg xmlns="http://www.w3.org/2000/svg" viewBox="0 0 443.29 181.71"><defs><style>.cls-1{fill:#c8ab84;}</style></defs><title>資產 10</title><g id="圖層_2" data-name="圖層 2"><g id="圖層_1-2" data-name="圖層 1"><path class="cls-1" d="M77.29,41a9.26,9.26,0,0,0-1-4.13,9.31,9.31,0,0,1-.63-6.58,7.9,7.9,0,0,0,.24-3,8.06,8.06,0,0,0-16.07.85,8.3,8.3,0,0,0,.35,2.35,8.65,8.65,0,0,1-.7,6.36,9.34,9.34,0,0,0,1.92,10.87,23.3,23.3,0,0,1,5.14,7l1.35,2.91,1.34-2.91a23.51,23.51,0,0,1,5.15-7A9.34,9.34,0,0,0,77.29,41Z"/><path class="cls-1" d="M133.48,64.54a5.67,5.67,0,0,1-1.24,5.1,6.69,6.69,0,0,1-10.22,0,5.67,5.67,0,0,1-1.24-5.1,1.42,1.42,0,0,1,1.76-1,1.4,1.4,0,0,1,.87.72l.12.25a4.75,4.75,0,0,0,1.68,1.92,3.72,3.72,0,0,0,1.92.55,3.77,3.77,0,0,0,1.92-.55,4.67,4.67,0,0,0,1.67-1.92l.12-.25a1.42,1.42,0,0,1,2.64.25Z"/><path class="cls-1" d="M157.52,64.54a5.65,5.65,0,0,1-1.25,5.1,6.68,6.68,0,0,1-10.21,0,5.67,5.67,0,0,1-1.24-5.1,1.42,1.42,0,0,1,1.76-1,1.4,1.4,0,0,1,.87.72l.12.25a4.81,4.81,0,0,0,1.67,1.92,3.64,3.64,0,0,0,3.85,0,4.67,4.67,0,0,0,1.67-1.92l.12-.25a1.42,1.42,0,0,1,2.64.25Z"/><path class="cls-1" d="M144.15,94.29A5.27,5.27,0,0,1,143,99.05a6.24,6.24,0,0,1-9.53,0,5.27,5.27,0,0,1-1.14-4.76,1,1,0,0,1,1.82-.11l.05.11a4.23,4.23,0,0,0,8.07,0l.05-.1a1,1,0,0,1,1.82.1Z"/><path class="cls-1" d="M144.67,82.35a6,6,0,0,1-1.58,4.84,6.58,6.58,0,0,1-9.69,0,6.07,6.07,0,0,1-1.59-4.84,1.47,1.47,0,0,1,2.89-.15l0,.15a3.57,3.57,0,0,0,7,0l0-.15a1.45,1.45,0,0,1,1.76-1.09A1.47,1.47,0,0,1,144.67,82.35Z"/><path class="cls-1" d="M140.24,89.32l-.63,9.94a1.37,1.37,0,0,1-1.45,1.29,1.4,1.4,0,0,1-1.29-1.29l-.63-9.94a2,2,0,0,1,4-.26A1.13,1.13,0,0,1,140.24,89.32Z"/><path class="cls-1" d="M170.49,15a66.69,66.69,0,0,0-26.56-7.75,67.69,67.69,0,0,0-13.87.36,70.25,70.25,0,0,0-13.5,3.16q-3.28,1.13-6.44,2.57c-1,.5-2.09,1-3.1,1.54a8.19,8.19,0,0,0-.74.41l-.59.4-.49.5a4.86,4.86,0,0,0-.42.59,4.79,4.79,0,0,0,.34,5.39,3.62,3.62,0,0,0,2.12,1.18,5.33,5.33,0,0,0,3.39-.52,68.09,68.09,0,0,1,12.08-4.51,60.4,60.4,0,0,1,14.77-2.17,58.14,58.14,0,0,1,28.63,7.24.5.5,0,0,1,.2.68.49.49,0,0,1-.67.2,56.89,56.89,0,0,0-28.14-6.79,58.6,58.6,0,0,0-14.39,2.27,65.34,65.34,0,0,0-10.53,3.94,5.4,5.4,0,0,0-2.69,2.76,6.72,6.72,0,0,0-.33,1,4,4,0,0,0,.52,3.08,3.81,3.81,0,0,0,2.59,1.69,3,3,0,0,0,.79,0h.4l.39-.09A2.72,2.72,0,0,0,115,32a6.29,6.29,0,0,0,.89-.43,46.79,46.79,0,0,1,16.75-5.08,47.55,47.55,0,0,1,17.42,1.31,48.09,48.09,0,0,1,8.22,3c.66.31,1.31.64,2,1l1,.52.87.44a9.84,9.84,0,0,0,3.78.82,10.27,10.27,0,0,0,6.07-1.89,9.34,9.34,0,0,0,3.64-5.36A10,10,0,0,0,170.49,15Z"/><path class="cls-1" d="M48.51,73.59a14.43,14.43,0,0,0,.26-19.25,5.38,5.38,0,0,1-.72-5.7,11.07,11.07,0,1,0-21.24-4.38,10.91,10.91,0,0,0,1,4.54,5.38,5.38,0,0,1-.9,5.67,14.43,14.43,0,0,0,.37,19.12A5.53,5.53,0,0,1,28,79.87a11.06,11.06,0,0,0,1.8,12.52A5.56,5.56,0,0,1,31.33,97a6.89,6.89,0,0,0,0,2.22,6.61,6.61,0,0,0,1,2.49c2,3.06,5.93,5.25,5.56,10.65h0c-.15-5.11,3-7.31,5.25-10.24a6.59,6.59,0,0,0,1.39-4.05,7,7,0,0,0-.05-.8,5.75,5.75,0,0,1,1.4-4.77,11.06,11.06,0,0,0,1.9-12.63A5.55,5.55,0,0,1,48.51,73.59Z"/><path class="cls-1" d="M90.81,0h0a11.32,11.32,0,0,0,9.71,9.71h0a11.31,11.31,0,0,0-9.71,9.7h0a11.29,11.29,0,0,0-9.7-9.7h0A11.3,11.3,0,0,0,90.81,0Z"/><path class="cls-1" d="M202.26,19.32h0A11.31,11.31,0,0,0,212,29h0a11.3,11.3,0,0,0-9.71,9.71h0A11.29,11.29,0,0,0,192.55,29h0a11.3,11.3,0,0,0,9.71-9.71Z"/><path class="cls-1" d="M9.71,83.8h0a11.3,11.3,0,0,0,9.7,9.71h0a11.29,11.29,0,0,0-9.7,9.71h0A11.3,11.3,0,0,0,0,93.51H0A11.31,11.31,0,0,0,9.71,83.8Z"/><path class="cls-1" d="M241,66.1a1.65,1.65,0,0,1-1.8,1.73h-7.92c-1.08,0-2.09,0-2.09-2.09,0-4,1.37-8.49,5.62-8.49C240.36,57.25,241,64.88,241,66.1Zm-6.55-17.57c-1.59,0-1.87-3.38-1.87-4.39s-.51-7.85,6.62-7.85c7.78,0,5.91,9.22,5.76,10.59s-1.94,1.65-3.45,1.65Zm15.7,9.29c.72,0,1.51.15,1,1.73S250,70.21,250,73.52s-.36,7.85-3.89,11.38-6.91,4.39-7.41,4.39a3.34,3.34,0,0,1-2.38-.51c-.72-.72-.57-4-.57-5s.14-1.22,1.22-1.65a14.64,14.64,0,0,0,5.69-4.68c2.3-3,1.65-11.31,1.65-15s.94-4.61,1.73-4.61Zm6.62,25.35c2.67,0,4.25,2.45,5.69,3.89s-.22,2.52-1.58,2.52-2.81.86-4.83.86-3.1-.79-3.1-2.59C253,85.11,254.12,83.17,256.78,83.17ZM288.1,70c6.48.79,11.38,4.54,11.38,11.09,0,5.11-5,9.58-7.13,11.23,0,0-2.45,2.67-3,3.24-.58.72-1.95.36-2.38,0,0,0-8.28-5.76-8.86-6.26a1.13,1.13,0,0,1,.15-1.73s.65-.65,1.44-1.58a2.1,2.1,0,0,1,2.81-.08l3.45,2.6c1.59-1.08,5.62-4.18,5.19-7.56-.51-4.18-4-7.57-11.16-7.57s-9.87,2.24-9.87,2.74-1.22,1.15-2.16.15c-4,4-11.09,5.4-12.1,5.4a1.13,1.13,0,0,1-.86-2,2.38,2.38,0,0,0-.14-2.73c-.58-.58-.72-2.24.28-2.24A15.32,15.32,0,0,0,262.4,73c1.51-.73,2.88-2.89,3.38-5-3.89-.15-6.69-.29-6.69-.29-.44.43-1.81,1.29-2.45.43s-2.31-4-1.8-4.9,1.87-.64,3-.64H293c2.23,0,2.95.43,2.95,2.37v2.52c0,.79-.57,1.66-3.17,1.66-1.29,0-11.81-.51-20.73-.87a14,14,0,0,1-1.23,3.53C276.22,69.27,282.42,69.34,288.1,70ZM258.8,54.44c-2.24,0-2.09-2.88-1.73-6,.36-5,.21-20,15.55-20s17.86,12.53,17.86,17.28c0,8.93-1.44,10.08-2.81,10.08a1.2,1.2,0,0,1-1.37-1.29Zm9.93,27.14c3.82.72,3.39,5.33,1.73,6.34-1.37.79-5,1.37-6.12-2.16S265.85,81,268.73,81.58ZM269,45.72v2.16l7.06-.14a3.27,3.27,0,0,0,2.66-1.37C279.39,45.58,276.08,45.72,269,45.72Zm4.82-10.08c-2.73,0-4.39,2.09-4.39,3.6h8.43A4.36,4.36,0,0,0,273.77,35.64ZM280,80.86a3.46,3.46,0,0,1-3.39,3.39c-2.37,0-3.31-1.44-3.31-3s.36-3.6,3.46-3.6A3,3,0,0,1,280,80.86Zm7.78,2.38c-2.16.94-3.6,0-4.61-1.58a3.28,3.28,0,0,1,3-5c2.23,0,3,1.65,3.75,3S290,82.52,287.82,83.24Z"/><path class="cls-1" d="M316,47.67c-2.8,3.74-6.19,6.12-14.54,6.12l-.36-5c7.2-1.51,10.08-8.28,10.44-13.68l7.85-.72C319.35,38.16,318.34,44,316,47.67Zm42.63,35.64c.51-4.46,4.61-8.57,12.6-7.27L369.75,96c-4.53,0-17.14,1.08-24.7-5.33s-11.16-15.2-11.16-26.72h-.79C330,80.58,308.91,91.3,307.76,91.59s-3,.87-2.31-.07l13.47-27.58H313.3V52h42.12V63.94H345.27C345.27,76.33,351,82.38,358.59,83.31ZM329,49.9V43.78h-6.56V39.32H329c0-2.81.28-10.08,5.18-10.08,2.88,0,5.33,1.72,5.33,10.08H347v4.46h-7.49V49.9Z"/><path class="cls-1" d="M381.84,70.93c-.64.57-1.36.79-1.94.21a36.92,36.92,0,0,1-5.33-12c-1.29-5.62-1-17.43-.94-18.94s.87-1.37,1.44-1.37l10.73.29c1,0,1.44.22,1.44,1.51s-.28,12.53,4.32,17.21c.65.58,2.16.15,1.59.72Zm61.43,17.49c.28,2.09-1.59,4.69-6,4.69H383.28c-2.66,0-4.89-1-4.89-3.75,0-3,1.73-4.46,4.53-4.46h19.73L404,67.54c-1.8.07-3,.15-3.45.15-2.24,0-3.1-1.23-3.1-2.52v-5a.88.88,0,0,1,1-1c.29,0,2.88,0,6.19-.07l.22-3.68c-5.33.15-9.36.22-9.65.22-.94,0-1.16-.5-1.16-1.08V51.7c0-.86.65-1,1.23-1,0,0,4.32-.14,10-.36l1.51-18.79a7.86,7.86,0,0,1,7.56-.29,10.08,10.08,0,0,1,5.55,9.43l-.65,9.22c6-.14,10.94-.36,11.3-.36,1.08,0,.94.72.94,1v3c.79,0,.86.36.86.79s-.57.65-1,.65c0,0-5.61.07-12.45.22l-.29,3.74c3.31-.14,5.47-.21,5.47-.21,1.08,0,1.51.21,1.44,1.22,0,0-.5,4.61-.65,5.47s-.64,1-1.87,1.15c0,0-2.09.08-4.9.36l-1.22,18h20.31C440.67,84.9,443.05,86.12,443.27,88.42Z"/><path class="cls-1" d="M208.1,82.89a95.2,95.2,0,0,1-13.7-26.24,59.61,59.61,0,0,0-19-26.81,12.36,12.36,0,0,1-2.5,2.95,11.56,11.56,0,0,1-3.26,1.9,11.86,11.86,0,0,1-3.73.71,11.52,11.52,0,0,1-4.56-.9,11.28,11.28,0,0,1-1.05-.5l-.93-.47c-.63-.31-1.26-.61-1.9-.9A46,46,0,0,0,149.52,30,46.63,46.63,0,0,0,133,29a47.47,47.47,0,0,0-15.82,4.87c-.3.15-.59.31-1,.49a4.84,4.84,0,0,1-1.25.42l-.65.14c-.22,0-.45,0-.67,0a5,5,0,0,1-1.33-.1A6.3,6.3,0,0,1,107.87,32a5.69,5.69,0,0,1-.4-5.14A6.7,6.7,0,0,1,108.6,25a5.61,5.61,0,0,1-.59.06A59.7,59.7,0,0,0,81.66,57.91,86.3,86.3,0,0,1,68.21,83.12a87,87,0,0,0-17.63,52.57c0,38.88,70.45,53.11,122,42.74A156.38,156.38,0,0,1,152.72,175c1.46-.23,2.91-.51,4.35-.85a165.25,165.25,0,0,0,18.9,3.58c28.18-6.36,49.94-20.32,49.94-41.87A87.21,87.21,0,0,0,208.1,82.89ZM99.27,59.19A22,22,0,0,1,128.86,40.7a26.8,26.8,0,0,0,18.76,0,22,22,0,0,1,29.6,18.49A21.93,21.93,0,0,1,169,78.54c-6.37,5.09-10.32,9.62-10.32,17.77v.83a20.52,20.52,0,0,1-22.49,20.38c-10.57-1-18.46-10.23-18.46-20.85v-.36c0-8.15-4-12.68-10.33-17.77A22,22,0,0,1,99.27,59.19Z"/></g></g></svg>