<svg xmlns="http://www.w3.org/2000/svg" viewBox="0 0 65.01 29.64"><defs><style>.cls-1{fill:#231815;}.cls-2{fill:#e4007f;}.cls-3{fill:#fff;}</style></defs><title>資產 11</title><g id="圖層_2" data-name="圖層 2"><g id="圖層_1-2" data-name="圖層 1"><circle class="cls-1" cx="13.29" cy="16.29" r="11.38"/><circle class="cls-1" cx="49.1" cy="11.38" r="11.38"/><path class="cls-2" d="M57,19.61a7,7,0,0,0,4.89-.15"/><path class="cls-1" d="M57.26,18.93a5.26,5.26,0,0,0,1,.37,7.13,7.13,0,0,0,1.14.18,6.19,6.19,0,0,0,2.33-.28h0a.28.28,0,0,1,.21.51,6.71,6.71,0,0,1-2.53.77,7.59,7.59,0,0,1-1.35,0,7.32,7.32,0,0,1-1.39-.23.73.73,0,0,1-.5-.9.72.72,0,0,1,.9-.5l.13.05Z"/><path class="cls-2" d="M58.8,16.78a6.86,6.86,0,0,0,4.88-.15"/><path class="cls-1" d="M59.06,16.1a5.5,5.5,0,0,0,1,.37,6.29,6.29,0,0,0,1.14.18,5.79,5.79,0,0,0,2.33-.28h0a.27.27,0,0,1,.35.18.28.28,0,0,1-.13.33,6.71,6.71,0,0,1-2.53.77,7.61,7.61,0,0,1-1.35,0,6.6,6.6,0,0,1-1.39-.23.72.72,0,0,1-.5-.9.73.73,0,0,1,.9-.5l.12.05Z"/><path class="cls-2" d="M59.86,13.48a6.88,6.88,0,0,0,4.89-.15"/><path class="cls-1" d="M60.13,12.8a5.26,5.26,0,0,0,1,.37,7.13,7.13,0,0,0,1.14.18,5.82,5.82,0,0,0,2.33-.28h0a.28.28,0,0,1,.21.51,6.71,6.71,0,0,1-2.53.77,7.59,7.59,0,0,1-1.35,0,6.6,6.6,0,0,1-1.39-.23.73.73,0,0,1-.5-.9.72.72,0,0,1,.9-.5l.13.05Z"/><path class="cls-2" d="M10,27.27A6.87,6.87,0,0,1,5.6,29.36"/><path class="cls-1" d="M10.57,27.75a7.49,7.49,0,0,1-1.13.84,8.06,8.06,0,0,1-1.22.59,7.06,7.06,0,0,1-2.6.46.28.28,0,0,1,0-.55h0a6.21,6.21,0,0,0,2.2-.82,6.34,6.34,0,0,0,.93-.68,5.12,5.12,0,0,0,.76-.8h0a.73.73,0,0,1,1.17.86Z"/><path class="cls-2" d="M7.13,25.57a6.89,6.89,0,0,1-4.42,2.1"/><path class="cls-1" d="M7.67,26.05a6.12,6.12,0,0,1-1.13.84,8,8,0,0,1-1.21.59,6.71,6.71,0,0,1-2.6.46.28.28,0,0,1-.28-.28.27.27,0,0,1,.23-.27h0a6,6,0,0,0,2.2-.81,5.83,5.83,0,0,0,.94-.69,5,5,0,0,0,.75-.79h0a.72.72,0,0,1,1-.16.74.74,0,0,1,.16,1Z"/><path class="cls-2" d="M4.68,23.12A6.85,6.85,0,0,1,.26,25.21"/><path class="cls-1" d="M5.22,23.6a6.12,6.12,0,0,1-1.13.84A8,8,0,0,1,2.88,25a6.72,6.72,0,0,1-2.61.46A.28.28,0,0,1,0,25.21a.27.27,0,0,1,.23-.27h0a6,6,0,0,0,2.2-.81,7.1,7.1,0,0,0,.94-.69,4.64,4.64,0,0,0,.75-.8h0a.73.73,0,1,1,1.17.86Z"/><path class="cls-3" d="M42.24,4.16h0A11.28,11.28,0,0,0,56,4.16h0a11.33,11.33,0,0,0,0,13.73h0a11.28,11.28,0,0,0-13.72,0h0a11.33,11.33,0,0,0,0-13.73Z"/><path class="cls-3" d="M6.43,9.43h0a11.33,11.33,0,0,0,13.73,0h0a11.28,11.28,0,0,0,0,13.72h0a11.33,11.33,0,0,0-13.73,0h0a11.28,11.28,0,0,0,0-13.72Z"/></g></g></svg>