<svg xmlns="http://www.w3.org/2000/svg" viewBox="0 0 365.86 290.75"><defs><style>.cls-1{fill:#a75d2a;}.cls-2{fill:#f29b8f;}.cls-3{fill:#965520;}.cls-4{fill:#f29b8f;}.cls-5{fill:#f29b8f;}.cls-6{fill:#851d20;}.cls-7{fill:#9fa0a0;}.cls-8{fill:#fff;}.cls-9{fill:#d6894b;}.cls-10{fill:fff;}</style><linearGradient id="grad" x1="0%" y1="0%" x2="0%" y2="100%">
      <stop offset="0%" style="stop-color:#d6894b;stop-opacity:1" />
      <stop offset="100%" style="stop-color:#925e34;stop-opacity:1" />
    </linearGradient></defs><title>資產 2</title><g id="圖層_2" data-name="圖層 2"><g id="圖層_1-2" data-name="圖層 1"><path class="cls-1" d="M286,235.85v-4a2.08,2.08,0,0,1-.48-1.44c-3.82-11.31-7.09-22.79-14.07-32.84a119.87,119.87,0,0,0-16.31-19.35c-13.47-12.66-25.75-26.44-34.39-43.07-4.09-7.89-4.11-16.73-6.2-25.09a219.34,219.34,0,0,1-6.08-32.33C203.39,25.41,150,25.87,150,25.87S94.22,17.68,73.25,70.66c-4,10.2-5.58,21.23-8.31,31.85-4.62,18-14.72,32.84-25.71,47.43C29.15,163.33,17.38,175.45,9.05,190.2c-4.22,7.49-6.66,15.53-9,23.65v4C39.43,294.72,259,270.07,286,235.85Z"/><path class="cls-2" d="M205.76,103.46c-1.46-4.2-1-9,.31-13.33,2.58-8.66,4.36-18.16,2.27-27.12-2-8.73-9.06-19.69-19.29-18.08-8,1.25-12,7.76-19.1,10.38-5.53,2-11.7,1.34-17.17-.5-7.54-2.53-14.74-5.59-23-5.67C93,48.8,99.48,84.39,99.51,84.51c2.14,11.25,21.61,21.71,34.3,30.25,7.36,5,13.76,10.43,17.73,18.33,5.09,10.12,13.81,20.36,25,23.77,8.86,2.71,17.66-.53,24.16-6.57C209.26,142.32,210.83,118.06,205.76,103.46Z"/><path class="cls-9" d="M229.8,209.17c2.7-3.15,8.61-10.95,8.61-10.95s14.43-6.2,21.92-8.61l24.25-3.18,24.94,1.27,30.21,5.41,18.48,8.64,7.65,9v9.63l-4.57,48.73-14.68,15.4-35.11,6.25-30.83-1.41S256.32,283,246.91,279l-12.1-17.15S229.8,215.23,229.8,209.17Z"/><polygon class="cls-10" fill="url(#grad)" points="243.76 200.63 236.02 209.51 237.25 213.51 256.54 226.46 294.63 231.15 327.76 231.15 353.33 225.15 361.93 213.41 353.53 204.57 339.24 198.72 310.79 192.2 286.75 190.63 263.4 193.74 243.76 200.63"/><path class="cls-3" d="M53.53,181.24a32.57,32.57,0,0,1,17.27,8.19c5.21,4.89,9.27,10.84,13.63,16.49,6.5,8.44,13.81,16.37,22.5,22.52,5,3.52,10.49,6.47,16.47,7.69,8.25,1.69,16.84,0,24.82-2.73,23.18-7.88,42.58-26,66.26-32.12,3.58-.92,5.28-1.94,6.4,1.56.59,1.86-.42,4.86-.37,6.82A21.85,21.85,0,0,0,223.3,220c.82,1.45,1.86,3,1.55,4.64a6.18,6.18,0,0,1-2.22,3.12c-21.48,19.57-41.67,44.86-69.95,54.76-15.82,5.54-33.09,5.64-49.68,3.27a165.1,165.1,0,0,1-59.47-20.52C28.35,256.41,2.06,239.85.09,220.43c-.49-4.76,1.16-9.51,3.42-13.74a49.33,49.33,0,0,1,23.93-22A48.12,48.12,0,0,1,53.53,181.24Z"/><path class="cls-4" d="M217.72,200.46c-.73,1.72-4.61,18.13,6.82,25.34l.08-.11h0c4.35-2.46,5.56-.82,12.23-5.15,6.26-4.07,14.67,3.56,19.69,5.93C258.53,211.9,247,191.16,217.72,200.46Z"/><path class="cls-5" d="M293.22,173.81a25.28,25.28,0,0,0-8.16-.11c-11.69,2.28-12.57,26.56-6.95,27.07,3.06.27,2.83-5.49,3.62-7.8.65,1.62-.22,8.57,3.11,8.95,3.57.4,3.73-4.91,5-8.53.63,3.33.7,8.93,3.62,8.93s2.47-5.42,3.2-7.68c.28,2,1,6.32,3.21,6.13,4.73-.42,3.7-14.62,3.29-17.37C302.25,177.49,299.09,174.73,293.22,173.81Z"/><path class="cls-6" d="M148.79,74.49s1.86-.93,1.56,1.44c-.13,1-2.6,5.87-6.52,7-3.54,1.07-9.71.47-10.64-1.37-.37-.72-.05-2.15,2.3-1.76a18.53,18.53,0,0,0,8-1C145.72,78,148.79,74.49,148.79,74.49Z"/><path class="cls-6" d="M184.85,78.21a9.45,9.45,0,0,0,7.5,3c1.72,0,4.32-2,4.08-3.72a1.36,1.36,0,0,0-.22-.62,1.71,1.71,0,0,0-1.64-.61c-1.08.19-3.8,1.45-5.4.13-4.51-3.72-4-7.3-5.75-7.3S180.35,72.6,184.85,78.21Z"/><path class="cls-6" d="M184.5,133.48c6-.44,7-7.14,6.6-11a71,71,0,0,0-7.31-3.06c-.86,0-6.22,4-7.87,5.17A8.08,8.08,0,0,0,184.5,133.48Z"/><path class="cls-6" d="M171.05,101.19a3.16,3.16,0,0,0-1.69-.72c-.62,0-3.1,2.1,3.93,5.37a22.24,22.24,0,0,0,7.65,1.39c1.16,1.06,1.25,7.22.51,10.74-1.44,2.41-3.76,5.35-8.3,5.84-3.32.37-8.79-1.4-10.86-4-.39,2.3,9,13.78,22.11.71.26,2.7,14.46,8.77,14.46-5.83-1.14,1.91-5,9.12-13.55,3,.38-1.84-.09-8.81-1.43-10.83,3.13-1.3,8-5.8,6.46-7.83-.91-.37-1.49.28-2.22.92s-3.24,5-5.87,5.28C174.74,106,172.47,102.28,171.05,101.19Z"/><path class="cls-8" d="M72.29,30.51c-.59-12,12.85-18.21,21.17-21.66,18.93-7.85,38.61-11,59-7.33,15.23,2.73,33.66,14.51,33.66,27,0,2.33,0,9.85-6.59,9.15-7.59-.8-15.15-2.2-22.76-2.56-17-.81-33.61.25-47.31,12.54-4.16,3.73-9.38,5.88-15.18,5a76,76,0,0,1-12.57-2.87c-7.16-2.37-9.26-7.28-7.17-14.49A8.77,8.77,0,0,1,72.29,30.51Z"/><path class="cls-7" d="M72.29,30.51a8.71,8.71,0,0,0,3.88,4.67A14.74,14.74,0,0,0,81.9,37a28.13,28.13,0,0,0,3.08.12c1,0,2.08,0,3.09-.06a22.62,22.62,0,0,0,3-.38A22.91,22.91,0,0,0,94,35.94a47.27,47.27,0,0,0,11-5.33c3.61-2.2,7.22-4.54,11-6.68a55.57,55.57,0,0,1,6-2.88c2-.82,4.1-1.54,6.19-2.18a59.19,59.19,0,0,1,12.92-2.25,46.94,46.94,0,0,1,13,1.11,34.17,34.17,0,0,1,11.87,5h0a38.84,38.84,0,0,0-12.13-3.57,49.5,49.5,0,0,0-12.52-.05A58.18,58.18,0,0,0,129.14,22c-2,.68-3.92,1.42-5.82,2.27a48.81,48.81,0,0,0-5.47,2.91c-3.63,2.11-7.17,4.46-10.83,6.75a42.09,42.09,0,0,1-12.15,5.38,23.77,23.77,0,0,1-6.76.68c-1.12,0-2.22-.13-3.31-.26s-2.16-.3-3.29-.57a14.85,14.85,0,0,1-6.09-2.89,9.43,9.43,0,0,1-2.16-2.6A8.22,8.22,0,0,1,72.29,30.51Z"/><path class="cls-7" d="M184.26,36c-3.38,1.68-13.93-4-18.73-5-3.86-.79-30.32-4.78-46.41,4.05-7.24,4-13.61,9.74-20.14,12.49-4.53,1.91-25.59-1.66-25-9.75-.94,5.86,1.44,9.92,7.74,12a76,76,0,0,0,12.57,2.87c5.8.86,11-1.29,15.18-5,13.7-12.29,30.3-13.35,47.31-12.54,7.61.36,15.17,1.76,22.76,2.56C183.2,38,184.72,35.72,184.26,36Z"/></g></g></svg>