<svg xmlns="http://www.w3.org/2000/svg" viewBox="0 0 90.88 105.94"><defs><style>.cls-1{fill:#fff;}.cls-2{fill:#851d20;}</style></defs><title>資產 3</title><g id="圖層_2" data-name="圖層 2"><g id="圖層_1-2" data-name="圖層 1"><path class="cls-1" d="M52.39,0C61.81.21,71.76,1.81,79,7.87a3.94,3.94,0,0,1,1.22,1.47A4.36,4.36,0,0,1,80.36,11l-.15,6A20.93,20.93,0,0,1,84,11.64c5.62,5.65,7,14.26,6.75,22.23S89,49.81,90.08,57.71a69.88,69.88,0,0,1,.62,7c-1.65,1.25-3.12,1-5.26,1.57l5,.87a67.24,67.24,0,0,1-.85,21.37c-.88,4.35-2.63,9.11-6.7,10.86A53.12,53.12,0,0,1,78.73,92c.73,1.87,1.93,7.29,2.89,8.56-2.26,4.14-22,7.93-29.57,3.3A34.06,34.06,0,0,1,54,94.29,46.42,46.42,0,0,1,50.25,103c-7.57-3.13-16.34-15.65-19.12-23.35,2.05-2,3.49-3.18,4.31-5.17-1.82.25-6.25,2-6.76,1.77C28,76,20.18,65,16.47,61.05s-8-7.93-11.23-12.48S-.38,38.53.05,32.94C.37,28.73,2.22,24.81,4.11,21A3.1,3.1,0,0,1,5,19.8a3.12,3.12,0,0,1,1.69-.38,29.79,29.79,0,0,1,8.88,1.24c-1.14-2-4.16-5.18-5.73-6.88-.08-.16,7.47-6,8.22-6.46A51.58,51.58,0,0,1,28.79,2.85,77.69,77.69,0,0,1,52.39,0Z"/><path class="cls-2" d="M52.5,51a3.07,3.07,0,0,0-1.69-.71c-.62,0-3.1,2.09,3.93,5.36A22.25,22.25,0,0,0,62.39,57c1.15,1.06,1.24,7.22.5,10.74-1.44,2.4-3.75,5.35-8.3,5.84-3.31.36-8.79-1.4-10.86-4-.39,2.3,9,13.78,22.11.71.26,2.7,14.47,8.77,14.47-5.83-1.15,1.91-5,9.12-13.55,3,.37-1.84-.1-8.81-1.44-10.83,3.13-1.3,8-5.8,6.46-7.83-.91-.37-1.48.28-2.22.92s-3.23,5-5.87,5.28C56.19,55.77,53.91,52.05,52.5,51Z"/></g></g></svg>