<svg xmlns="http://www.w3.org/2000/svg" viewBox="0 0 65.01 30.88"><defs><style>.cls-1{fill:#e4007f;}.cls-2{fill:#231815;}.cls-3{fill:#75a339;}.cls-4{fill:#fdfce6;stroke:#fff;stroke-miterlimit:10;}.cls-5{fill:#f2f19d;}.cls-6{fill:#fff;}</style></defs><title>資產 12</title><g id="圖層_2" data-name="圖層 2"><g id="圖層_1-2" data-name="圖層 1"><path class="cls-1" d="M57,20.85a6.88,6.88,0,0,0,4.89-.15"/><path class="cls-2" d="M57.26,20.18a5.27,5.27,0,0,0,1,.36,5.42,5.42,0,0,0,1.14.18,5.82,5.82,0,0,0,2.33-.28h0a.29.29,0,0,1,.35.18A.28.28,0,0,1,62,21a6.91,6.91,0,0,1-2.53.78,8.68,8.68,0,0,1-1.35,0,6,6,0,0,1-1.39-.23.73.73,0,1,1,.4-1.4l.13.05Z"/><path class="cls-1" d="M58.8,18a6.86,6.86,0,0,0,4.88-.15"/><path class="cls-2" d="M59.06,17.35a5.5,5.5,0,0,0,1,.36,6.31,6.31,0,0,0,1.14.19,6.17,6.17,0,0,0,2.33-.28h0a.29.29,0,0,1,.35.18.28.28,0,0,1-.13.33,6.91,6.91,0,0,1-2.53.78,6.77,6.77,0,0,1-1.35,0,6,6,0,0,1-1.39-.23.72.72,0,0,1-.5-.9.73.73,0,0,1,.9-.5l.12.05Z"/><path class="cls-1" d="M59.86,14.72a6.88,6.88,0,0,0,4.89-.15"/><path class="cls-2" d="M60.13,14.05a5.27,5.27,0,0,0,1,.36,5.42,5.42,0,0,0,1.14.18,6,6,0,0,0,2.33-.27h0a.29.29,0,0,1,.35.18.28.28,0,0,1-.14.33,6.91,6.91,0,0,1-2.53.78,6.76,6.76,0,0,1-1.35,0,6,6,0,0,1-1.39-.23A.73.73,0,1,1,60,14l.13,0Z"/><path class="cls-1" d="M10,28.51a6.86,6.86,0,0,1-4.42,2.1"/><path class="cls-2" d="M10.57,29a6.87,6.87,0,0,1-1.13.84,8.06,8.06,0,0,1-1.22.59,6.67,6.67,0,0,1-2.6.46.28.28,0,0,1,0-.55h0a6,6,0,0,0,2.2-.81,5.75,5.75,0,0,0,.93-.69A5.08,5.08,0,0,0,9.48,28h0a.71.71,0,0,1,1-.16.72.72,0,0,1,.16,1Z"/><path class="cls-1" d="M7.13,26.82a6.91,6.91,0,0,1-4.42,2.09"/><path class="cls-2" d="M7.67,27.29a6.12,6.12,0,0,1-1.13.84,7.12,7.12,0,0,1-1.21.59,6.91,6.91,0,0,1-2.6.47.28.28,0,0,1,0-.56h0a6,6,0,0,0,2.2-.81,6.44,6.44,0,0,0,.94-.68,5.5,5.5,0,0,0,.75-.8h0a.73.73,0,0,1,1.18.86A.47.47,0,0,1,7.67,27.29Z"/><path class="cls-1" d="M4.68,24.36a6.89,6.89,0,0,1-4.42,2.1"/><path class="cls-2" d="M5.22,24.84a6.12,6.12,0,0,1-1.13.84,8,8,0,0,1-1.21.59,6.72,6.72,0,0,1-2.61.46A.27.27,0,0,1,0,26.45a.28.28,0,0,1,.23-.27h0a6,6,0,0,0,2.2-.81,6.31,6.31,0,0,0,.94-.69,5,5,0,0,0,.75-.79h0a.73.73,0,1,1,1.17.86A.43.43,0,0,1,5.22,24.84Z"/><path class="cls-3" d="M61.36,12.27A12.27,12.27,0,1,1,49.1,0,12.26,12.26,0,0,1,61.36,12.27Z"/><path class="cls-4" d="M60.24,12.27A11.14,11.14,0,1,1,49.1,1.12,11.14,11.14,0,0,1,60.24,12.27Z"/><path class="cls-5" d="M59,12.37A9.92,9.92,0,1,1,49.1,2.45,9.91,9.91,0,0,1,59,12.37Z"/><path class="cls-6" d="M56.71,11.7l-6.85.38L55,7.56a.77.77,0,1,0-1.09-1.09l-4.33,4.75.19-6.46a.77.77,0,0,0-1.54,0l.48,6.65L44.09,6.47A.77.77,0,0,0,43,7.56L48.13,12l-6.85-.29a.77.77,0,1,0,0,1.54L48,12.66l-5,4.72a.77.77,0,0,0,1.09,1.09l4.52-5.33-.38,7a.77.77,0,1,0,1.54,0l-.29-6.84,4.43,5.13A.77.77,0,0,0,55,17.38l-5-4.52,6.75.38a.77.77,0,0,0,0-1.54Z"/><path class="cls-3" d="M25.56,17.87A12.27,12.27,0,1,1,13.29,5.6,12.26,12.26,0,0,1,25.56,17.87Z"/><path class="cls-4" d="M24.44,17.87A11.15,11.15,0,1,1,13.29,6.73,11.15,11.15,0,0,1,24.44,17.87Z"/><path class="cls-5" d="M23.21,18a9.92,9.92,0,1,1-9.92-9.91A9.92,9.92,0,0,1,23.21,18Z"/><path class="cls-6" d="M20.9,17.3l-6.84.39,5.13-4.52a.77.77,0,0,0,0-1.09.76.76,0,0,0-1.09,0l-4.33,4.74L14,10.36a.77.77,0,1,0-1.54,0L12.9,17,8.28,12.08a.76.76,0,0,0-1.09,0,.77.77,0,0,0,0,1.09l5.13,4.42L5.48,17.3a.78.78,0,0,0,0,1.55l6.75-.58L7.19,23a.77.77,0,0,0,1.09,1.09l4.53-5.32-.39,7a.77.77,0,0,0,1.54,0l-.29-6.85,4.43,5.13A.77.77,0,0,0,19.19,23l-5-4.52,6.74.39a.78.78,0,1,0,0-1.55Z"/></g></g></svg>