<svg xmlns="http://www.w3.org/2000/svg" viewBox="0 0 243.87 210.16"><defs><style>.cls-1{fill:#c8ab84;}</style></defs><title>資產 5</title><g id="圖層_2" data-name="圖層 2"><g id="圖層_1-2" data-name="圖層 1"><path class="cls-1" d="M55.4,20.89a9.23,9.23,0,0,0-1-4.13,9.28,9.28,0,0,1-.63-6.59A8.06,8.06,0,1,0,38,8.06a7.89,7.89,0,0,0,.35,2.34,8.68,8.68,0,0,1-.7,6.37,9.34,9.34,0,0,0,1.92,10.87,23.26,23.26,0,0,1,5.14,7L46,37.52l1.34-2.92a23.29,23.29,0,0,1,5.15-7A9.35,9.35,0,0,0,55.4,20.89Z"/><path class="cls-1" d="M82.9,93a5.67,5.67,0,0,1-1.24,5.1,6.69,6.69,0,0,1-10.22,0A5.67,5.67,0,0,1,70.2,93,1.42,1.42,0,0,1,72,92a1.4,1.4,0,0,1,.87.72L73,93a4.75,4.75,0,0,0,1.68,1.92,3.72,3.72,0,0,0,1.92.55,3.77,3.77,0,0,0,1.92-.55A4.67,4.67,0,0,0,80.14,93l.13-.25a1.41,1.41,0,0,1,1.9-.63A1.44,1.44,0,0,1,82.9,93Z"/><path class="cls-1" d="M106.94,93a5.67,5.67,0,0,1-1.24,5.1,6.69,6.69,0,0,1-10.22,0A5.67,5.67,0,0,1,94.24,93,1.42,1.42,0,0,1,96,92a1.4,1.4,0,0,1,.87.72L97,93a4.75,4.75,0,0,0,1.68,1.92,3.72,3.72,0,0,0,1.92.55,3.77,3.77,0,0,0,1.92-.55A4.67,4.67,0,0,0,104.18,93l.12-.25a1.42,1.42,0,0,1,2.64.25Z"/><path class="cls-1" d="M93.57,122.74a5.27,5.27,0,0,1-1.14,4.76,6.24,6.24,0,0,1-9.53,0,5.27,5.27,0,0,1-1.14-4.76,1,1,0,0,1,1.82-.11l0,.11a4.23,4.23,0,0,0,8.07,0l0-.1a1,1,0,0,1,1.27-.52A1,1,0,0,1,93.57,122.74Z"/><path class="cls-1" d="M94.46,110.79A6.37,6.37,0,0,1,92.84,116a7,7,0,0,1-10.35,0,6.3,6.3,0,0,1-1.62-5.18,1.83,1.83,0,0,1,3.54-.3l.11.3a3.8,3.8,0,0,0,1.29,1.86,3.09,3.09,0,0,0,3.71,0,3.8,3.8,0,0,0,1.29-1.86l.11-.3a1.83,1.83,0,0,1,3.54.3Z"/><path class="cls-1" d="M89.66,117.77,89,127.71a1.38,1.38,0,0,1-2.75,0l-.63-9.94a2,2,0,0,1,4-.26A1.13,1.13,0,0,1,89.66,117.77Z"/><path class="cls-1" d="M157.52,111.34a95.2,95.2,0,0,1-13.7-26.24,59.61,59.61,0,0,0-19-26.81,12.36,12.36,0,0,1-2.5,3,11.56,11.56,0,0,1-3.26,1.9,11.85,11.85,0,0,1-3.73.7,11.6,11.6,0,0,1-5.61-1.39l-.93-.47c-.63-.32-1.26-.61-1.9-.9a45.72,45.72,0,0,0-7.91-2.67,46.63,46.63,0,0,0-16.56-.93,47.47,47.47,0,0,0-15.82,4.87c-.3.15-.59.31-1,.49a4.84,4.84,0,0,1-1.25.42l-.65.14c-.22,0-.45,0-.67,0a5,5,0,0,1-1.33-.1,6.3,6.3,0,0,1-4.33-2.91,5.69,5.69,0,0,1-.4-5.14A7,7,0,0,1,58,53.48a5.61,5.61,0,0,1-.59.06A59.7,59.7,0,0,0,31.08,86.36a86.3,86.3,0,0,1-13.45,25.21A87,87,0,0,0,0,164.14C0,203,70.45,217.25,122,206.88a151.68,151.68,0,0,1-24.12-4.55A109.75,109.75,0,0,1,70.81,191a81.58,81.58,0,0,1-22.43-19.36A69.8,69.8,0,0,1,40.31,159a61.11,61.11,0,0,1-3-7c-.43-1.19-.81-2.41-1.17-3.63-.16-.63-.34-1.24-.48-1.88s-.28-1.24-.41-2a2.73,2.73,0,0,1,5.39-.89.28.28,0,0,0,0,.09v.11c.06.42.15,1,.26,1.56s.24,1.11.37,1.66c.27,1.11.58,2.23.93,3.33a56,56,0,0,0,2.51,6.51A66.11,66.11,0,0,0,51.83,169a77.81,77.81,0,0,0,20.69,19.24,93.93,93.93,0,0,0,14.13,7.57,61,61,0,0,0,16.62-6.09,59.94,59.94,0,0,0,8-5.35,62.94,62.94,0,0,0,7-6.61,68.11,68.11,0,0,0,10.52-16,77.18,77.18,0,0,0,3.58-8.87c.51-1.51,1-3,1.37-4.57s.77-3.12,1-4.56v-.06a2.17,2.17,0,0,1,4.29.7s0,.06,0,.09c-.37,1.77-.81,3.33-1.31,5s-1,3.19-1.64,4.76a81.59,81.59,0,0,1-4.15,9.13,71.08,71.08,0,0,1-11.7,16.2,63.51,63.51,0,0,1-7.53,6.57,59.07,59.07,0,0,1-24.23,10.43c3.31,1.38,6.69,2.61,10.11,3.71a153.24,153.24,0,0,0,26.87,5.86c28.19-6.36,49.94-20.32,49.94-41.87A87.21,87.21,0,0,0,157.52,111.34ZM118.46,107a26.7,26.7,0,0,0-10.32,20.77v.83A20.52,20.52,0,0,1,85.65,149c-10.57-1-18.46-10.24-18.46-20.85v-.36A26.68,26.68,0,0,0,56.86,107,22,22,0,0,1,78.28,69.15a26.8,26.8,0,0,0,18.76,0,22,22,0,0,1,29.6,18.49A21.93,21.93,0,0,1,118.46,107Z"/><path class="cls-1" d="M119.91,43.48a66.69,66.69,0,0,0-26.56-7.75,67.69,67.69,0,0,0-13.87.36A70.25,70.25,0,0,0,66,39.25q-3.29,1.13-6.44,2.57c-1,.5-2.09,1-3.1,1.54-.24.14-.55.27-.74.41l-.59.39-.49.51a3.9,3.9,0,0,0-.41.59,4.79,4.79,0,0,0,.33,5.39,3.62,3.62,0,0,0,2.12,1.18,5.32,5.32,0,0,0,3.39-.52A68.09,68.09,0,0,1,72.13,46.8,60.4,60.4,0,0,1,86.9,44.63a58.2,58.2,0,0,1,28.64,7.24.5.5,0,0,1,.19.68.49.49,0,0,1-.67.2A56.89,56.89,0,0,0,86.92,46a58.6,58.6,0,0,0-14.39,2.27A65.34,65.34,0,0,0,62,52.17a5.36,5.36,0,0,0-2.69,2.76A5.71,5.71,0,0,0,59,56,4,4,0,0,0,59.5,59a3.77,3.77,0,0,0,2.59,1.68,2.61,2.61,0,0,0,.79.06h.4l.39-.09a3.07,3.07,0,0,0,.77-.27,7.64,7.64,0,0,0,.89-.43,46.79,46.79,0,0,1,16.75-5.08,48.07,48.07,0,0,1,25.64,4.3c.66.31,1.32.63,2,1l1,.52c.3.17.58.31.88.45a9.75,9.75,0,0,0,3.77.82,9.92,9.92,0,0,0,8.37-4.23,10.11,10.11,0,0,0,1.34-3A10,10,0,0,0,119.91,43.48Z"/><path class="cls-1" d="M145.85,46.75a1.55,1.55,0,0,1-1.69,1.63h-7.44c-1,0-2,0-2-2,0-3.72,1.28-8,5.27-8C145.24,38.44,145.85,45.61,145.85,46.75Zm-6.16-16.5c-1.48,0-1.76-3.17-1.76-4.12s-.47-7.37,6.23-7.37c7.3,0,5.54,8.65,5.41,9.94s-1.83,1.55-3.25,1.55ZM154.44,39c.67,0,1.42.13.94,1.62s-1.08,10-1.08,13.12-.34,7.37-3.65,10.69-6.49,4.12-7,4.12c-.74,0-1.69.07-2.23-.47s-.54-3.72-.54-4.74.14-1.15,1.15-1.55a13.7,13.7,0,0,0,5.34-4.4c2.17-2.84,1.56-10.62,1.56-14.06s.88-4.33,1.62-4.33Zm6.22,23.8c2.5,0,4,2.3,5.34,3.65s-.2,2.37-1.49,2.37-2.64.81-4.53.81-2.91-.74-2.91-2.43C157.07,64.61,158.16,62.78,160.66,62.78Zm29.42-12.37c6.08.74,10.68,4.26,10.68,10.41,0,4.8-4.73,9-6.69,10.55,0,0-2.3,2.5-2.85,3s-1.82.34-2.23,0c0,0-7.77-5.41-8.31-5.88a1,1,0,0,1,.13-1.62s.61-.61,1.35-1.49a2,2,0,0,1,2.64-.07l3.25,2.44c1.48-1,5.27-3.92,4.87-7.1-.48-3.93-3.79-7.1-10.49-7.1s-9.26,2.09-9.26,2.57-1.15,1.08-2,.13c-3.79,3.72-10.41,5.07-11.36,5.07a1.05,1.05,0,0,1-.81-1.82,2.24,2.24,0,0,0-.14-2.57c-.54-.54-.67-2.1.27-2.1a14.39,14.39,0,0,0,6.83-1.62c1.42-.68,2.71-2.71,3.18-4.67-3.65-.13-6.29-.27-6.29-.27-.4.41-1.69,1.22-2.3.41s-2.16-3.72-1.69-4.6,1.76-.61,2.77-.61h33.07c2.1,0,2.78.41,2.78,2.23v2.37c0,.74-.54,1.55-3,1.55-1.22,0-11.09-.47-19.48-.81a13.08,13.08,0,0,1-1.14,3.32C178.92,49.73,184.73,49.8,190.08,50.41ZM162.55,35.8c-2.1,0-2-2.71-1.62-5.68.34-4.67.2-18.8,14.61-18.8s16.77,11.77,16.77,16.23c0,8.39-1.36,9.47-2.64,9.47a1.13,1.13,0,0,1-1.29-1.22Zm9.33,25.49c3.59.68,3.18,5,1.63,6-1.29.74-4.67,1.28-5.75-2S169.18,60.75,171.88,61.29Zm.21-33.67v2l6.62-.14a3.09,3.09,0,0,0,2.51-1.28C181.89,27.48,178.78,27.62,172.09,27.62Zm4.53-9.47a3.93,3.93,0,0,0-4.13,3.38h7.91A4.08,4.08,0,0,0,176.62,18.15Zm5.88,42.47a3.25,3.25,0,0,1-3.18,3.18c-2.23,0-3.11-1.36-3.11-2.84s.34-3.38,3.25-3.38A2.85,2.85,0,0,1,182.5,60.62Zm7.3,2.23c-2,.88-3.38,0-4.32-1.49a3.08,3.08,0,0,1,2.84-4.66c2.09,0,2.84,1.55,3.51,2.84S191.83,62.17,189.8,62.85Z"/><path class="cls-1" d="M209.08,73.71c-1.77,2.36-3.9,3.86-9.16,3.86l-.23-3.18c4.54-1,6.35-5.22,6.58-8.62l4.94-.45A17.19,17.19,0,0,1,209.08,73.71Zm26.85,22.45c.32-2.81,2.91-5.4,7.94-4.58L243,104.14c-2.85,0-10.79.69-15.55-3.35s-7-9.57-7-16.83h-.5c-1.95,10.48-15.24,17.24-16,17.42s-1.86.54-1.45,0L210.94,84H207.4V76.43h26.54V84h-6.4C227.54,91.76,231.17,95.57,235.93,96.16Zm-18.64-21V71.26h-4.13V68.45h4.13c0-1.77.18-6.35,3.27-6.35,1.81,0,3.35,1.09,3.35,6.35h4.72v2.81h-4.72v3.86Z"/><path class="cls-1" d="M195.83,127.85c-.41.36-.86.5-1.22.13a23.26,23.26,0,0,1-3.36-7.57c-.82-3.54-.63-11-.59-11.93s.55-.86.91-.86l6.76.18c.63,0,.9.14.9,1s-.18,7.89,2.73,10.84c.4.37,1.36.09,1,.46S195.83,127.85,195.83,127.85Zm38.69,11c.18,1.31-1,2.95-3.81,2.95h-34c-1.68,0-3.08-.64-3.08-2.36a2.54,2.54,0,0,1,2.85-2.81h12.43l.86-10.93c-1.13,0-1.9.09-2.17.09-1.41,0-2-.77-2-1.59v-3.13c0-.36.14-.63.64-.63.18,0,1.81,0,3.9,0l.14-2.31c-3.36.09-5.9.13-6.08.13-.59,0-.73-.32-.73-.68v-1.81c0-.55.41-.64.77-.64l6.31-.22.95-11.84a4.91,4.91,0,0,1,4.76-.18,6.34,6.34,0,0,1,3.5,5.94l-.41,5.8c3.81-.09,6.89-.22,7.12-.22.68,0,.59.45.59.63v1.86c.5,0,.54.23.54.5s-.36.41-.63.41c0,0-3.54,0-7.85.13l-.18,2.36c2.09-.09,3.45-.13,3.45-.13.68,0,.95.13.9.77,0,0-.31,2.9-.4,3.45s-.41.63-1.18.72c0,0-1.32,0-3.09.23l-.77,11.34h12.79C232.89,136.65,234.39,137.42,234.52,138.87Z"/><path class="cls-1" d="M26.82,56a14.43,14.43,0,0,0,.26-19.25,5.38,5.38,0,0,1-.72-5.7A11.07,11.07,0,1,0,5.12,26.64a11,11,0,0,0,1,4.54,5.4,5.4,0,0,1-.9,5.67A14.42,14.42,0,0,0,5.57,56a5.55,5.55,0,0,1,.73,6.28,11.11,11.11,0,0,0-1.18,5,11,11,0,0,0,3,7.54,5.57,5.57,0,0,1,1.54,4.62,6.58,6.58,0,0,0,1,4.7c2,3.06,5.93,5.25,5.55,10.65h0c-.14-5.11,3-7.3,5.26-10.24a6.57,6.57,0,0,0,1.39-4,7.16,7.16,0,0,0-.05-.8,5.76,5.76,0,0,1,1.4-4.77,11.06,11.06,0,0,0,1.9-12.63A5.53,5.53,0,0,1,26.82,56Z"/></g></g></svg>