<svg xmlns="http://www.w3.org/2000/svg" viewBox="0 0 253.58 210.16"><defs><style>.cls-1{fill:#fff;}</style></defs><title>資產 6</title><g id="圖層_2" data-name="圖層 2"><g id="圖層_1-2" data-name="圖層 1"><path class="cls-1" d="M65.11,20.89a9.36,9.36,0,0,0-1-4.13,9.23,9.23,0,0,1-.63-6.59,8.3,8.3,0,0,0,.24-3,8.06,8.06,0,0,0-16.07.85A7.89,7.89,0,0,0,48,10.4a8.68,8.68,0,0,1-.71,6.37,9.39,9.39,0,0,0,1.92,10.87,23.13,23.13,0,0,1,5.15,7l1.34,2.92,1.35-2.92a23.13,23.13,0,0,1,5.15-7A9.35,9.35,0,0,0,65.11,20.89Z"/><path class="cls-1" d="M92.6,93a5.64,5.64,0,0,1-1.24,5.1,6.68,6.68,0,0,1-10.21,0A5.64,5.64,0,0,1,79.91,93a1.41,1.41,0,0,1,1.76-1,1.4,1.4,0,0,1,.87.72l.12.25a4.74,4.74,0,0,0,1.67,1.92,3.64,3.64,0,0,0,3.85,0A4.74,4.74,0,0,0,89.85,93l.12-.25A1.42,1.42,0,0,1,92.6,93Z"/><path class="cls-1" d="M116.64,93a5.64,5.64,0,0,1-1.24,5.1,6.68,6.68,0,0,1-10.21,0A5.64,5.64,0,0,1,104,93a1.42,1.42,0,0,1,2.63-.25l.12.25a4.74,4.74,0,0,0,1.67,1.92,3.64,3.64,0,0,0,3.85,0A4.74,4.74,0,0,0,113.89,93l.12-.25a1.42,1.42,0,0,1,2.63.25Z"/><path class="cls-1" d="M103.28,122.74a5.25,5.25,0,0,1-1.15,4.76,6.23,6.23,0,0,1-9.52,0,5.25,5.25,0,0,1-1.14-4.76,1,1,0,0,1,1.82-.11l0,.11a4.23,4.23,0,0,0,8.08,0l0-.1a1,1,0,0,1,1.28-.52A1,1,0,0,1,103.28,122.74Z"/><path class="cls-1" d="M104.17,110.79a6.37,6.37,0,0,1-1.62,5.18,7,7,0,0,1-10.35,0,6.3,6.3,0,0,1-1.62-5.18,1.83,1.83,0,0,1,3.54-.3l.1.3a3.88,3.88,0,0,0,1.3,1.86,3.09,3.09,0,0,0,3.71,0,3.94,3.94,0,0,0,1.29-1.86l.1-.3a1.84,1.84,0,0,1,3.55.3Z"/><path class="cls-1" d="M99.37,117.77l-.63,9.94a1.37,1.37,0,0,1-2.74,0l-.63-9.94a2,2,0,0,1,4-.26A1.13,1.13,0,0,1,99.37,117.77Z"/><path class="cls-1" d="M167.23,111.34a95.2,95.2,0,0,1-13.7-26.24,59.55,59.55,0,0,0-19.05-26.81,12.09,12.09,0,0,1-2.49,3,11.56,11.56,0,0,1-3.26,1.9,11.85,11.85,0,0,1-3.74.7,11.6,11.6,0,0,1-5.6-1.39l-.93-.47c-.63-.32-1.26-.61-1.9-.9a46,46,0,0,0-7.91-2.67,46.64,46.64,0,0,0-16.56-.93,47.47,47.47,0,0,0-15.82,4.87c-.3.15-.59.31-1,.49a5,5,0,0,1-1.25.42l-.66.14c-.22,0-.44,0-.66,0a5,5,0,0,1-1.34-.1A6.3,6.3,0,0,1,67,60.42a5.69,5.69,0,0,1-.4-5.14,6.47,6.47,0,0,1,1.13-1.8,5.54,5.54,0,0,1-.6.06A59.73,59.73,0,0,0,40.79,86.36a86.54,86.54,0,0,1-13.45,25.21A87,87,0,0,0,9.71,164.14c0,38.88,70.44,53.11,122,42.74a151.68,151.68,0,0,1-24.12-4.55A109.75,109.75,0,0,1,80.52,191a81.58,81.58,0,0,1-22.43-19.36A70.39,70.39,0,0,1,50,159a62.9,62.9,0,0,1-3-7c-.43-1.19-.82-2.41-1.17-3.63-.17-.63-.34-1.24-.49-1.88s-.28-1.24-.41-2a2.73,2.73,0,0,1,5.39-.89s0,.06,0,.09v.11c0,.42.15,1,.26,1.56s.24,1.11.36,1.66c.28,1.11.59,2.23.94,3.33a57.79,57.79,0,0,0,2.5,6.51A66.16,66.16,0,0,0,61.54,169a77.66,77.66,0,0,0,20.69,19.24,93.93,93.93,0,0,0,14.13,7.57A61,61,0,0,0,113,189.73a59.84,59.84,0,0,0,8-5.35,62.16,62.16,0,0,0,7-6.61,68.11,68.11,0,0,0,10.52-16,77.18,77.18,0,0,0,3.58-8.87c.51-1.51,1-3,1.37-4.57s.77-3.12,1-4.56v-.06a2.17,2.17,0,1,1,4.28.7s0,.06,0,.09c-.37,1.77-.82,3.33-1.31,5s-1.05,3.19-1.65,4.76a81.59,81.59,0,0,1-4.15,9.13,71,71,0,0,1-11.69,16.2,64.32,64.32,0,0,1-7.53,6.57,59,59,0,0,1-24.24,10.43c3.32,1.38,6.7,2.61,10.11,3.71a153.35,153.35,0,0,0,26.88,5.86C163.28,199.8,185,185.84,185,164.29A87.27,87.27,0,0,0,167.23,111.34ZM128.17,107a26.7,26.7,0,0,0-10.32,20.77v.83A20.53,20.53,0,0,1,95.36,149c-10.57-1-18.46-10.24-18.46-20.85v-.36A26.68,26.68,0,0,0,66.57,107,22,22,0,0,1,88,69.15a26.8,26.8,0,0,0,18.76,0,22,22,0,0,1,29.6,18.49A21.93,21.93,0,0,1,128.17,107Z"/><path class="cls-1" d="M129.62,43.48a66.69,66.69,0,0,0-26.56-7.75,67.79,67.79,0,0,0-13.88.36,70,70,0,0,0-13.49,3.16q-3.28,1.13-6.44,2.57c-1,.5-2.09,1-3.11,1.54-.24.14-.54.27-.73.41l-.59.39-.5.51a6.19,6.19,0,0,0-.41.59,4.81,4.81,0,0,0,.33,5.39,3.65,3.65,0,0,0,2.13,1.18,5.3,5.3,0,0,0,3.38-.52A68.19,68.19,0,0,1,81.84,46.8,60.32,60.32,0,0,1,96.6,44.63a58.17,58.17,0,0,1,28.64,7.24.5.5,0,1,1-.48.88A56.85,56.85,0,0,0,96.63,46a58.6,58.6,0,0,0-14.39,2.27A65.8,65.8,0,0,0,71.7,52.17,5.38,5.38,0,0,0,69,54.93a6.72,6.72,0,0,0-.33,1A4,4,0,0,0,69.21,59a3.77,3.77,0,0,0,2.58,1.68,2.7,2.7,0,0,0,.8.06H73l.39-.09a3.07,3.07,0,0,0,.77-.27A7.64,7.64,0,0,0,75,60a46.73,46.73,0,0,1,16.75-5.08,47.55,47.55,0,0,1,17.42,1.31,48.09,48.09,0,0,1,8.22,3c.66.31,1.31.63,2,1l1,.52c.3.17.57.31.87.45A9.75,9.75,0,0,0,125,62a10.27,10.27,0,0,0,6.08-1.89,9.75,9.75,0,0,0-1.45-16.58Z"/><path class="cls-1" d="M155.55,46.75a1.54,1.54,0,0,1-1.69,1.63h-7.43c-1,0-2,0-2-2,0-3.72,1.29-8,5.28-8C155,38.44,155.55,45.61,155.55,46.75Zm-6.15-16.5c-1.49,0-1.76-3.17-1.76-4.12s-.47-7.37,6.22-7.37c7.31,0,5.55,8.65,5.41,9.94s-1.82,1.55-3.24,1.55ZM164.14,39c.68,0,1.42.13,1,1.62S164,50.61,164,53.72s-.34,7.37-3.65,10.69-6.5,4.12-7,4.12c-.74,0-1.69.07-2.23-.47s-.54-3.72-.54-4.74.13-1.15,1.15-1.55a13.7,13.7,0,0,0,5.34-4.4c2.16-2.84,1.56-10.62,1.56-14.06s.87-4.33,1.62-4.33Zm6.23,23.8c2.5,0,4,2.3,5.34,3.65s-.21,2.37-1.49,2.37-2.64.81-4.53.81-2.91-.74-2.91-2.43C166.78,64.61,167.86,62.78,170.37,62.78Zm29.41-12.37c6.09.74,10.69,4.26,10.69,10.41,0,4.8-4.74,9-6.7,10.55,0,0-2.3,2.5-2.84,3s-1.82.34-2.23,0c0,0-7.78-5.41-8.32-5.88a1,1,0,0,1,.14-1.62s.61-.61,1.35-1.49a2,2,0,0,1,2.64-.07l3.24,2.44c1.49-1,5.28-3.92,4.87-7.1-.47-3.93-3.78-7.1-10.48-7.1s-9.26,2.09-9.26,2.57-1.15,1.08-2,.13c-3.79,3.72-10.42,5.07-11.36,5.07a1.05,1.05,0,0,1-.82-1.82,2.22,2.22,0,0,0-.13-2.57c-.54-.54-.68-2.1.27-2.1a14.39,14.39,0,0,0,6.83-1.62c1.42-.68,2.71-2.71,3.18-4.67-3.65-.13-6.29-.27-6.29-.27-.41.41-1.69,1.22-2.3.41s-2.16-3.72-1.69-4.6,1.76-.61,2.77-.61h33.07c2.1,0,2.77.41,2.77,2.23v2.37c0,.74-.54,1.55-3,1.55-1.22,0-11.09-.47-19.48-.81a12.77,12.77,0,0,1-1.15,3.32C188.62,49.73,194.44,49.8,199.78,50.41ZM172.26,35.8c-2.1,0-2-2.71-1.62-5.68.33-4.67.2-18.8,14.6-18.8S202,23.09,202,27.55c0,8.39-1.35,9.47-2.63,9.47a1.13,1.13,0,0,1-1.29-1.22Zm9.33,25.49c3.59.68,3.18,5,1.62,6-1.28.74-4.66,1.28-5.74-2S178.89,60.75,181.59,61.29Zm.2-33.67v2l6.63-.14a3.06,3.06,0,0,0,2.5-1.28C191.6,27.48,188.49,27.62,181.79,27.62Zm4.53-9.47a3.93,3.93,0,0,0-4.12,3.38h7.91A4.09,4.09,0,0,0,186.32,18.15Zm5.89,42.47A3.25,3.25,0,0,1,189,63.8c-2.23,0-3.11-1.36-3.11-2.84s.34-3.38,3.25-3.38A2.86,2.86,0,0,1,192.21,60.62Zm7.3,2.23c-2,.88-3.38,0-4.33-1.49A3.08,3.08,0,0,1,198,56.7c2.1,0,2.85,1.55,3.52,2.84S201.54,62.17,199.51,62.85Z"/><path class="cls-1" d="M218.79,73.71c-1.77,2.36-3.9,3.86-9.16,3.86l-.23-3.18c4.54-1,6.35-5.22,6.58-8.62l4.94-.45A17.19,17.19,0,0,1,218.79,73.71Zm26.85,22.45c.32-2.81,2.9-5.4,7.94-4.58l-.91,12.56c-2.86,0-10.79.69-15.56-3.35s-7-9.57-7-16.83h-.49c-2,10.48-15.24,17.24-16,17.42s-1.86.54-1.45,0L220.65,84h-3.54V76.43h26.54V84h-6.4C237.25,91.76,240.88,95.57,245.64,96.16ZM227,75.12V71.26h-4.13V68.45H227c0-1.77.18-6.35,3.27-6.35,1.81,0,3.35,1.09,3.35,6.35h4.72v2.81h-4.72v3.86Z"/><path class="cls-1" d="M205.54,127.85c-.41.36-.86.5-1.22.13a23,23,0,0,1-3.36-7.57c-.82-3.54-.64-11-.59-11.93s.54-.86.91-.86l6.75.18c.64,0,.91.14.91,1s-.18,7.89,2.72,10.84c.41.37,1.36.09,1,.46Zm38.69,11c.18,1.31-1,2.95-3.81,2.95h-34c-1.68,0-3.09-.64-3.09-2.36a2.55,2.55,0,0,1,2.86-2.81h12.43l.86-10.93c-1.13,0-1.91.09-2.18.09-1.4,0-2-.77-2-1.59v-3.13c0-.36.14-.63.64-.63.18,0,1.81,0,3.9,0l.13-2.31c-3.35.09-5.89.13-6.07.13-.59,0-.73-.32-.73-.68v-1.81c0-.55.41-.64.77-.64l6.31-.22.95-11.84a4.91,4.91,0,0,1,4.76-.18,6.31,6.31,0,0,1,3.49,5.94l-.4,5.8c3.81-.09,6.89-.22,7.12-.22.68,0,.59.45.59.63v1.86c.5,0,.54.23.54.5s-.36.41-.63.41c0,0-3.54,0-7.85.13l-.18,2.36c2.08-.09,3.44-.13,3.44-.13.69,0,1,.13.91.77,0,0-.32,2.9-.41,3.45s-.4.63-1.18.72c0,0-1.31,0-3.08.23l-.77,11.34h12.79C242.6,136.65,244.09,137.42,244.23,138.87Z"/><path class="cls-1" d="M36.53,56a14.42,14.42,0,0,0,.25-19.25,5.36,5.36,0,0,1-.71-5.7,11.07,11.07,0,1,0-20.26.17,5.39,5.39,0,0,1-.91,5.67A14.42,14.42,0,0,0,15.27,56,5.53,5.53,0,0,1,16,62.24a11.06,11.06,0,0,0,1.8,12.52,5.57,5.57,0,0,1,1.54,4.62,6.56,6.56,0,0,0,0,2.21,6.45,6.45,0,0,0,1,2.49c2,3.06,5.93,5.25,5.55,10.65h0c-.15-5.11,3-7.3,5.26-10.24a6.56,6.56,0,0,0,1.38-4,5.37,5.37,0,0,0,0-.8,5.79,5.79,0,0,1,1.4-4.77,11,11,0,0,0,1.9-12.63A5.55,5.55,0,0,1,36.53,56Z"/><path class="cls-1" d="M86.26,1.61h0A11.3,11.3,0,0,0,96,11.32h0A11.29,11.29,0,0,0,86.26,21h0a11.31,11.31,0,0,0-9.71-9.71h0a11.32,11.32,0,0,0,9.71-9.71Z"/><path class="cls-1" d="M9.71,93.65h0a11.29,11.29,0,0,0,9.7,9.7h0a11.31,11.31,0,0,0-9.7,9.71h0A11.32,11.32,0,0,0,0,103.35H0a11.3,11.3,0,0,0,9.71-9.7Z"/></g></g></svg>