<svg xmlns="http://www.w3.org/2000/svg" viewBox="0 0 168.96 150.67"><defs><style>.cls-1{fill:#906a41;}.cls-2{fill:none;stroke:#d5a373;stroke-miterlimit:10;stroke-width:0.5px;}</style></defs><title>資產 27</title><g id="圖層_2" data-name="圖層 2"><g id="圖層_2-2" data-name="圖層 2"><polygon class="cls-1" points="154.78 0 154.78 28.35 91.56 28.35 91.56 0 77.39 0 77.39 28.35 14.17 28.35 14.17 0 0 0 0 150.66 168.96 150.66 168.96 0 154.78 0"/><rect class="cls-2" x="1.16" y="28.44" width="11.54" height="11.54"/><rect class="cls-2" x="78.71" y="28.44" width="11.54" height="11.54"/><rect class="cls-2" x="156.1" y="28.44" width="11.54" height="11.54"/><line class="cls-2" x1="3.22" y1="30.5" x2="10.63" y2="37.91"/><line class="cls-2" x1="3.22" y1="37.91" x2="10.63" y2="30.5"/><line class="cls-2" x1="80.77" y1="30.5" x2="88.18" y2="37.91"/><line class="cls-2" x1="80.77" y1="37.91" x2="88.18" y2="30.5"/><line class="cls-2" x1="158.16" y1="30.5" x2="165.58" y2="37.91"/><line class="cls-2" x1="158.16" y1="37.91" x2="165.58" y2="30.5"/></g></g></svg>