<svg xmlns="http://www.w3.org/2000/svg" viewBox="0 0 84.39 188.83"><defs><style>.cls-1{fill:none;stroke:#231815;stroke-miterlimit:10;}.cls-2{fill:#231815;}</style></defs><title>資產 28</title><g id="圖層_2" data-name="圖層 2"><g id="圖層_2-2" data-name="圖層 2"><line class="cls-1" x1="0.5" y1="52.23" x2="19.33" y2="188.77"/><line class="cls-1" x1="83.9" y1="52.23" x2="65.06" y2="188.77"/><path class="cls-2" d="M53.84,12.76c0,.41-.4.61-1.22.61A13.91,13.91,0,0,1,50.1,13a13.75,13.75,0,0,0-2.54-.35,4.37,4.37,0,0,0-.79.07,3.78,3.78,0,0,0-.07.8c0,.49,0,1.23.15,2.21A21.41,21.41,0,0,1,47,18a2.75,2.75,0,0,1-.73,1.46A3.5,3.5,0,0,1,45,20.57a3.41,3.41,0,0,1-1.29-.88L42.58,18.6c-.32-.26-.78-.66-1.37-1.19A.82.82,0,0,1,41,16.9a9.11,9.11,0,0,0,2,.29,2.8,2.8,0,0,0,.84-.11,3.3,3.3,0,0,0,.34-1.68A22.22,22.22,0,0,0,44,12.86a31,31,0,0,0-4,.7,3.77,3.77,0,0,1,2,1.53c0,.74-.44,1.25-1.32,1.52a2.39,2.39,0,0,1-1.44-1.17A5.45,5.45,0,0,0,38.2,14a10,10,0,0,0-3.54,1,2.19,2.19,0,0,1-.43.21c-.83,0-1.39-.88-1.68-2.63l.24-.2,1.25.63c2.08-.46,5.22-1.12,9.41-2a2.15,2.15,0,0,0-1-1l.15-.29A18,18,0,0,0,38,11.12a1.45,1.45,0,0,1-1-1.18Q36.71,9,36.54,8a3.5,3.5,0,0,0-1.3-1.95L35.36,6l1.73-.08a15.82,15.82,0,0,1,2-.62q1.11-.24,2.19-.51v-.6a17.22,17.22,0,0,0-3.66,1,1.91,1.91,0,0,1-1.22-.6,1.86,1.86,0,0,1-.73-1.08L36,3.38l1.11.21q2-.51,4.26-1V2.5c0-.65-.55-1.25-1.71-1.78l0-.19A5.61,5.61,0,0,1,41.67,0,4.94,4.94,0,0,1,43,.21a2.74,2.74,0,0,1,1.18.57.09.09,0,0,1,0,.1,1,1,0,0,1-.14.41.75.75,0,0,0-.12.45v.13a18.78,18.78,0,0,1,2.74-.29c1.75,0,2.62.45,2.6,1.35V3a2.08,2.08,0,0,1-1.49.46q.67,0-1.68,0a9.31,9.31,0,0,0-2.19.21l0,.62C46.27,4.07,47.52,4,47.66,4a4.27,4.27,0,0,1,2,.45,2.09,2.09,0,0,1,1.2,1.31L49.9,7c-.27.51-.56,1-.84,1.52a3,3,0,0,1-1,1.23,11.83,11.83,0,0,0-2.2-.1h-.62a7.11,7.11,0,0,1,1.52,1.07l2.52-.15a8.54,8.54,0,0,1,2.82.49C53.26,11.48,53.84,12,53.84,12.76ZM41.33,7V6.28c-.66.12-1.14.21-1.44.28a8.92,8.92,0,0,0-1.4.45l.14.5Zm0,1.73V8.14l-2.48.56.1.51Zm5.32-1.07c-.31,0-.6,0-.89,0a7.14,7.14,0,0,0-1.88.22l0,.58,2.5-.35Zm.26-2.05a2.77,2.77,0,0,0-.79-.08,14,14,0,0,0-2.19.22v.64a13.79,13.79,0,0,1,1.85-.15,3.87,3.87,0,0,1,1,.11Z"/><path class="cls-2" d="M53.51,27.09a.8.8,0,0,1-.5.73,2.31,2.31,0,0,1-1.09.26,9,9,0,0,1-2-.33,8.85,8.85,0,0,0-2-.33l-.39,0c-.24.26-.5.56-.79.9a10.27,10.27,0,0,1,1.06-.06c1.36,0,2,.29,2,.86,0,.26-.18.47-.55.62a2.61,2.61,0,0,1-.94.16l-.73,0-.74,0a14.36,14.36,0,0,0-2.48.22l0,.54c.46,0,.9-.06,1.3-.06,1.54,0,2.49.37,2.84,1.1-.07.35-.36.56-.89.64h-1.3a8.92,8.92,0,0,0-2,.23v.55c1.42-.11,2.64-.16,3.66-.16a7.32,7.32,0,0,1,2,.26c.86.25,1.3.6,1.3,1a.68.68,0,0,1-.4.56,1.58,1.58,0,0,1-.81.24A10.14,10.14,0,0,0,49,34.88a24.21,24.21,0,0,0-3.1-.22,9.32,9.32,0,0,0-1.5.1A6.4,6.4,0,0,0,44.31,36c0,.33,0,.8.09,1.43s.08,1.09.08,1.4a3.09,3.09,0,0,1-.55,1.56,2.53,2.53,0,0,1-1.28,1.13,9.62,9.62,0,0,1-1.95-1.62,26.55,26.55,0,0,0-2-1.91l0-.23a6.59,6.59,0,0,0,2,.33,5.09,5.09,0,0,0,1.3-.16,6.34,6.34,0,0,0,.24-1.7A6.06,6.06,0,0,0,42.15,35a22.45,22.45,0,0,0-5,1.12,2.7,2.7,0,0,1,.77,1.85c0,1.71-.56,2.62-1.66,2.73-.56-.19-.85-.73-.85-1.6a5,5,0,0,1,.61-1.2,5,5,0,0,0,.67-1.57l-1,.57a3.21,3.21,0,0,1-.79-1q-.51-.88-.63-1l.22-.12,1.06.16q3-.9,6.57-1.6v-.47a25.46,25.46,0,0,0-2.86.56,8.34,8.34,0,0,1-2.07-1l0-.2,5-1-.48-.63a9,9,0,0,0-3.35.71A4.21,4.21,0,0,1,37,30.84c-.59-.27-.93-.55-1-.84a23.36,23.36,0,0,0,3.66-.63,7.23,7.23,0,0,0-.8-1A27.51,27.51,0,0,0,36,29a11.51,11.51,0,0,0-2.6,1c-.45-.09-.94-.8-1.49-2.13l.22-.1a10.92,10.92,0,0,0,1.42.22c1.23-.31,2.48-.64,3.73-1A6.26,6.26,0,0,1,36,24.12h.22l1.76.61a1.44,1.44,0,0,1,.77,1.4l-.1.61,1.64-.33c0-.94,0-1.55,0-1.84-.1-.85-.34-1.38-.72-1.6l0-.31a2.64,2.64,0,0,1,1-.18,2.42,2.42,0,0,1,2,.8,4.33,4.33,0,0,1-.34.82,13.62,13.62,0,0,0,0,1.39v.64L43,26a9.15,9.15,0,0,0,.12-1.51c0-1.47-.27-2.41-.79-2.83l.07-.25c.38-.06.75-.12,1.1-.21a6.93,6.93,0,0,1,1.59.33c.72.25,1.08.54,1.06.88l-.84.52s-.1.65-.22,1.82q.72-.51,1.62-1.11l.12-.34,0-.27a2.77,2.77,0,0,1,.6-.06,6.93,6.93,0,0,1,1.74.26c.8.22,1.2.5,1.2.82s-.51.46-1.52.64a9.86,9.86,0,0,0-3.08,1l3.93-.19a7.16,7.16,0,0,1,2.23.43C53,26.26,53.51,26.65,53.51,27.09Zm-8.91.64a1.61,1.61,0,0,0-.81-.37l-3.09.45a1.14,1.14,0,0,1,.46.63,6.61,6.61,0,0,0,.31.74A4.71,4.71,0,0,0,44.6,27.73Zm7.3,11.05q0,1.35-1,1.35a2.24,2.24,0,0,1-.86-.2,6.39,6.39,0,0,1-1.67-1.83l-1.54-2.17.07-.14a14.43,14.43,0,0,1,2.46.53,4.69,4.69,0,0,1,2,1.27A1.82,1.82,0,0,1,51.9,38.78Z"/><path class="cls-2" d="M51.1,52.46A6.47,6.47,0,0,1,49.3,57a6.2,6.2,0,0,1-4.79,2.13,9.61,9.61,0,0,1-1.74-.18,13.49,13.49,0,0,0,3.69-3,6.24,6.24,0,0,0,1.66-4,3.14,3.14,0,0,0-1.19-2.49,4.48,4.48,0,0,0-3-1,8.27,8.27,0,0,0-1,.06,1.69,1.69,0,0,1,.12.66A9.55,9.55,0,0,1,41.84,53a19.45,19.45,0,0,1-2.29,3.59,5.76,5.76,0,0,1-2.74,1.91,1.28,1.28,0,0,1-1-.84c-.14-.44-.28-.87-.41-1.3s-.46-.86-.79-1.57a3.09,3.09,0,0,1-.12-.93,5.62,5.62,0,0,1,.58-2.7,8.44,8.44,0,0,1,4.74-4,12,12,0,0,1,4.28-.68,7.45,7.45,0,0,1,5,1.76A5.4,5.4,0,0,1,51.1,52.46Zm-10-3.75v-.09a6.48,6.48,0,0,0-3.33,1.62,4.05,4.05,0,0,0-1.51,3c0,1.28.25,2.1.77,2.44h.07c.53,0,1.35-1,2.46-3.1S41.1,49.29,41.07,48.71Z"/><path class="cls-2" d="M54.78,77.17l-.09.25a12.31,12.31,0,0,1-4.74.84,8.75,8.75,0,0,1-1.23-.08l-.67-.48A12.17,12.17,0,0,1,46.87,80c-.69,1.07-1.31,1.6-1.86,1.6l-.14,0A2.34,2.34,0,0,0,44,81.4a13.42,13.42,0,0,0-3.05.49A1.06,1.06,0,0,1,40.05,83a4.06,4.06,0,0,1-1.46-2.5,8.11,8.11,0,0,0-1.11-2.75,12.76,12.76,0,0,1-5.1,1.3,2.68,2.68,0,0,1-1.28-.21A64.1,64.1,0,0,0,41,72.58,2.53,2.53,0,0,0,40.3,72a9.72,9.72,0,0,1-3.93,1.21,5.34,5.34,0,0,1-1-.12Q39.7,70.63,41,69l-.22-.54.22-.16,1.32-.1a2,2,0,0,1,.91.51l.63.66.5.18c1.8,0,2.7.34,2.7,1a.56.56,0,0,1-.1.33c-.38.17-.77.36-1.15.55a6,6,0,0,0-1.64,1,7.26,7.26,0,0,0,2,1.21,22.43,22.43,0,0,0,2.34.93l3.35,1A8.59,8.59,0,0,1,54.78,77.17ZM53,68c-.13.54-.39.8-.78.8l-2.8.06c-1.16,0-2.09,0-2.79,0l-.39-.09a4.09,4.09,0,0,0,1.95-1.49,6.8,6.8,0,0,0-1.42-.13,18.36,18.36,0,0,0-2.89.27c-1.27.21-2.47.45-3.61.74-.35.11-.89.26-1.61.45l-.46,0a3.26,3.26,0,0,1-2-.62v.6a4.74,4.74,0,0,1-.52,1.93Q35.05,71.91,34.3,72a1.65,1.65,0,0,1-1-1.64,6.64,6.64,0,0,1,.39-1.83,7.06,7.06,0,0,0,.38-1.88,2.45,2.45,0,0,0-.05-.55l1.09.51a2.25,2.25,0,0,1,.86.78,46.13,46.13,0,0,0,5-1.21A.75.75,0,0,0,41,66a4.75,4.75,0,0,0-1.18-2l.15-.14a3.84,3.84,0,0,1,1.44-.27,5.71,5.71,0,0,1,1.73.31c.78.25,1.16.56,1.16.94a1.11,1.11,0,0,1-.17.37,1,1,0,0,0-.17.47.58.58,0,0,0,0,.19,32.23,32.23,0,0,1,4.69-.47,5.14,5.14,0,0,1,2,.59A6.66,6.66,0,0,1,52.4,67,2.14,2.14,0,0,1,53,68Zm-8.64,7.61a24.76,24.76,0,0,1-2-1.62A16.26,16.26,0,0,1,39,76.51Q40.49,76.19,44.36,75.59Zm.41,1.68q-2.67.44-4.59.72a12.34,12.34,0,0,0,.57,2.18,30.29,30.29,0,0,0,3.13-.68A11.21,11.21,0,0,0,44.77,77.27Zm-1.66-6.44c-.19-.23-.36-.41-.5-.55l-1.14.88a2.6,2.6,0,0,1,.78.35Z"/><path class="cls-2" d="M53.94,102.5l-.1.2a14,14,0,0,1-4.42.82c-.5,0-1.22-.45-2.17-1.37l-1.92-1.93a9.33,9.33,0,0,1-1.54,1.13q-1.3.8-1.62,1.05-.81.73-2.55,2.07a1.8,1.8,0,0,1-.82-.86,2.38,2.38,0,0,1-.36-1.11,7.85,7.85,0,0,1,.52-1.44,5.72,5.72,0,0,0,.52-1.78,23.38,23.38,0,0,1-3.37,2.5,8.84,8.84,0,0,1-4.24,1l-.26-.15A39.33,39.33,0,0,0,39.29,97a16.63,16.63,0,0,0-3.09.88c-.41.2-1,.44-1.85.74a8.26,8.26,0,0,1-2-1.68l.22-.12a10.93,10.93,0,0,0,1.3.08l.77-.21q1.56-.45,4.91-1.1c.29,0,.71-.13,1.28-.25a.65.65,0,0,0,.55-.74V94.5a8.32,8.32,0,0,0-.53-.68,2.62,2.62,0,0,1,0-.32A4.64,4.64,0,0,1,41,92.36a5.16,5.16,0,0,0,.24-1.08,8.33,8.33,0,0,0-1.47.37v.7q0,.47,0,.69a3.79,3.79,0,0,1-.41,2.22.51.51,0,0,1-.22,0,1.21,1.21,0,0,1-1-.47,1.44,1.44,0,0,1-.34-1,3.3,3.3,0,0,1,.1-.57A7.18,7.18,0,0,0,38.08,92a5.58,5.58,0,0,0-2,.63c0,.48,0,.87,0,1.15,0,1.12-.24,1.74-.72,1.85l-.34-.1a1.42,1.42,0,0,1-.6-1.17,6.86,6.86,0,0,1,.07-.73,5.42,5.42,0,0,0,.08-.73q0-.83-.39-1l.12-.19a8.55,8.55,0,0,0,1.88-.37c1-.33,1.64-.51,1.83-.55l0-.39a28.53,28.53,0,0,0-4.88,1.41l-1.11-.45v-.2L37.94,89l.09-.55a13.63,13.63,0,0,1-1.83.43,7,7,0,0,1-4.83,1.83l-.22-.11c.93-.68,1.58-1.19,2-1.52a5.94,5.94,0,0,0,1.42-1.88,1.07,1.07,0,0,0-.34-.72l0-.2a3.18,3.18,0,0,0,.78-.15A3.42,3.42,0,0,1,35.8,86a1.9,1.9,0,0,1,.83.23c.29.16.44.34.44.55a.92.92,0,0,1-.24.51l1.23-.35c0-.09,0-.24,0-.44s0-.34,0-.44c0-.38-.3-.65-.89-.8l-.1-.25a2.17,2.17,0,0,0,.68-.34,1.54,1.54,0,0,1,.69-.31,3.5,3.5,0,0,1,1.13.22c.53.19.8.41.8.66a1.18,1.18,0,0,1-.3.57,1.15,1.15,0,0,0-.31.68L41.52,86a2.19,2.19,0,0,1,.94.23c.4.16.6.34.6.55v.08a2.71,2.71,0,0,1-1.49.7L39.81,88v.45A13.64,13.64,0,0,1,42,88c.92,0,1.36.22,1.33.66v.1c-.15.24-.67.45-1.57.61-1.17.24-1.82.37-1.95.41v.5c.84-.18,1.47-.33,1.91-.46a3.92,3.92,0,0,1,1.54.5c.57.34.89.71.93,1.1a1.63,1.63,0,0,1-.77.72,9.45,9.45,0,0,1-1,1.44l1.35.24a.74.74,0,0,1,.36.58q0,.16-.48.72a19.86,19.86,0,0,1,4.64-.64,7.38,7.38,0,0,1,2.07.31c.93.27,1.4.63,1.4,1.08s-.39.78-1.18.78c-.1,0-.83-.05-2.19-.16a7,7,0,0,0-2.65,1.56,5.9,5.9,0,0,0,1.28.85,19.55,19.55,0,0,0,1.85.91L51.65,101A5.77,5.77,0,0,1,53.94,102.5Zm-9-2.54A8,8,0,0,1,44,99a3.78,3.78,0,0,1-1.78.33l-.31,0c.5-.34,1-.69,1.42-1A16.6,16.6,0,0,1,42.15,97a3.31,3.31,0,0,1-.89.86,1.44,1.44,0,0,1,.05.37,7.58,7.58,0,0,1-.18,1.35A7.33,7.33,0,0,0,41,100.9a.86.86,0,0,0,0,.24A23.34,23.34,0,0,0,44.89,100Zm1-3.7c-.64,0-1.42.08-2.34.19l1,.74A14.3,14.3,0,0,0,45.88,96.26Zm1.18-8.9c-.11.81-.23,1.61-.34,2.4A3.91,3.91,0,0,1,46,91.94l-.15,0a1.3,1.3,0,0,1-1-.56,1.5,1.5,0,0,1-.41-.94,6.8,6.8,0,0,1,.21-1.37,7.52,7.52,0,0,0,.2-1.34,1.05,1.05,0,0,0-.32-.62,1,1,0,0,1-.33-.61c.23,0,.44,0,.65,0C46.1,86.48,46.82,86.78,47.06,87.36Zm4.43-1.47c-.07.12-.17.28-.32.49a4.49,4.49,0,0,0-.26,2c0,.38,0,1,.07,1.75s.07,1.37.07,1.76a5.11,5.11,0,0,1-.24,1.47c-.22.7-.51,1.05-.86,1.05A2.13,2.13,0,0,1,48.74,94l-.94-.82a6.75,6.75,0,0,0-1.29-.84l0-.15A13.38,13.38,0,0,0,48,91.92a1,1,0,0,0,.74-1,6.6,6.6,0,0,0-.06-.71,6.37,6.37,0,0,1-.06-.72,13.73,13.73,0,0,1,.1-2.12,1.24,1.24,0,0,1-.12-.59,1.44,1.44,0,0,0-.15-.63,2.09,2.09,0,0,0-.5-.49,2.26,2.26,0,0,1-.46-.42v-.14l1.23-.33,1.59.31C51,85.24,51.37,85.52,51.49,85.89Z"/><path class="cls-2" d="M36.93,113.31a.6.6,0,0,1-.29.53,6.68,6.68,0,0,1-1.28.58,5,5,0,0,0-1.21.59c-.24.18-.57.4-1,.67l-.24.09.84-1.69a4.39,4.39,0,0,1-2.5-1.59v-.21a2.56,2.56,0,0,0,.57.06,8.19,8.19,0,0,0,1.1-.11,6.7,6.7,0,0,1,1.07-.11,4,4,0,0,1,2.84.78A1.11,1.11,0,0,1,36.93,113.31Zm.14,2.72c-.46,1.33-.92,2.66-1.37,4a8.44,8.44,0,0,1-2,3.57l-.41-.29a14,14,0,0,1-1-2.56.88.88,0,0,1,.41-.7c.16-.07.41-.17.74-.33A28.87,28.87,0,0,0,37,115.79Zm1.52-6.62c-.2.51-.78.76-1.76.76a4.31,4.31,0,0,1-2.27-.85A3.45,3.45,0,0,1,33,107.65h.24a2.25,2.25,0,0,1,.4.06l.37.08h1.88a3.48,3.48,0,0,1,1.64.5A1.81,1.81,0,0,1,38.59,109.41Zm15.86,13c0,.59-.57.88-1.71.88A7.84,7.84,0,0,1,51,122.9a22.15,22.15,0,0,0-5.25-.92,17.85,17.85,0,0,0-8.08,1.56,3.2,3.2,0,0,1-.92-.78,2.71,2.71,0,0,1-.62-1l.21-.09.8.19a15.75,15.75,0,0,0,2.6-.66l-.24-.67a3.75,3.75,0,0,1-.12-.78c-.13-1.37-.2-2.07-.22-2.1a3.6,3.6,0,0,0-1.25-1.84l0-.27c.67.08,1.27.18,1.8.29,1-.16,2.43-.42,4.36-.78l1.9-.49a7.9,7.9,0,0,1,1.88-.31,5.05,5.05,0,0,1,2.31.86c1,.6,1.54,1.13,1.54,1.58a.58.58,0,0,1,0,.19l-.67.38c-.43.25-.78,1.24-1,3a16.12,16.12,0,0,1,2.17.24,4.15,4.15,0,0,1,1.81,1A1.25,1.25,0,0,1,54.45,122.39Zm-2.89-13.56q0,.19-1,.93l-.77,2.07c-.37,1-.8,1.52-1.28,1.68a4.56,4.56,0,0,1-1.06-.27,4,4,0,0,0-1.11-.2,19.81,19.81,0,0,0-4.09.7c-.25.06-.62.15-1.1.24a1.52,1.52,0,0,1-.68-.51,1.81,1.81,0,0,1-.44-.7,6,6,0,0,1-.16-1.39c0-.82-.09-1.34-.12-1.54A4.17,4.17,0,0,0,39,108.2l.12-.21,1.11.21c.41-.07,1.69-.37,3.82-.9a16.57,16.57,0,0,1,3.76-.64,3.89,3.89,0,0,1,1.44.25,6.25,6.25,0,0,1,1.4.84C51.24,108.21,51.56,108.58,51.56,108.83Zm-9.51,9.81a5.39,5.39,0,0,0-.26-1.85L41,117a9.25,9.25,0,0,1,.4,2.7,8.77,8.77,0,0,1-.07,1.15l.75-.2L42,120.2c0-.17,0-.42,0-.77A7,7,0,0,0,42.05,118.64ZM48,108.28a3.55,3.55,0,0,0-.67-.06,14.14,14.14,0,0,0-3,.45l-3,.74.17.72.15,0a12.52,12.52,0,0,0,2.79-.56,12.47,12.47,0,0,1,2.72-.55l.6.08Zm-.62,2.26a16.5,16.5,0,0,0-5.35.92l-.38-.1.05,1.17a24.75,24.75,0,0,1,5.34-1Zm-2.24,6.15v-.08l-.31-.29a8.23,8.23,0,0,0-1.45.21,4,4,0,0,1,.48,2.27,6.11,6.11,0,0,1-.16,1.66l.79-.2A13.53,13.53,0,0,0,45.11,116.69Zm3.2-.33a1.16,1.16,0,0,0-.7-.2,2,2,0,0,0-.48.06l.19.37a5,5,0,0,0-.57,1.64c-.18.63-.35,1.26-.51,1.88l1.28,0A14.73,14.73,0,0,0,48.31,116.36Z"/><path class="cls-2" d="M40.61,137.69a2.49,2.49,0,0,1-.58.46,2.3,2.3,0,0,0-.55.44c-.32.59-.86,1.44-1.61,2.57a6.17,6.17,0,0,1-4.82,2.6,6,6,0,0,1-1.54-.21l-.19-.18a8.74,8.74,0,0,0,5.41-4.51A6.86,6.86,0,0,0,34,140.05c-.29,0-.59-.33-.91-1a7.56,7.56,0,0,1-.49-1.29l.32-.08,1,.35c1.49-.49,2.94-1,4.33-1.48a4.73,4.73,0,0,1,1.37.33A1.79,1.79,0,0,1,40.61,137.69Zm13.84,5.19,0,.18q-1.47,1.32-4.81,1.27h-.34a9.82,9.82,0,0,1-3.08-2.21c-1.72-1.63-2.66-2.51-2.84-2.65,0,.32.07.91.17,1.79s.1,1.37.1,1.8a4.32,4.32,0,0,1-.44,1.73A2.19,2.19,0,0,1,42,146.14a2.67,2.67,0,0,1-1.09-.67q-.49-.48-.93-.93c-.41-.29-1-.75-1.71-1.37a3.58,3.58,0,0,1-.5-.66v-.23a6.62,6.62,0,0,0,2.33.56,1.79,1.79,0,0,0,1.13-.33,13.16,13.16,0,0,0,.32-3.86c0-.3,0-.76,0-1.39s0-1.09,0-1.4l-.67-.22a9.74,9.74,0,0,0-2.8.49,1.91,1.91,0,0,1-1.1-1.25q-.07-.82-.12-1.62c-.05-.33-.11-.82-.17-1.48-.42-.38-.87-.76-1.35-1.12l.05-.19a2.53,2.53,0,0,1,.7,0l.74,0a1.23,1.23,0,0,0,.63-.14A9.37,9.37,0,0,0,38.92,129a2.82,2.82,0,0,0,.92-1.58,1.4,1.4,0,0,0-.31-.86l.12-.16h.19a2.06,2.06,0,0,0,.68-.12,2,2,0,0,1,.69-.13h.12a13.47,13.47,0,0,0,1.37.72,1.69,1.69,0,0,1,1,1.15,13.44,13.44,0,0,1-1.47.82,7.89,7.89,0,0,0-1.32,1.05,39.56,39.56,0,0,1,5.46-1,6,6,0,0,1,2.19.74c1.08.52,1.61.95,1.61,1.29s-.16.4-.48.58a2.33,2.33,0,0,0-.82.65c-.33.62-.66,1.23-1,1.85a2.14,2.14,0,0,1-1.76,1.13,1,1,0,0,1-.58-.17,9.56,9.56,0,0,0-1.51.17.19.19,0,0,1,0,.12c0,.07-.08.19-.26.37a1.19,1.19,0,0,0-.31.41,3.09,3.09,0,0,0,1.1,1.54A10.46,10.46,0,0,0,47,136.15l-.33-.51.14-.19h.17a2.23,2.23,0,0,0,.72-.1,3.28,3.28,0,0,1,.72-.12,1.32,1.32,0,0,1,.34,0l1.42.57c.64.26,1,.58,1,1a1.37,1.37,0,0,1,0,.16,2.15,2.15,0,0,1-1.33.41,16.93,16.93,0,0,0-4.18,1.33c1,.54,2.56,1.3,4.64,2.3.72.29,1.44.57,2.17.84A14.17,14.17,0,0,1,54.45,142.88Zm-8.45-12a5.44,5.44,0,0,0-1.35-.14,15.8,15.8,0,0,0-3,.35c-1.62.32-2.61.51-3,.55l.1.86c.49,0,1.49-.25,3-.57a14.49,14.49,0,0,1,3-.43,3,3,0,0,1,1.16.2Zm-.19,1.68c-1.46.18-3.64.53-6.52,1.05l-.46-.17.09,1.19a26.25,26.25,0,0,1,6.31-.9Z"/></g></g></svg>