<svg xmlns="http://www.w3.org/2000/svg" viewBox="0 0 73.26 144.45"><defs><style>.cls-1{fill:none;stroke:#231815;stroke-miterlimit:10;}.cls-2{fill:#231815;}</style></defs><title>資產 26</title><g id="圖層_2" data-name="圖層 2"><g id="圖層_2-2" data-name="圖層 2"><line class="cls-1" x1="0.5" y1="52.19" x2="13.21" y2="144.38"/><line class="cls-1" x1="72.76" y1="44.22" x2="58.94" y2="144.38"/><path class="cls-2" d="M48.33,15.46a6.43,6.43,0,0,1-3.66,1.34,3.67,3.67,0,0,1-1.16-.15,11,11,0,0,1-3-2.36c-1.74-1.68-2.73-2.61-3-2.81a6.26,6.26,0,0,0-.05.78c0,.54.05,1.33.14,2.38s.13,1.84.13,2.36a2.42,2.42,0,0,1-1.49,2.46.8.8,0,0,1-.41-.16,4.2,4.2,0,0,1-.84-1l-.75-1.08a16.61,16.61,0,0,1-1.35-1.62l0-.19a5.14,5.14,0,0,0,1.51.27,2.14,2.14,0,0,0,.89-.17,19.28,19.28,0,0,0,.12-2.13c0-.46,0-.92-.05-1.37q-4.62,4.77-8.68,4.78a8.59,8.59,0,0,1-1.11-.07l-.17-.18a26,26,0,0,0,7.82-5.43l-1.9.53a3,3,0,0,0-1.59.94H29.7q-.45,0-1.2-.78s-.34-.39-1-1.15l.16-.18.58,0a15.49,15.49,0,0,0,4.14-1,4.07,4.07,0,0,0-1.92-2l-.05-.28A5,5,0,0,1,31.94,7a3.09,3.09,0,0,1,2,.45,3.58,3.58,0,0,1,.67,1.69l.6-.17a23,23,0,0,0,.12-2.85V5.62a11.92,11.92,0,0,0-2.24.9,3.29,3.29,0,0,1-1.52-.7A4.31,4.31,0,0,1,30.3,4.74l1.4-.11a17.8,17.8,0,0,0,3.68-1V3.28a2.53,2.53,0,0,0-.1-1,2,2,0,0,0-.69-.78,4,4,0,0,0-.53-.35L33.94,1A7.32,7.32,0,0,0,35,.45,3.07,3.07,0,0,1,36.17,0c1.46.67,2.19,1.33,2.17,2V2l-.43.66-.1.55a11.33,11.33,0,0,1,2.79-.66A2.11,2.11,0,0,1,41.77,3a1.66,1.66,0,0,1,.76.88,4.17,4.17,0,0,1-2.24.82,12.59,12.59,0,0,0-2.65.65c0,.81-.09,1.88-.12,3.22a2.84,2.84,0,0,0,1.31-1,2.29,2.29,0,0,0,.67-1.39,1.1,1.1,0,0,0-.15-.53l.17-.12a4.88,4.88,0,0,1,.79-.06,3.54,3.54,0,0,1,1.74.55c.7.38,1.06.78,1.06,1.19a.35.35,0,0,1,0,.18c-.11,0-.59.11-1.42.23a8.91,8.91,0,0,0-1.52.86,10.31,10.31,0,0,1,1.64-.2A7.41,7.41,0,0,1,44,8.67C45,9,45.44,9.4,45.44,10a.9.9,0,0,1-.48.8c-2.65-.35-4.35-.52-5.1-.52a6,6,0,0,0-1.28.13A19,19,0,0,0,43.27,13l2.63,1a12.25,12.25,0,0,1,2.4,1.31Z"/><path class="cls-2" d="M36.17,23.73a.76.76,0,0,1-.07.31,2.87,2.87,0,0,0-1.66,1.18c-.33.58-.66,1.15-1,1.73-.2.33-.48.81-.85,1.45,1.69,1,2.53,2.05,2.53,3.33,0,.65-.19,1.06-.58,1.23a1.42,1.42,0,0,1-1.1-.56l-.75-1-2.12.82a7.26,7.26,0,0,0-1.9,1.11c-.19.23-.5.56-.91,1-.29,0-.63-.41-1-1.19a8.71,8.71,0,0,1-.64-1.58l.24-.1.84.22a4.62,4.62,0,0,0,1.61-1.1c.21-.22.59-.72,1.16-1.5a9.44,9.44,0,0,0-3.88,1.37c-.42,0-.62-.42-.62-1.23A2.85,2.85,0,0,1,25.68,28,6,6,0,0,0,28,27.5a15.48,15.48,0,0,0,1.42-3.87,4,4,0,0,0-1-.72v-.23l1.3-.37a4.17,4.17,0,0,1,1.4.37c.61.26.91.54.91.84-.48.77-1.14,1.94-2,3.53l1.28-.1a26.15,26.15,0,0,0,1.68-3.2.93.93,0,0,0-.67-.51V23a6.77,6.77,0,0,0,1.22-.51,1,1,0,0,1,.24,0,3.36,3.36,0,0,1,1.44.44C35.88,23.17,36.17,23.45,36.17,23.73ZM29,37.92a1.79,1.79,0,0,1-1,1.66,1.28,1.28,0,0,1-1.25-1.15c0-.59-.07-1.17-.1-1.76a4.66,4.66,0,0,0-.46-1.46V35h.08a2.38,2.38,0,0,1,1.92,1A3,3,0,0,1,29,37.92Zm2.69-1.17a1.8,1.8,0,0,1-.36,1.11,2.45,2.45,0,0,1-.38,0,1.32,1.32,0,0,1-1.28-.9c-.14-.51-.29-1-.45-1.57a5.78,5.78,0,0,0-.56-1.33v-.22C30.66,34.54,31.67,35.49,31.67,36.75Zm2.82-1.31A1.25,1.25,0,0,1,34,36.57h-.19c-.6,0-1.17-.41-1.71-1.34a7.26,7.26,0,0,0-1.45-1.95l0-.14a6.25,6.25,0,0,1,2.5.57A2,2,0,0,1,34.49,35.44ZM32.2,30,32,29.2a11.59,11.59,0,0,1-.92,1.25Zm15.53-2v.07a11,11,0,0,0-.77.84,6.3,6.3,0,0,0-.68,2.46c-.13.9-.25,1.79-.36,2.68a12,12,0,0,1-1.39,4.43A4.35,4.35,0,0,1,43,40a2.72,2.72,0,0,1-1.49-.64l-1.3-1.27L39,37a3.68,3.68,0,0,1-.92-1.3l0-.22a9.61,9.61,0,0,0,3.39.84,5.28,5.28,0,0,0,.55,0,6.51,6.51,0,0,0,1.64-4c.16-1.51.31-3,.46-4.49a17.5,17.5,0,0,0-5.06.88,2.47,2.47,0,0,1-.93-.49,5.06,5.06,0,0,1-3,1.84l-.41-.06a22.76,22.76,0,0,0,3.32-6.5,1.74,1.74,0,0,0-.8-1.17L37.26,22a4.07,4.07,0,0,0,.85-.22,2.86,2.86,0,0,1,.86-.19,3.45,3.45,0,0,1,1.36.4,3.08,3.08,0,0,1,1.12.74,2.36,2.36,0,0,1-.85.8,12.33,12.33,0,0,0-1,1.69c-.48,1-.77,1.55-.87,1.72.39-.06,1.29-.26,2.7-.62A12.09,12.09,0,0,1,44,25.9a5.17,5.17,0,0,1,2.26.72C47.26,27.13,47.74,27.59,47.73,28Zm-6,5.34c0,.57-.32.86-1,.86a2,2,0,0,1-1.54-1c-.34-.53-.67-1.06-1-1.6A17.66,17.66,0,0,1,37.14,30h.38a4.76,4.76,0,0,1,2.94,1A2.83,2.83,0,0,1,41.73,33.35Z"/><path class="cls-2" d="M29.63,49.52a.94.94,0,0,1,.52.15,1.07,1.07,0,0,0,.32.42.44.44,0,0,1,.34.33,1.21,1.21,0,0,0,.2.19,1,1,0,0,1-.64.38,6.07,6.07,0,0,0-1.5,1,3.08,3.08,0,0,1-1.63.78l-.86.1a1.84,1.84,0,0,1-1.21-.63A.68.68,0,0,0,25.1,52a2.15,2.15,0,0,1,.07-.53,4.11,4.11,0,0,0,2.49-1.34,2.27,2.27,0,0,1,.44-.49,1.09,1.09,0,0,1,1.06-.08v-.1C29.33,49.46,29.48,49.5,29.63,49.52Zm1.48,5.15a19.46,19.46,0,0,0-1.16,3,23,23,0,0,0-1.18,2.16.58.58,0,0,1-.32.46,1.13,1.13,0,0,1-1-.27c-.32-.31-.64-.63-1-1a.84.84,0,0,1,.1-.54.67.67,0,0,1,.34-.61,5.51,5.51,0,0,0,.18-1.3,6.72,6.72,0,0,0,.69.1c0,.11.1.13.19.11a13.39,13.39,0,0,0,1.09-1.45c.61-.72,1.6-1.85,2.93-3.4l1-1.35h.13C32.39,51.94,31.72,53.3,31.11,54.67Zm.66-9a1.08,1.08,0,0,1-.66.36,4.19,4.19,0,0,1-1.6-.19,2.91,2.91,0,0,0-1.41.65,5.44,5.44,0,0,1,.54-1,1.23,1.23,0,0,0-.34-1.11,1,1,0,0,1-.84-.44c0-.15,0-.23.2-.25V43.5a3.21,3.21,0,0,1,2.71.37,2.51,2.51,0,0,1,.86.82A2.26,2.26,0,0,1,31.77,45.7Zm8.85-1.39a3,3,0,0,1-.52.09,19.21,19.21,0,0,0-3,3.67h.17c1-.48,2-1,3.08-1.47a3.9,3.9,0,0,1,3.4,0c1,.51,2,1.05,2.93,1.62a1.17,1.17,0,0,1,.2.84,3.18,3.18,0,0,0-.2,1.53c0,.3-.07.57-.12.82A20.44,20.44,0,0,1,46,53.87a8.42,8.42,0,0,1-.84,1.21,1.39,1.39,0,0,1-1.31.45,3.72,3.72,0,0,1-.76-1,3.83,3.83,0,0,0-.67-1.09.67.67,0,0,1-.41-.28,2,2,0,0,1-.74.28,1.34,1.34,0,0,0-.67.92,4.42,4.42,0,0,1-1.72,1.36,2.23,2.23,0,0,0-.62.28c-.86.27-1.7.59-2.51.92a1.72,1.72,0,0,0-.25,1.16,19.84,19.84,0,0,0,5.2.73,7.54,7.54,0,0,0,2.17-.19,2,2,0,0,0,.22-2.16v-.11a3.12,3.12,0,0,1,.52.57v-.1A10,10,0,0,0,46,58.15a2.27,2.27,0,0,1,1.53,1.2.89.89,0,0,1-.67,1,.61.61,0,0,0-.52.28,11.58,11.58,0,0,1-4.11.54,28.54,28.54,0,0,0-3.67-.38,13.9,13.9,0,0,0-2.17-.44,10.07,10.07,0,0,1-1.83-.71,1.54,1.54,0,0,1-1.08-1,3.22,3.22,0,0,1-.12-1.76,4.67,4.67,0,0,0-.2-1.73l.2.09V54.9h.24q-.23-.16,0-.3a7.28,7.28,0,0,0,.72.11c.39.23.76.48,1.13.71l1.9-.82a12,12,0,0,1,1.33-1.34,1,1,0,0,0,0-.63,10.34,10.34,0,0,0-2.93.8l-1.61.65a1.5,1.5,0,0,1-.78-.93,2.17,2.17,0,0,1-.13-.82l.25-.08a.69.69,0,0,1,.25-.29.29.29,0,0,1,.29-.07.38.38,0,0,0,.3.07.87.87,0,0,0,.79.29,15,15,0,0,0,2.36-.82l.22-.21.1.11a1.3,1.3,0,0,1,1.09-.44,6.7,6.7,0,0,0,1.6.25v-.09a19.24,19.24,0,0,1,1.87,1.28,2.69,2.69,0,0,0-.12.38h.32a2.7,2.7,0,0,0,.86-2.18l.12-.11A3.47,3.47,0,0,0,43.43,49c0-.28-.22-.45-.54-.55l-.64-.27a6.73,6.73,0,0,0-2.15.6,16,16,0,0,0-4.58,1.92,4,4,0,0,1-1.06.46.79.79,0,0,1-.52.29,5,5,0,0,1-.76-1.22.54.54,0,0,1,.2-.79,1,1,0,0,1,.56-.44c.82-1.2,1.63-2.38,2.47-3.57l1-1.7a6.82,6.82,0,0,1-.52-.84,1.45,1.45,0,0,0,.25-.11c0-.06.1-.15.17-.25s.1,0,.1-.11a7.9,7.9,0,0,1,1.21-.1,2.37,2.37,0,0,1,.76-.09,5.91,5.91,0,0,1,2,1.39A4.69,4.69,0,0,0,40.62,44.31Z"/><path class="cls-2" d="M31.19,70.53c0,.32-.38.65-1.15,1-.55.22-1.08.45-1.61.68A9,9,0,0,1,27.2,73L28,71.29a4.42,4.42,0,0,1-2.48-1.6v-.23a2.13,2.13,0,0,0,.6.08,6.5,6.5,0,0,0,1-.12,6.63,6.63,0,0,1,1-.12,7.08,7.08,0,0,1,1.88.22C30.82,69.74,31.19,70.08,31.19,70.53Zm.17,2.68c-.46,1.34-.92,2.68-1.37,4a8.39,8.39,0,0,1-2,3.55l-.41-.29a13.21,13.21,0,0,1-1-2.54,1,1,0,0,1,.36-.66s.29-.15.77-.37a3.37,3.37,0,0,0,.92-.79c.56-.72,1.45-1.76,2.67-3.14Zm1.49-6.6c-.19.51-.77.76-1.75.76a4.31,4.31,0,0,1-2.27-.85,3.44,3.44,0,0,1-1.51-1.67h.24l.61.09A5.16,5.16,0,0,0,29,65l.58,0,.57,0a3.5,3.5,0,0,1,1.66.47C32.44,65.8,32.79,66.19,32.85,66.61ZM48.3,71.82c0,.45-.33.68-1,.68a2.08,2.08,0,0,1-.41,0,27.23,27.23,0,0,0-4.64-.57,15.56,15.56,0,0,0-3.37.29l.43.2-.29.25c1.58.11,2.77.16,3.59.16A5.29,5.29,0,0,0,44,72.64a18.49,18.49,0,0,1,1.81.43,3.52,3.52,0,0,1,1.47.94l.07.84a5.28,5.28,0,0,0-.65.37,3.15,3.15,0,0,0-.58.41c-.08.22-.19.54-.33,1a12.83,12.83,0,0,1-3.13,5.25,2.53,2.53,0,0,1-1.23.71,1.42,1.42,0,0,1-1.06-.67l-.82-1.07c-.19-.16-.5-.4-.91-.7a6.59,6.59,0,0,1-1.76,1,5.6,5.6,0,0,1-2,.49l-.12-.12a17.3,17.3,0,0,0,3.1-3.3,21.77,21.77,0,0,0,2.5-3.72l-.36,0c-2.31,3.08-4.63,4.69-7,4.84l-.16-.1a39.93,39.93,0,0,0,5.22-5.06L37.67,74q-4.94,4.45-7.1,4.45l-.36,0-.34,0a42.17,42.17,0,0,0,6.79-5.88,8.91,8.91,0,0,0-3.25,1.08,2.34,2.34,0,0,1-.68-.8c-.35-.6-.54-.91-.57-.94l.24-.16,1.08.18a47.66,47.66,0,0,1,7.6-1.52l-.19-.63c-.26,0-.5,0-.74,0a7.13,7.13,0,0,0-1.86.24l-1.75.62a1.28,1.28,0,0,1-.65-.78,2.53,2.53,0,0,1-.22-1,9.25,9.25,0,0,1,.11-1.12,9.56,9.56,0,0,0,.11-1.13,3.4,3.4,0,0,0-.08-.8l-.67-.94,0-.19a4.64,4.64,0,0,0,.67,0,3.36,3.36,0,0,0,.55,0l.65-.22,2.36-.6a13.6,13.6,0,0,1,1.73-.51,11.58,11.58,0,0,1,2.68.86.79.79,0,0,1,.48.7,1,1,0,0,1-.39.61l-.58.52q0,.7-.12,2.13c-.06.74-.16,1.43-.28,2.09l1.22-.14a10.13,10.13,0,0,1,2.58.32C47.76,70.76,48.3,71.22,48.3,71.82Zm-7.55-4.7c-1.16.23-2.23.47-3.23.7L37.31,69a7.51,7.51,0,0,0,1.7-.27q1.31-.33,1.71-.39Zm0-1.21,0-1c-1.39.3-2.47.56-3.22.78v.9l1.42-.45a5.12,5.12,0,0,1,1.47-.27Zm3.2,8.78-1.08-.08v.08c0,.14-.11.34-.38.61l-.61.58a12.77,12.77,0,0,0-1.34,1.7c-.71,1-1.13,1.59-1.28,1.76a3.23,3.23,0,0,0,1.13.19,4.66,4.66,0,0,0,1.09-.14c.43-.32,1.1-1.56,2-3.72A7.89,7.89,0,0,1,43.92,74.69Z"/><path class="cls-2" d="M35.26,98.23a2.2,2.2,0,0,1-.46,1.64,1.12,1.12,0,0,1-.38.06,3.13,3.13,0,0,1-1.09-.24,4.4,4.4,0,0,1-1.63-1,10.91,10.91,0,0,1-2.22-4.35c-.43-1.59-.86-3.2-1.3-4.81l.25,0a4.24,4.24,0,0,1,2.84,1.75A15.75,15.75,0,0,1,32,93.64,4,4,0,0,0,33.36,96,16.62,16.62,0,0,0,35,93l.12.15c0,1.49,0,2.39,0,2.7Q35.26,97.32,35.26,98.23Zm10.2-3.85a2,2,0,0,1-.5,1.31,1.67,1.67,0,0,1-1.33.7c-.32,0-.6-.24-.86-.72a4.75,4.75,0,0,1-.29-1.52,7.07,7.07,0,0,0-.75-2.58A6.2,6.2,0,0,0,40,89.39a7.07,7.07,0,0,1,3.82,1.66A4.3,4.3,0,0,1,45.46,94.38Z"/><path class="cls-2" d="M36.14,108.8a.88.88,0,0,0-.35-.76c-.22-.16-.34-.29-.34-.37s.29-.13.71-.07a6.38,6.38,0,0,1,2.44,1.16c.4.56.49,3.59.17,5a7.12,7.12,0,0,1-.93,2.73c-.23.09-.79-.06-1.7-.46Zm-.2,10.14a3.32,3.32,0,0,1,2.66.61.92.92,0,0,1-.15,1.38c-.32.36-.47.42-1.58.38a1.88,1.88,0,0,1-1.15-.29A1.8,1.8,0,0,1,35.94,118.94Z"/></g></g></svg>