<svg xmlns="http://www.w3.org/2000/svg" viewBox="0 0 144.58 61.37"><defs><style>.cls-1{fill:#fff;}</style></defs><title>資產 16</title><g id="圖層_2" data-name="圖層 2"><g id="圖層_1-2" data-name="圖層 1"><path class="cls-1" d="M109.6,0a82.35,82.35,0,0,1,13.73,4.28,50.94,50.94,0,0,1,12.59,7.33l.72.59.67.64,1.35,1.29a28,28,0,0,1,2.39,2.93,18.21,18.21,0,0,1,3.18,7.06,11.82,11.82,0,0,1,.27,2l.08,1,0,1a12.11,12.11,0,0,1-.21,2,14.43,14.43,0,0,1-.43,2A21.3,21.3,0,0,1,140.33,39,32.25,32.25,0,0,1,135,44.39a47,47,0,0,1-6.15,4.24,73.83,73.83,0,0,1-13.4,6.12,113.86,113.86,0,0,1-14.1,3.82A125.79,125.79,0,0,1,86.94,60.7q-7.25.67-14.51.67a140.68,140.68,0,0,1-14.51-.71,123,123,0,0,1-28.41-6,76.86,76.86,0,0,1-13.34-6A41.87,41.87,0,0,1,4.74,39.47,22.05,22.05,0,0,1,1,33a15.58,15.58,0,0,1-.85-7.4,16.77,16.77,0,0,1,2.58-6.85A25.59,25.59,0,0,1,7.5,13.4c-3.28,3.42-5.87,7.73-6.1,12.34a14.84,14.84,0,0,0,1.25,6.62A20.26,20.26,0,0,0,6.45,38a34.53,34.53,0,0,0,5.22,4.49,55.06,55.06,0,0,0,6,3.57,83,83,0,0,0,13,5.15,130.76,130.76,0,0,0,27.67,5,164.48,164.48,0,0,0,28.16-.28,128.21,128.21,0,0,0,27.46-5.59,76.52,76.52,0,0,0,12.74-5.47,37.64,37.64,0,0,0,10.56-8.32,17.55,17.55,0,0,0,3.2-5.58,13.32,13.32,0,0,0,.52-6.24,15.12,15.12,0,0,0-2.33-6,24.59,24.59,0,0,0-2-2.74l-1.17-1.25-.58-.63-.64-.58a51,51,0,0,0-11.54-7.91c-1.06-.52-2.11-1.07-3.19-1.57s-2.16-1-3.26-1.44L113,1.22Z"/></g></g></svg>